<?xml version="1.0" encoding="UTF-8"?>
<svg version="1.1" viewBox="0 0 159 40" xmlns="http://www.w3.org/2000/svg">
<title>B28D3747-1905-42E2-ABA2-2B94BE2430AE</title>
<desc>Created with sketchtool.</desc>
<g fill="none" fill-rule="evenodd">
<g transform="translate(-1114 -12)" fill="#fff" fill-rule="nonzero">
<g transform="translate(1114 11)">
<path d="m158.88 1.087c-6.2498 1.129-12.594 1.6551-18.944 1.571-6.3486 0.071262-12.69-0.45472-18.94-1.571 1.1207 6.2338 1.6484 12.56 1.576 18.893 0.071531 6.3356-0.45615 12.664-1.576 18.9 6.2511-1.1139 12.593-1.6399 18.942-1.571 6.3493-0.071938 12.691 0.45405 18.942 1.571-1.1158-6.2367-1.6415-12.565-1.57-18.9-0.067824-6.3329 0.45781-12.658 1.57-18.893zm-12.612 9.489v0.086h0.086c0.32749 0.059902 0.54618 0.37168 0.491 0.7v0.049h0.043c0.23805 0.13855 0.4218 0.35405 0.521 0.611l0.031 0.012c0.022553 0.093748 0.007094 0.19261-0.043 0.275-0.11859 0.0061266-0.23741 0.0061266-0.356 0-0.21642 0.029971-0.43605-0.024847-0.613-0.153-0.36174-0.11636-0.69877-0.29877-0.994-0.538l-0.043-0.037h-0.049c-0.11235 0.056403-0.23629 0.085848-0.362 0.086-0.25177-0.013237-0.49079-0.11487-0.675-0.287l-0.061-0.049-0.055 0.067c-0.041066 0.038921-0.088835 0.070089-0.141 0.092h-0.16c-0.22213-0.017948-0.43465-0.098379-0.613-0.232l-0.08-0.055-0.037 0.092c-0.15742 0.21954-0.42713 0.32891-0.693 0.281-0.093901 0.0061115-0.1881 0.0061115-0.282 0-0.48273-0.18334-0.97634-0.33663-1.478-0.459l-0.215-0.037c0.20003-0.083116 0.4047-0.15457 0.613-0.214 0.35-0.1 0.65-0.165 0.65-0.165 0.325-0.1332 0.56208-0.4198 0.632-0.764 0.17942 0.005497 0.35711-0.036595 0.515-0.122h0.037c0.22378-0.087688 0.46004-0.13933 0.7-0.153 0.098265-0.012403 0.19701 0.01905 0.27 0.086 0.041654 0.05117 0.057506 0.11863 0.043 0.183v0.135l0.123-0.049c0.27575-0.11605 0.56731-0.19021 0.865-0.22 0.078249-0.013202 0.1581 0.011683 0.215 0.067 0.024514 0.054364 0.024514 0.11664 0 0.171l-0.031 0.128h0.123c0.11634-0.012252 0.23366-0.012252 0.35 0 0.22048-0.035047 0.44513 0.029818 0.613 0.177 0.054552 0.0656 0.076597 0.15231 0.06 0.236zm-1.705 3.7c-0.40683-0.040424-0.74874-0.32304-0.865-0.715l-0.049-0.086-0.074 0.055c-0.040769 0.0061546-0.082231 0.0061546-0.123 0-0.13554-0.010204-0.26145-0.073882-0.35-0.177l-0.067-0.067c-0.096785-0.11011-0.18316-0.22895-0.258-0.355l-0.061-0.11-0.037 0.061v0.049c-0.063072 0.071255-0.15621 0.10836-0.251 0.1-0.24878-0.025471-0.48406-0.12551-0.675-0.287-0.38259-0.43333-0.79242-0.84182-1.227-1.223l-0.233-0.11-0.147-0.1h0.11c0.60806 0.11083 1.2039 0.28063 1.779 0.507 0.10424 0.0061161 0.20876 0.0061161 0.313 0 0.29637 0.031492 0.59005-0.07989 0.791-0.3 0.18065 0.12748 0.39252 0.20352 0.613 0.22h0.049c0.006133 0.038424 0.006133 0.077576 0 0.116l-0.037 0.116h0.11c0.35444-0.03022 0.7066 0.07963 0.981 0.306 0.042883 0.086651 0.042883 0.18835 0 0.275l-0.043 0.092h0.092c0.31937 0.09691 0.59756 0.29703 0.791 0.569 0.059216 0.1175 0.070336 0.25344 0.031 0.379v0.067l0.025 0.012c0.31222 0.26263 0.42928 0.69109 0.294 1.076v0.037l-6e-3 0.024s0.546 0.819 0.245 1.223c-0.34162-0.098399-0.63719-0.31494-0.834-0.611-0.31732-0.32133-0.58221-0.69049-0.785-1.094v-0.055l-0.102 6e-3zm-0.785 1.223c0.12576 0.23953 0.061228 0.53479-0.153 0.7l-0.043 0.031v0.055c0.045691 0.22597 0.022347 0.46047-0.067 0.673-0.043519 0.055995-0.10378 0.096635-0.172 0.116-0.22239-0.19677-0.37881-0.45723-0.448-0.746v-0.041c-0.13378-0.31715-0.20867-0.65601-0.221-1v-0.055h-0.043c-0.30121-0.16324-0.47535-0.49102-0.442-0.832v-0.024h-0.074c-0.018 0-0.35-0.018-0.429-0.7v-0.1h-0.086s-0.288 0.067-0.675-0.544c-0.17004-0.49097-0.37489-0.96919-0.613-1.431 0.48324 0.40924 0.93642 0.85271 1.356 1.327 0.21991 0.17731 0.48614 0.28769 0.767 0.318 0.10844 0.0015887 0.2142-0.033667 0.3-0.1 0.062165 0.099019 0.13205 0.19298 0.209 0.281h-0.037l-0.11 0.079 0.117 0.073c0.2924 0.13552 0.5303 0.36603 0.675 0.654-0.009837 0.04777-0.045214 0.086223-0.092 0.1l-0.11 0.055 0.092 0.086c0.22129 0.18416 0.37272 0.43866 0.429 0.721v6e-3c-0.008794 0.069844-0.044714 0.13342-0.1 0.177l-0.067 0.043 0.037 0.078zm-7.526 0.679c-0.22833-0.16599-0.29212-0.47887-0.147-0.721l0.043-0.073-0.061-0.043c-0.061389-0.039485-0.10178-0.10447-0.11-0.177 0.056285-0.28234 0.20771-0.53684 0.429-0.721l0.092-0.086-0.117-0.055c-0.045557-0.015704-0.080141-0.053295-0.092-0.1 0.14705-0.28834 0.38695-0.51873 0.681-0.654l0.11-0.073-0.1-0.079h-0.031c0.061-0.079 0.129-0.171 0.2-0.281 0.085796 0.066333 0.19156 0.10159 0.3 0.1 0.27606-0.029512 0.5378-0.13782 0.754-0.312 0.42325-0.47283 0.87831-0.9162 1.362-1.327-0.24176 0.46009-0.44673 0.93858-0.613 1.431-0.386 0.636-0.681 0.544-0.681 0.544l-0.086-0.031v0.1c-0.074 0.7-0.423 0.7-0.423 0.7h-0.08v0.1c0.030394 0.34039-0.14293 0.66664-0.442 0.832h-0.043v0.061c-0.020982 0.34343-0.097649 0.68117-0.227 1-0.066689 0.28978-0.22354 0.55096-0.448 0.746-0.068331-0.015567-0.12789-0.057186-0.166-0.116-0.092455-0.21173-0.1159-0.4472-0.067-0.673v-0.055l-0.037-0.037zm-2.153-2.544 0.049-0.037v-0.067c-0.048995-0.12158-0.048995-0.25742 0-0.379 0.19352-0.2758 0.47597-0.47669 0.8-0.569h0.086l-0.043-0.092c-0.042883-0.086651-0.042883-0.18835 0-0.275 0.27696-0.2267 0.63139-0.33647 0.988-0.306h0.11l-0.031-0.116c-0.006099-0.038426-0.006099-0.077574 0-0.116h0.043c0.22108-0.01362 0.43371-0.08993 0.613-0.22 0.20095 0.22011 0.49463 0.33149 0.791 0.3 0.10424 0.0061184 0.20876 0.0061184 0.313 0 0.57513-0.22636 1.1709-0.39616 1.779-0.507l0.018-0.031h0.117l-0.2 0.122-0.227 0.177c-0.43605 0.37959-0.84599 0.78819-1.227 1.223-0.19094 0.16149-0.42622 0.26153-0.675 0.287-0.092434 0.0045255-0.18213-0.032086-0.245-0.1l-0.031-0.049-0.037-0.067-0.067 0.116c-0.074528 0.12454-0.15844 0.24321-0.251 0.355l-0.067 0.067c-0.088548 0.10312-0.21446 0.1668-0.35 0.177-0.040923-7.937e-4 -0.081053-0.011426-0.117-0.031l-0.08-0.061-0.043 0.092c-0.1112 0.38161-0.43473 0.66332-0.828 0.721h-0.1v0.055c-0.20858 0.39998-0.47288 0.76832-0.785 1.094-0.19931 0.29623-0.49679 0.5126-0.84 0.611-0.307-0.4 0.245-1.223 0.245-1.223v-0.073c-0.13691-0.38487-0.020984-0.8143 0.291-1.078h1e-3zm3.361 10.168h2.135l-0.454-1.969 0.35-0.349-0.454-1.779 0.362-0.177-0.478-1.95 0.429-0.306-0.374-1.663 0.423-0.232-0.27-1.48 0.356-0.232-0.055-1.6c0.098148-0.30452 0.27351-0.57842 0.509-0.795 0.24078 0.21413 0.41705 0.49118 0.509 0.8l-0.055 1.6 0.35 0.226-0.27 1.48 0.429 0.232-0.38 1.663 0.429 0.306-0.466 1.95 0.362 0.177-0.46 1.779 0.35 0.349-0.393 1.963h2.1l0.043 0.037c0.13709 0.045829 0.215 0.19027 0.178 0.33-0.36257 0.47266-0.79721 0.88537-1.288 1.223-0.066046-0.17835-0.11526-0.36248-0.147-0.55-0.043-0.055-0.5 0.44-0.718 0.556-0.16369-0.1759-0.34919-0.33015-0.552-0.459-0.325 0.208-0.681 0.459-0.681 0.459-0.209-0.11-0.534-0.6-0.57-0.544-0.037973 0.18539-0.091153 0.36734-0.159 0.544-0.48935-0.34704-0.92012-0.77004-1.276-1.253-0.096-0.214 0.186-0.336 0.186-0.336zm6.668-16.179c0.094892-0.0038971 0.18059 0.056377 0.209 0.147l0.031 0.079 0.067-0.037c0.062326-0.029955 0.13087-0.044692 0.2-0.043 0.19652 0.0073555 0.36896 0.13312 0.436 0.318v0.049h0.049c0.20652-0.015068 0.41084 0.050529 0.57 0.183 0.049349 0.054742 0.075833 0.12632 0.074 0.2-0.19661 0.17845-0.43491 0.30464-0.693 0.367h-0.1c-0.21947 0.06359-0.44652 0.097228-0.675 0.1h-0.325v0.049c-0.1405 0.22906-0.39346 0.36472-0.662 0.355h-0.239v0.153c-0.018475 0.070237-0.056641 0.13373-0.11 0.183l-0.067 0.055c-0.057934 0.033636-0.11971 0.060161-0.184 0.079h-0.073c-0.089896 0.0061249-0.1801 0.0061249-0.27 0h-0.067v0.079c-0.073776 0.3024-0.31036 0.53821-0.613 0.611l0.018-0.055c-0.38486 0.083647-0.76398 0.19187-1.135 0.324-0.145 0.048955-0.28635 0.1081-0.423 0.177 0.055-0.067 0.117-0.141 0.184-0.208 0.24438-0.2476 0.50245-0.4813 0.773-0.7 0.22939-0.21454 0.34111-0.52662 0.3-0.838 0.25796-0.095914 0.4341-0.33614 0.448-0.611 0.1476-0.058575 0.27822-0.15311 0.38-0.275 0.067255 6.0239e-4 0.12428 0.049602 0.135 0.116l0.141 0.067 0.086-0.11c0.15942-0.26832 0.39703-0.48151 0.681-0.611 0.018 0 0.061 0 0.1 0.116v0.128l0.1-0.086c0.17793-0.18127 0.40486-0.30673 0.653-0.361h1e-3zm-3.312 0.507 0.1 0.092 0.031-0.135c0.018753-0.28116 0.13843-0.54608 0.337-0.746 0.031588 0.0064846 0.058683 0.026623 0.074 0.055l0.086 0.1 0.043-0.122c0.077175-0.23777 0.24749-0.43407 0.472-0.544 0.045273-1.3335e-4 0.088217 0.020054 0.117 0.055l0.061 0.055 0.049-0.067c0.067773-0.09129 0.17431-0.14567 0.288-0.147 0.10224 0.0022671 0.20023 0.041322 0.276 0.11l0.043 0.031h0.043c0.11854-0.073329 0.25378-0.11531 0.393-0.122 0.099763-0.008042 0.19439 0.045407 0.239 0.135-0.088042 0.22732-0.24461 0.42163-0.448 0.556-0.20379 0.18264-0.43844 0.32756-0.693 0.428h-0.049v0.128c-0.012802 0.10134-0.050603 0.1979-0.11 0.281-0.098938 0.13756-0.239 0.24016-0.4 0.293h-0.049v0.1c-0.007485 0.10746-0.055784 0.208-0.135 0.281-0.085132 0.081095-0.18228 0.14856-0.288 0.2l-0.067 0.031 0.043 0.079c0.062514 0.26561-0.032723 0.54355-0.245 0.715-0.21879 0.15332-0.42389 0.32529-0.613 0.514l-0.018 0.018-0.184 0.183-0.166 0.177v-0.1c0.2-0.679 0.546-1.908 0.687-2.69 0.033491 0.008097 0.062741 0.028429 0.082 0.057l1e-3 -1e-3zm-1.448-1.963c0.011606-0.019286 0.032491-0.031058 0.055-0.031h0.061l0.092 0.055v-0.116c0.048583-0.30968 0.17066-0.6032 0.356-0.856 0.18714 0.25242 0.31126 0.5459 0.362 0.856v0.116l0.092-0.055h0.055c0.024098 7.791e-5 0.046731 0.01158 0.061 0.031 0.14017 0.39181 0.17466 0.81363 0.1 1.223v0.1h0.061c0.007226 0.15194-0.007253 0.30414-0.043 0.452-0.006085 0.04245-0.006085 0.08555 0 0.128l-0.043-6e-3c-0.026328 0.06867-0.042824 0.14072-0.049 0.214-0.123 0.563-0.319 1.339-0.546 2.122v0.049c-0.036242 0.072621-0.058946 0.15124-0.067 0.232l-0.074-0.226v-0.049c-0.221-0.783-0.423-1.559-0.54-2.122l-0.049-0.22v-0.128c-0.035494-0.1479-0.04997-0.30006-0.043-0.452h0.055v-0.1c-0.078448-0.40708-0.042801-0.82792 0.103-1.216l1e-3 -1e-3zm-2.724 0.563c0.13866 0.009771 0.27318 0.051529 0.393 0.122h0.043l0.043-0.031c0.073432-0.068588 0.16954-0.10774 0.27-0.11 0.11454 0.0046104 0.22159 0.058137 0.294 0.147l0.049 0.067 0.061-0.055c0.028496-0.030586 0.068203-0.048274 0.11-0.049 0.22295 0.11028 0.39126 0.30676 0.466 0.544l0.049 0.122 0.08-0.1c0.014403-0.031751 0.045197-0.052922 0.08-0.055 0.19585 0.20118 0.31326 0.46579 0.331 0.746v0.135l0.1-0.092c0.021621-0.026406 0.052261-0.043863 0.086-0.049l0.037-0.024c0.141 0.783 0.485 2.012 0.681 2.684l0.031 0.1c-0.049749-0.061841-0.10283-0.12093-0.159-0.177l-0.19-0.183c-0.294-0.257-0.564-0.477-0.613-0.514-0.2105-0.17284-0.30727-0.4485-0.251-0.715l0.049-0.073-0.123-0.11c-0.10572-0.051457-0.20286-0.11892-0.288-0.2-0.077591-0.073553-0.1238-0.17421-0.129-0.281v-0.1h-0.049c-0.16259-0.049709-0.30357-0.15298-0.4-0.293-0.053658-0.085141-0.087808-0.1811-0.1-0.281v-0.058h-0.043c-0.25791-0.097914-0.4953-0.24306-0.7-0.428-0.20175-0.13466-0.35631-0.32908-0.442-0.556 0.042679-0.088645 0.13606-0.14132 0.234-0.132v-1e-3zm-2.429 1.675c0.15916-0.13247 0.36348-0.19807 0.57-0.183h0.086v-0.049c0.067616-0.18704 0.24317-0.31334 0.442-0.318 0.06586-0.0010609 0.13102 0.013685 0.19 0.043l0.074 0.037 0.037-0.079c0.024519-0.089446 0.10731-0.1503 0.2-0.147 0.24936 0.054545 0.47859 0.17747 0.662 0.355l0.086 0.086 0.043-0.128c0.025-0.122 0.092-0.122 0.092-0.122 0.28397 0.12949 0.52158 0.34268 0.681 0.611l0.08 0.11 0.055-0.128c0.01072-0.066398 0.067745-0.1154 0.135-0.116 0.10013 0.12364 0.23125 0.21853 0.38 0.275 0.019817 0.27272 0.19386 0.51009 0.448 0.611-0.03005 0.3101 0.079969 0.61742 0.3 0.838 0.27055 0.2187 0.52862 0.4524 0.773 0.7 0.067675 0.063454 0.12928 0.13309 0.184 0.208l0.067 0.055c-0.13714-0.067829-0.27842-0.12695-0.423-0.177-0.37102-0.13213-0.75013-0.24036-1.135-0.324-0.30049-0.076601-0.53542-0.31076-0.613-0.611v-0.079h-0.1c-0.089896 0.0061249-0.1801 0.0061249-0.27 0h-0.074c-0.065203-0.016206-0.12734-0.042886-0.184-0.079l-0.074-0.055c-0.053403-0.049233-0.091577-0.11274-0.11-0.183v-0.086h-0.233c-0.26791 0.0070161-0.51961-0.12796-0.662-0.355v-0.049h-0.319c-0.23048-0.0023415-0.45958-0.035982-0.681-0.1h-0.086c-0.25809-0.062357-0.49639-0.18855-0.693-0.367-0.001703-0.071197 0.024082-0.14031 0.072-0.193v-1e-3zm-1.779 3.682c0.098881-0.25531 0.28012-0.47033 0.515-0.611h0.049v-0.055c-0.05423-0.33114 0.16917-0.6439 0.5-0.7h0.08v-0.086c-0.017154-0.081665 0.003012-0.16673 0.055-0.232 0.16932-0.14451 0.39271-0.20902 0.613-0.177 0.11634-0.012252 0.23366-0.012252 0.35 0h0.123l-0.031-0.128c-0.018383-0.055518-0.018383-0.11548 0-0.171 0.059773-0.054555 0.141-0.079179 0.221-0.067 0.29614 0.027608 0.58605 0.10186 0.859 0.22l0.123 0.049v-0.135c-0.012872-0.063494 4.73e-4 -0.12949 0.037-0.183 0.077664-0.067155 0.18008-0.098388 0.282-0.086 0.24147 0.014426 0.47927 0.066034 0.705 0.153h0.031c0.15789 0.085405 0.33558 0.1275 0.515 0.122 0.10154 0.33117 0.35779 0.59227 0.687 0.7 0 0 0.294 0.067 0.644 0.165 0.22126 0.056545 0.43842 0.12804 0.65 0.214l-0.209 0.037c-0.50362 0.12237-0.99923 0.27566-1.484 0.459-0.095903 0.0061068-0.1921 0.0061068-0.288 0-0.26801 0.049276-0.54045-0.06009-0.7-0.281l-0.037-0.1-0.08 0.061c-0.17696 0.13614-0.39025 0.21687-0.613 0.232h-0.153c-0.055547-0.018692-0.10591-0.05021-0.147-0.092l-0.055-0.067-0.055 0.049c-0.18421 0.17213-0.42323 0.27376-0.675 0.287-0.12571-1.152e-4 -0.24967-0.029562-0.362-0.086h-0.05l-0.043 0.037c-0.29736 0.23937-0.63638 0.42177-1 0.538l-0.043 0.055c-0.17695 0.12815-0.39658 0.18297-0.613 0.153-0.12267 6e-3 -0.24533 6e-3 -0.368 0-0.046749-0.083392-0.058613-0.18189-0.033-0.274zm12.765 14.7c-1.448 1-2.84 2.079-4.19 3.21 0.724 0.666 1.417 1.351 2.086 2.067l0.025-0.018 0.067-0.061c0-6e-3 6e-3 -6e-3 6e-3 -0.012 0.020282-0.017122 0.04654-0.025479 0.072987-0.023228 0.026448 0.0022509 0.050916 0.014924 0.068013 0.035228 0.018551 0.027861 0.018551 0.064139 0 0.092 0.04671-0.035917 0.081549-0.085041 0.1-0.141-0.063799-0.17851-0.009973-0.37786 0.135-0.5 0.019337-0.023399 0.041895-0.043937 0.067-0.061 0.18584-0.13034 0.44216-0.085344 0.5725 0.1005 0.13034 0.18584 0.085344 0.44216-0.1005 0.5725-0.11215 0.099119-0.26433 0.13985-0.411 0.11-0.055234 0.08991-0.068733 0.19936-0.037 0.3 0.38517 0.50201 0.9864 0.79055 1.619 0.777 0.50308-0.0070208 0.97898-0.2295 1.307-0.611 0.026997-0.032186 0.055705-0.062897 0.086-0.092 0.29363-0.24006 0.72579-0.19903 0.969 0.092l0.025-0.067c0.785 1.113-0.81 2.158-1.932 2.158-1.0921-0.016047-2.1385-0.44143-2.932-1.192-0.11-0.141-0.2-0.19-0.307-0.141-0.066421 0.052504-0.10865 0.12975-0.117 0.214 0.012697 0.1511-0.046599 0.29934-0.16 0.4-0.17114 0.16471-0.44186 0.16471-0.613 0-6e-3 -6e-3 -0.012-0.018-0.018-0.024-0.065941-0.089937-0.093308-0.20245-0.07604-0.31263s0.077745-0.20892 0.16804-0.27437c0.089224-0.087774 0.21226-0.13232 0.337-0.122-0.038772-0.039004-0.038772-0.102 0-0.141l0.129-0.135c-0.718-0.709-1.46-1.388-2.214-2.061-0.755 0.673-1.5 1.351-2.214 2.061l0.153 0.153c0.019081 0.017253 0.029969 0.041775 0.029969 0.0675s-0.010888 0.050247-0.029969 0.0675v6e-3c0.12613-0.007407 0.24988 0.036608 0.343 0.122 0.11897 0.084315 0.18392 0.22569 0.17039 0.37088-0.013534 0.14519-0.1035 0.27213-0.236 0.333-0.1325 0.060873-0.28742 0.046433-0.40639-0.037882-0.024878-0.014993-0.047447-0.03352-0.067-0.055-0.11538-0.099197-0.17479-0.24866-0.159-0.4-0.010623-0.084948-0.054945-0.16206-0.123-0.214-0.1-0.049-0.19 0-0.307 0.141-0.78901 0.75381-1.8348 1.1799-2.926 1.192-1.129 0-2.717-1.046-1.932-2.158l-6e-3 0.049c0.11765-0.13955 0.28613-0.22638 0.46806-0.24121 0.18192-0.014832 0.36224 0.043557 0.50094 0.16221 0.029621 0.023163 0.056466 0.049672 0.08 0.079 0.32793 0.385 0.80728 0.60806 1.313 0.611 0.63915 0.032258 1.2535-0.25099 1.644-0.758 0.034926-0.10032 0.021254-0.21117-0.037-0.3-0.14667 0.029848-0.29885-0.010881-0.411-0.11-0.12022-0.084315-0.18633-0.22636-0.17342-0.37263 0.012909-0.14627 0.10287-0.27454 0.236-0.3365 0.13313-0.061956 0.2892-0.048183 0.40942 0.036132 0.025105 0.017063 0.047663 0.037601 0.067 0.061 0.14497 0.12214 0.1988 0.32149 0.135 0.5 0.018451 0.055959 0.05329 0.10508 0.1 0.141-0.012334-0.029431-0.012334-0.062573 0-0.092 0.017097-0.020304 0.041565-0.032977 0.068013-0.035228 0.026447-0.0022508 0.052705 0.0061055 0.072987 0.023228 0 6e-3 6e-3 6e-3 6e-3 0.012l0.067 0.061c0.675-0.715 1.368-1.4 2.092-2.061-1.3493-1.1373-2.7493-2.2093-4.2-3.216-4.662-3.094-8.177-2.794-8.177-2.794 2.638-1.009 5.95-0.024 7.465 0.825 2.1199 1.2229 4.1221 2.6392 5.981 4.231 1.8589-1.5918 3.8611-3.0081 5.981-4.231 1.5-0.85 4.821-1.834 7.453-0.825 0.012964-3e-3 -3.495-0.302-8.163 2.792v1e-3z"/>
<path d="m120.74 39.441-0.362 0.073-1.491 1.486c6.3499-1.1699 12.799-1.7188 19.255-1.639 6.4568-0.092124 12.907 0.4569 19.255 1.639l1.6-1.6c-6.2854-1.1374-12.665-1.6732-19.052-1.6-6.4373-0.066524-12.866 0.48028-19.2 1.633"/>
<path d="m120.37 39.514 0.08-0.361c1.1684-6.3168 1.717-12.733 1.638-19.156 0.064312-6.3698-0.47375-12.731-1.607-19l-1.595 1.6c1.1738 6.3309 1.7244 12.762 1.644 19.2 0.093741 6.4406-0.45565 12.875-1.64 19.206l1.48-1.489z"/>
<path d="m5.2 19.337c-0.044691 0.86159-0.35527 1.6882-0.889 2.366-0.34681 0.63306-0.9821 1.0557-1.7 1.131-0.51174-0.053739-1.0122-0.1856-1.484-0.391-0.75133-0.28533-1.127-0.51967-1.127-0.703 0.0071132-0.029118 0.031303-0.050929 0.061-0.055 0.2237 0.069858 0.4428 0.15369 0.656 0.251 0.30691 0.14261 0.63738 0.22768 0.975 0.251 0.76021-0.114 1.452-0.50333 1.944-1.094 0.6127-0.47651 1.0273-1.1629 1.164-1.927 0-0.38733-0.462-0.913-1.386-1.577 0.053333-0.228 0.14533-0.64567 0.276-1.253 0.40493 0.29164 0.75586 0.65171 1.037 1.064 0.33568 0.58874 0.49955 1.2598 0.473 1.937z"/>
<path d="m9.096 19.857h-2.005c-0.13933-2.4987-0.31533-4.873-0.528-7.123l0.687-0.9 0.331 3.919c0.054455 0.94108 0.16498 1.8781 0.331 2.806l0.123 0.1c0.15399 0.12762 0.35323 0.18718 0.552 0.165h0.534v1.039l-0.025-6e-3z"/>
<polygon points="10.765 19.856 8.735 19.856 8.735 18.817 10.765 18.817"/>
<path d="m16.881 19.857h-0.871l-0.319 0.679-2.619-1.431c-0.1743 0.055829-0.30836 0.19629-0.356 0.373-0.059516 0.19406-0.22301 0.33824-0.423 0.373h-1.767v-1.039h1.877c0.25415-0.038368 0.45737-0.23121 0.509-0.483 0.08912-0.27789 0.2064-0.54595 0.35-0.8 0.29325-0.25962 0.61185-0.48911 0.951-0.685 0.32406-0.21723 0.69748-0.34961 1.086-0.385 0.071712-0.014896 0.1462 0.0058843 0.19984 0.055753 0.053643 0.049868 0.079794 0.12264 0.070161 0.19525 0.011646 0.14443 0.011646 0.28957 0 0.434 0.274 1.0513 0.62367 1.614 1.049 1.688h0.288v1.039l-0.025-0.014zm-1.484-1.058c-0.066667-0.306-0.122-0.53933-0.166-0.7-0.0090474-0.26715-0.19043-0.49752-0.448-0.569-0.46119-0.02941-0.90223 0.19283-1.153 0.581l0.7 0.44c0.23521 0.15655 0.49725 0.26841 0.773 0.33l0.294-0.082z"/>
<polygon points="18.623 19.856 16.593 19.856 16.593 18.817 18.623 18.817"/>
<path d="m22.34 19.857h-0.613c-0.14993-0.0044757-0.29512-0.053568-0.417-0.141-0.07784-0.073606-0.1386-0.16338-0.178-0.263-0.028903-0.08207-0.07492-0.15706-0.135-0.22-0.10662 0.080269-0.18926 0.18816-0.239 0.312-0.04994 0.13474-0.14836 0.246-0.276 0.312h-2.1v-1.04h2.717v-1.37c0.23333-0.31 0.54833-0.687 0.945-1.131 0.0097533 0.040082 0.0097533 0.081918 0 0.122-0.023229 0.65767-0.10116 1.3123-0.233 1.957-0.021978 0.10078-0.036352 0.20307-0.043 0.306 0 0.081 0.069 0.122 0.209 0.122h0.319v1.044l0.044-0.01zm-0.442-5.466-0.491 0.813-1.147-0.685-0.362 0.611-1.227-0.709 0.5-0.844 1.129 0.728 0.393-0.611 1.205 0.697zm-1.319-1.785-0.509 0.832-1.129-0.715 0.5-0.807 1.138 0.69z"/>
<path d="m26.02 19.856h-0.613c-0.14993-0.0044757-0.29512-0.053568-0.417-0.141-0.07784-0.073606-0.1386-0.16338-0.178-0.263-0.028903-0.08207-0.07492-0.15706-0.135-0.22-0.10662 0.080269-0.18926 0.18816-0.239 0.312-0.04994 0.13474-0.14836 0.246-0.276 0.312h-2.1v-1.039h2.724v-1.37c0.23333-0.31 0.54833-0.687 0.945-1.131 0.0097533 0.040082 0.0097533 0.081918 0 0.122-0.023229 0.65767-0.10116 1.3123-0.233 1.957-0.02197 0.10078-0.036344 0.20307-0.043 0.306 0 0.081 0.069 0.122 0.209 0.122h0.319v1.039l0.037-6e-3zm-0.4-5.552-0.5 0.819-1.165-0.7-0.362 0.611-1.2-0.7 0.5-0.856 1.129 0.709 0.386-0.611 1.212 0.728z"/>
<path d="m34.547 18.267c-0.0013219 0.36785-0.061413 0.73312-0.178 1.082-0.044414 0.18133-0.12132 0.3531-0.227 0.507h-1.76c-0.10126-0.039096-0.18145-0.11892-0.221-0.22l-0.086-0.171c-0.14004 0.13835-0.2876 0.26888-0.442 0.391h-3.14c-0.046068-0.14104-0.11909-0.27179-0.215-0.385 0.12267 0 0.065333 0.066667-0.172 0.2-0.15142 0.099815-0.32152 0.16786-0.5 0.2h-1.837v-1.039h2.251c0.20238-0.0091824 0.35904-0.18061 0.35-0.383v-0.625l0.939-1c-0.032448 0.68593-0.18616 1.3607-0.454 1.993h2.969c0.072709-0.24164 0.091485-0.4963 0.055-0.746 0-0.24 0.32933-0.617 0.988-1.131-0.086 0.31-0.225 0.87267-0.417 1.688-0.041333 0.13333 0.31633 0.2 1.073 0.2h0.442c-0.028667-0.20333-0.10233-0.53667-0.221-1 0.032072-0.19457 0.14319-0.36722 0.307-0.477 0.18601-0.17872 0.3563-0.3731 0.509-0.581v1.51l-0.013-0.013z"/>
<path d="m41.926 12.877c-0.020465 0.15687-0.10477 0.29834-0.233 0.391l-0.448 0.569v0.526c-0.0084964 0.66859-0.15453 1.3283-0.429 1.938-0.11316 0.24771-0.24452 0.4867-0.393 0.715-0.098589 0.13551-0.18271 0.28097-0.251 0.434 0.17835 0.48239 0.32172 0.97701 0.429 1.48 0.0079985 0.1162 0.0079985 0.2328 0 0.349 0.034322 0.17432-0.017358 0.3545-0.13886 0.48413s-0.29797 0.19285-0.47414 0.16987h-2.969l0.184-1.1c0.51442-0.18449 0.98597-0.47164 1.386-0.844 0.33191-0.20955 0.61606-0.48654 0.834-0.813-0.1845-0.43569-0.45332-0.83059-0.791-1.162-0.37611-0.47727-0.78618-0.92677-1.227-1.345l-0.166 0.569c-0.42394-0.26762-0.8335-0.55735-1.227-0.868-0.30502-0.20652-0.50618-0.53451-0.552-0.9 0-0.81533 0.12867-1.223 0.386-1.223 0.26115 0.085622 0.50302 0.22151 0.712 0.4 0.55988 0.41241 1.0738 0.88378 1.533 1.406 0.72326 0.81413 1.3414 1.7158 1.84 2.684 0.17066-0.13589 0.31071-0.30627 0.411-0.5 0.16101-0.25201 0.26573-0.53581 0.307-0.832 0.0055297-0.10593 0.0055297-0.21207 0-0.318-0.036979-0.61836-0.12935-1.2321-0.276-1.834-0.14087-0.13107-0.26271-0.28119-0.362-0.446-0.0094649-0.30098 0.10096-0.5934 0.307-0.813 0.068721-0.18562 0.20723-0.33704 0.386-0.422 0.07082 0.30178 0.22868 0.57612 0.454 0.789 0.20454 0.23839 0.46999 0.41674 0.768 0.516zm-1.84 6.078c-0.020924-0.43712-0.1294-0.86559-0.319-1.26-0.29347 0.3528-0.65412 0.64376-1.061 0.856-0.23039 0.14534-0.46803 0.27884-0.712 0.4 0.17157 0.11398 0.38326 0.15029 0.583 0.1 0.4-8e-3 0.905-0.041333 1.515-0.1l-6e-3 4e-3z"/>
<path d="m44.427 18.475c-0.063886 0.61805-0.2298 1.2212-0.491 1.785-0.15533-1.83-0.374-4.0453-0.656-6.646 0.10882-0.6546 0.37627-1.2726 0.779-1.8 0.041333 0.066667 0.115 1.1837 0.221 3.351l0.147 3.31z"/>
<path d="m49.974 18.408c0.0068167 0.94391-0.20289 1.8768-0.613 2.727-0.21084 0.43291-0.49504 0.82604-0.84 1.162-0.3037 0.36463-0.75248 0.57713-1.227 0.581-0.48903-0.049891-0.97459-0.12937-1.454-0.238-0.78533-0.17133-1.178-0.322-1.178-0.452 0-0.069 0.049-0.1 0.147-0.1 0.23058 0.01347 0.45896 0.052373 0.681 0.116 0.22815 0.065219 0.46301 0.10414 0.7 0.116 0.15549-0.0044392 0.30905-0.035558 0.454-0.092 0.71733-0.27122 1.371-0.68757 1.92-1.223 0.57055-0.44691 0.92867-1.1117 0.988-1.834 0.0031118-0.20689-0.0259-0.41301-0.086-0.611-0.13158 0.37816-0.37588 0.70691-0.7 0.942-0.22865 0.095391-0.47936 0.12517-0.724 0.086-0.28848-0.031612-0.53607-0.21961-0.644-0.489-0.12288-0.26005-0.18576-0.54439-0.184-0.832 0.056975-0.50993 0.24509-0.9964 0.546-1.412 0.40933-0.636 0.759-0.954 1.049-0.954 0.20867 0 0.45 0.26667 0.724 0.8 0.28649 0.52354 0.43805 1.1102 0.441 1.707zm-0.761-0.128c-0.009605-0.25275-0.083611-0.49887-0.215-0.715-0.095724-0.23103-0.3049-0.3955-0.552-0.434-0.21216 0.020791-0.40588 0.12962-0.534 0.3-0.16665 0.13566-0.27419 0.33067-0.3 0.544 0.036621 0.197 0.18949 0.35185 0.386 0.391 0.18309 0.075401 0.379 0.11479 0.577 0.116 0.23197 0.029124 0.46507-0.044678 0.638-0.202z"/>
<path d="m57.525 17.491c-0.059131 0.42982-0.19855 0.8447-0.411 1.223-0.16521 0.22959-0.3614 0.43521-0.583 0.611-0.38266 0.29377-0.8392 0.47584-1.319 0.526-0.29548 0.040621-0.59645 5.384e-4 -0.871-0.116-0.28398-0.10067-0.47169-0.37176-0.466-0.673 0.16243-0.81674 0.55162-1.5712 1.123-2.177l0.957-1.223c0.18434 0.19737 0.38992 0.37377 0.613 0.526 0.31867 0.23267 0.523 0.38567 0.613 0.459 0.2287 0.22014 0.35366 0.52671 0.344 0.844zm-0.356-3.583-0.491 0.813-1.147-0.691-0.35 0.654-1.227-0.709 0.5-0.856 1.123 0.709 0.393-0.611 1.199 0.691zm-0.429 4.207c0-0.35867-0.37833-0.76633-1.135-1.223-0.28603 0.34385-0.5531 0.70305-0.8 1.076-0.049368 0.09896-0.076663 0.20746-0.08 0.318-0.0073721 0.15582 0.059589 0.30591 0.18047 0.40451 0.12088 0.0986 0.28137 0.13403 0.43253 0.095491 0.39588-5.016e-4 0.78774-0.07935 1.153-0.232 0.16097-0.086197 0.25761-0.25766 0.248-0.44l1e-3 1e-3z"/>
<path d="m62.235 19.338c-0.044756 0.86158-0.35532 1.6881-0.889 2.366-0.3436 0.63284-0.97683 1.0559-1.693 1.131-0.51174-0.053739-1.0122-0.1856-1.484-0.391-0.74867-0.28667-1.123-0.522-1.123-0.706 0.0071132-0.029118 0.031303-0.050929 0.061-0.055 0.2237 0.069858 0.4428 0.15369 0.656 0.251 0.3069 0.14263 0.63738 0.22771 0.975 0.251 0.76021-0.114 1.452-0.50333 1.944-1.094 0.60891-0.46352 1.0155-1.1441 1.135-1.9 0-0.38733-0.462-0.91333-1.386-1.578 0.053333-0.228 0.14533-0.64567 0.276-1.253 0.40493 0.29164 0.75586 0.65171 1.037 1.064 0.338 0.58012 0.508 1.2428 0.491 1.914z"/>
<path d="m66.137 19.857h-2.006c-0.13933-2.4947-0.31533-4.869-0.528-7.123l0.687-0.9 0.331 3.919c0.056437 0.9412 0.16897 1.8782 0.337 2.806l0.123 0.1c0.15399 0.12762 0.35323 0.18718 0.552 0.165h0.534v1.039l-0.03-6e-3z"/>
<polygon points="67.811 19.856 65.781 19.856 65.781 18.817 67.811 18.817"/>
<polygon points="69.572 19.856 67.536 19.856 67.536 18.817 69.566 18.817 69.566 19.856"/>
<path d="m77.841 19.856h-2.822c-0.28167-0.047626-0.49293-0.28378-0.509-0.569-0.060008-0.27873-0.10507-0.56046-0.135-0.844-0.18689 0.18023-0.39237 0.34012-0.613 0.477-0.21629 0.13857-0.42127 0.29405-0.613 0.465-0.32733 0.31765-0.77136 0.48592-1.227 0.465h-2.558v-1.037h2.589c0.94987-0.079079 1.8449-0.47777 2.539-1.131l-1.828-0.349-0.57-0.122c-0.43273 0.061087-0.8379 0.2482-1.165 0.538 0.0043172-0.014008 0.0043172-0.028992 0-0.043 0.010547-0.15663 0.050226-0.30992 0.117-0.452 0.33333-0.77467 0.80567-1.162 1.417-1.162 0.56641 0.042013 1.125 0.15696 1.662 0.342 0.80904 0.27096 1.649 0.43894 2.5 0.5h0.712c-0.086 0.24-0.23533 0.59867-0.448 1.076h-0.368c-0.57657-0.029048-1.1525 0.068928-1.687 0.287 0.0011212 0.19976 0.09967 0.38641 0.264 0.5l0.117 0.061h2.65v1.039l-0.024-0.041zm-3.233 2.018-0.5 0.838-1.135-0.709 0.5-0.8 1.135 0.671z"/>
<path d="m81.564 19.856h-0.613c-0.14993-0.0044757-0.29512-0.053568-0.417-0.141-0.077864-0.073585-0.13863-0.16336-0.178-0.263-0.028903-0.08207-0.07492-0.15706-0.135-0.22-0.10662 0.080269-0.18926 0.18816-0.239 0.312-0.04994 0.13474-0.14836 0.246-0.276 0.312h-2.111v-1.039h2.723v-1.372c0.23333-0.31 0.54833-0.687 0.945-1.131 0.0097923 0.040077 0.0097923 0.081923 0 0.122-0.023201 0.65767-0.10114 1.3123-0.233 1.957-0.021661 0.10084-0.036032 0.2031-0.043 0.306 0 0.081 0.069 0.122 0.209 0.122h0.319v1.039l0.049-4e-3zm-0.4-5.552-0.5 0.819-1.165-0.7-0.362 0.611-1.172-0.66 0.5-0.856 1.129 0.709 0.386-0.611 1.184 0.688z"/>
<path d="m84.871 13.271-0.613 1.174-0.159-0.043 0.35 3.479c-0.014079 0.39062-0.061248 0.77935-0.141 1.162-0.10267 0.54267-0.205 0.81367-0.307 0.813h-2.737v-1.039h2.57c0.049623-0.073646 0.06528-0.16504 0.043-0.251-0.10668-1.5643-0.31141-3.1204-0.613-4.659h-0.074c-0.1172-0.058211-0.19372-0.17529-0.2-0.306 0.0024168-0.088679 0.027923-0.17519 0.074-0.251l0.54-0.942c0.10267-0.18333 0.17833-0.25467 0.227-0.214 0.052082 0.0041797 0.092167 0.047751 0.092 0.1-0.0072182 0.059995-0.02589 0.11805-0.055 0.171-0.028864 0.05306-0.04752 0.11106-0.055 0.171 0.0073857 0.073493 0.054677 0.13693 0.123 0.165 0.32867 0.16667 0.64033 0.32333 0.935 0.47z"/>
<path d="m87.501 18.475c-0.063867 0.61805-0.22978 1.2212-0.491 1.785-0.15533-1.83-0.374-4.0453-0.656-6.646 0.11733-0.65311 0.39574-1.2666 0.81-1.785 0.041333 0.066667 0.115 1.1837 0.221 3.351l0.116 3.295z"/>
<path d="m95.716 17.491c-0.059131 0.42982-0.19855 0.8447-0.411 1.223-0.16522 0.22958-0.36141 0.4352-0.583 0.611-0.38266 0.29377-0.8392 0.47584-1.319 0.526-0.29548 0.040621-0.59645 5.384e-4 -0.871-0.116-0.28398-0.10067-0.47169-0.37176-0.466-0.673 0.16243-0.81674 0.55162-1.5712 1.123-2.177l0.957-1.223c0.18435 0.19737 0.38993 0.37377 0.613 0.526 0.31867 0.23267 0.523 0.38567 0.613 0.459 0.2287 0.22014 0.35366 0.52671 0.344 0.844zm-0.356-3.583-0.491 0.813-1.153-0.7-0.35 0.654-1.227-0.709 0.5-0.856 1.123 0.709 0.393-0.611 1.205 0.7zm-0.436 4.207c0-0.35867-0.37833-0.76633-1.135-1.223-0.28603 0.34385-0.5531 0.70305-0.8 1.076-0.049398 0.098949-0.076695 0.20745-0.08 0.318-0.0078098 0.15596 0.059033 0.30634 0.18004 0.40504 0.12101 0.098702 0.28175 0.13396 0.43296 0.094961 0.39761-0.0080836 0.7896-0.095458 1.153-0.257 0.153-0.081516 0.2487-0.24064 0.249-0.414z"/>
<path d="m100.43 19.337c-0.044691 0.86159-0.35527 1.6882-0.889 2.366-0.34681 0.63306-0.9821 1.0557-1.7 1.131-0.51174-0.053739-1.0122-0.1856-1.484-0.391-0.74867-0.28533-1.123-0.51867-1.123-0.7-0.0073084-0.040009 0.019042-0.078418 0.059-0.086 0.0089067-0.0018322 0.018093-0.0018322 0.027 0 0.22361 0.070121 0.44269 0.15395 0.656 0.251 0.3069 0.14263 0.63738 0.22771 0.975 0.251 0.76021-0.114 1.452-0.50333 1.944-1.094 0.60792-0.46731 1.0192-1.145 1.153-1.9 0-0.38733-0.462-0.913-1.386-1.577 0.053333-0.228 0.14533-0.64567 0.276-1.253 0.40493 0.29164 0.75586 0.65171 1.037 1.064 0.3296 0.59086 0.48721 1.2622 0.455 1.938z"/>
<path d="m103.11 18.475c-0.063886 0.61805-0.2298 1.2212-0.491 1.785-0.15533-1.83-0.374-4.0453-0.656-6.646 0.10882-0.6546 0.37627-1.2726 0.779-1.8 0.041333 0.066667 0.115 1.1837 0.221 3.351l0.147 3.31z"/>
<path d="m108.5 19.337c-0.044756 0.86158-0.35532 1.6881-0.889 2.366-0.35015 0.62999-0.98365 1.0515-1.7 1.131-0.51174-0.053739-1.0122-0.1856-1.484-0.391-0.74867-0.28533-1.123-0.51867-1.123-0.7-0.007308-0.040009 0.019042-0.078418 0.059-0.086 0.008904-0.0018606 0.018096-0.0018606 0.027 0 0.22361 0.070118 0.44269 0.15394 0.656 0.251 0.3069 0.14263 0.63738 0.22771 0.975 0.251 0.76021-0.114 1.452-0.50333 1.944-1.094 0.60891-0.46352 1.0155-1.1441 1.135-1.9 0-0.38733-0.462-0.913-1.386-1.577 0.053333-0.228 0.14533-0.64567 0.276-1.253 0.40255 0.29975 0.74918 0.66804 1.024 1.088 0.33615 0.58067 0.5044 1.2433 0.486 1.914zm-1.307-5.179-0.5 0.844-1.184-0.728 0.509-0.832 1.175 0.716z"/>
<path d="m113.49 18.408c0.007102 0.94394-0.20262 1.8769-0.613 2.727-0.20905 0.43244-0.4912 0.82555-0.834 1.162-0.3037 0.36463-0.75248 0.57713-1.227 0.581-0.48903-0.049891-0.97459-0.12937-1.454-0.238-0.78533-0.17133-1.178-0.322-1.178-0.452 0-0.069 0.049-0.1 0.147-0.1 0.23058 0.013462 0.45897 0.052365 0.681 0.116 0.22816 0.065168 0.46301 0.10409 0.7 0.116 0.1544 0.0018483 0.30796-0.022844 0.454-0.073 0.71469-0.27782 1.3643-0.70032 1.908-1.241 0.57055-0.44691 0.92867-1.1117 0.988-1.834 0.003112-0.20689-0.0259-0.41301-0.086-0.611-0.13158 0.37816-0.37588 0.70691-0.7 0.942-0.22865 0.095391-0.47936 0.12517-0.724 0.086-0.28848-0.031612-0.53607-0.21961-0.644-0.489-0.12288-0.26005-0.18576-0.54439-0.184-0.832 0.056975-0.50993 0.24509-0.9964 0.546-1.412 0.40933-0.636 0.759-0.954 1.049-0.954 0.20867 0 0.45 0.26667 0.724 0.8 0.28814 0.52281 0.44175 1.1091 0.447 1.706zm-0.761-0.128c-0.009605-0.25275-0.083611-0.49887-0.215-0.715-0.095724-0.23103-0.3049-0.3955-0.552-0.434-0.21216 0.020791-0.40588 0.12962-0.534 0.3-0.16665 0.13566-0.27419 0.33067-0.3 0.544 0.036621 0.197 0.18949 0.35185 0.386 0.391 0.1831 0.075377 0.379 0.11476 0.577 0.116 0.23197 0.029124 0.46506-0.044678 0.638-0.202z"/>
<polygon points="0.945 25.146 2.345 28.815 3.768 25.146 4.707 25.146 4.707 30.037 3.889 30.037 3.889 26.659 2.595 30.034 2.055 30.034 0.828 26.659 0.828 30.04 0 30.04 0 25.149"/>
<path d="m6.165 25.146v0.7h-0.81v-0.7h0.81zm0 1.357v3.534h-0.81v-3.534h0.81z"/>
<path d="m6.735 26.502h0.82v0.287c0.14436-0.12228 0.30833-0.21931 0.485-0.287 0.17862-0.056308 0.36472-0.085302 0.552-0.086 0.16955-0.0033806 0.33849 0.021285 0.5 0.073 0.1382 0.044523 0.26559 0.11741 0.374 0.214 0.10194 0.093059 0.18158 0.20791 0.233 0.336 0.054283 0.14237 0.081418 0.29364 0.08 0.446v2.513h-0.785v-2.448c0.012722-0.15756-0.03322-0.31426-0.129-0.44-0.092184-0.092688-0.21945-0.14178-0.35-0.135-0.12886-5.036e-4 -0.25635 0.026426-0.374 0.079-0.11412 0.050111-0.21815 0.1206-0.307 0.208-0.084946 0.083848-0.15286 0.18334-0.2 0.293-0.048573 0.10748-0.073795 0.22405-0.074 0.342v2.109h-0.825v-3.504z"/>
<path d="m11.226 25.146v0.7h-0.8v-0.7h0.8zm0 1.357v3.534h-0.8v-3.534h0.8z"/>
<path d="m12.63 28.869c-0.0014493 0.10849 0.017198 0.2163 0.055 0.318 0.029468 0.080024 0.075467 0.15294 0.135 0.214 0.056365 0.054192 0.12497 0.093985 0.2 0.116 0.081226 0.025344 0.16592 0.037829 0.251 0.037 0.079525 0.0067163 0.15947 0.0067163 0.239 0 0.07904-0.012221 0.15565-0.036859 0.227-0.073 0.068121-0.034754 0.12706-0.085125 0.172-0.147 0.047622-0.069936 0.071144-0.15349 0.067-0.238 0.0031604-0.077906-0.018172-0.15484-0.061-0.22-0.045986-0.06409-0.1045-0.11818-0.172-0.159-0.07774-0.046467-0.15979-0.085314-0.245-0.116l-0.294-0.1-0.457-0.17c-0.14769-0.060569-0.28766-0.13845-0.417-0.232-0.11625-0.07746-0.21614-0.17701-0.294-0.293-0.080498-0.1235-0.12132-0.26865-0.117-0.416-0.0036666-0.14631 0.034494-0.29063 0.11-0.416 0.076055-0.1195 0.17873-0.21979 0.3-0.293 0.13251-0.081775 0.27738-0.14155 0.429-0.177 0.16689-0.038437 0.33775-0.0569 0.509-0.055 0.18577-0.0017462 0.37109 0.018733 0.552 0.061 0.15945 0.036174 0.31116 0.10052 0.448 0.19 0.12416 0.082823 0.22696 0.19385 0.3 0.324 0.077863 0.14499 0.12003 0.30645 0.123 0.471h-0.81c-0.0088231-0.081521-0.033991-0.16043-0.074-0.232-0.033752-0.058251-0.079827-0.10842-0.135-0.147-0.055815-0.037679-0.11824-0.064482-0.184-0.079-0.071445-0.0079753-0.14356-0.0079753-0.215 0-0.1397-0.0091339-0.27834 0.02967-0.393 0.11-0.087688 0.066411-0.13796 0.17104-0.135 0.281-0.0018833 0.071516 0.019525 0.14171 0.061 0.2 0.047297 0.061274 0.10563 0.11317 0.172 0.153 0.079473 0.048781 0.16354 0.089644 0.251 0.122l0.294 0.11 0.454 0.171c0.1438 0.054986 0.28153 0.12469 0.411 0.208 0.11401 0.072891 0.21367 0.1661 0.294 0.275 0.076512 0.10894 0.11516 0.23998 0.11 0.373 0.0051941 0.17475-0.037329 0.34761-0.123 0.5-0.0823 0.13653-0.19572 0.25166-0.331 0.336-0.14891 0.094165-0.313 0.16183-0.485 0.2-0.18947 0.041698-0.383 0.062158-0.577 0.061-0.18884 7.124e-4 -0.37678-0.025896-0.558-0.079-0.16661-0.047592-0.32269-0.12631-0.46-0.232-0.13333-0.10334-0.24224-0.23479-0.319-0.385-0.085112-0.16896-0.13124-0.35485-0.135-0.544h0.834l-7e-3 -0.028z"/>
<path d="m16.409 25.488v1.015h0.528v0.55h-0.528v2.158c-0.0099414 0.092039 0.011558 0.18473 0.061 0.263 0.036001 0.049626 0.091891 0.081042 0.153 0.086h0.123l0.264-0.043v0.532l-0.3 0.061c-0.09388 0.0067229-0.18812 0.0067229-0.282 0-0.10745 8.983e-4 -0.2146-0.01153-0.319-0.037-0.096952-0.02309-0.1886-0.0645-0.27-0.122-0.077814-0.057807-0.14086-0.13319-0.184-0.22-0.048028-0.10531-0.070963-0.22032-0.067-0.336v-2.342h-0.529v-0.55h0.534v-1.015h0.816z"/>
<path d="m17.482 26.503h0.724l0.049 0.324c0.08916-0.1184 0.2045-0.21457 0.337-0.281 0.1274-0.064734 0.2681-0.098968 0.411-0.1h0.172l0.209 0.055v0.66c-0.12854-0.054975-0.26266-0.09588-0.4-0.122-0.10205-0.0024521-0.20309 0.020576-0.294 0.067-0.086697 0.046377-0.16214 0.11124-0.221 0.19-0.061114 0.082837-0.10684 0.17598-0.135 0.275-0.032485 0.10699-0.048996 0.21819-0.049 0.33v2.116h-0.8l-3e-3 -3.514z"/>
<path d="m21.168 28.949 0.834-2.446h0.834l-1.5 4.28c-0.04454 0.12818-0.10645 0.24965-0.184 0.361-0.065016 0.090801-0.1436 0.17107-0.233 0.238-0.14974 0.1142-0.33268 0.17635-0.521 0.177h-0.233c-0.098884-0.01793-0.19548-0.046773-0.288-0.086v-0.611l0.123 0.049 0.135 0.049 0.117 0.037h0.08c0.03665-0.0010161 0.070705-0.019154 0.092-0.049 0.034789-0.050678 0.061757-0.1063 0.08-0.165 0-0.049 0.049-0.1 0.067-0.159s0.037-0.1 0.049-0.147l0.153-0.477-1.3-3.5h0.834l0.861 2.449z"/>
<path d="m24.598 28.276c-0.0025046-0.24077 0.034659-0.48031 0.11-0.709 0.067899-0.22395 0.1805-0.4318 0.331-0.611 0.14712-0.16797 0.32944-0.30147 0.534-0.391 0.23042-0.098774 0.47937-0.14686 0.73-0.141 0.25254-0.0055471 0.50339 0.042509 0.736 0.141 0.20626 0.089565 0.39054 0.22299 0.54 0.391 0.15123 0.1787 0.26391 0.38672 0.331 0.611 0.15038 0.46105 0.15038 0.95795 0 1.419-0.070213 0.21392-0.18278 0.41152-0.331 0.581-0.14991 0.16751-0.33407 0.30086-0.54 0.391-0.23261 0.098491-0.48346 0.14655-0.736 0.141-0.2506 0.0055502-0.49949-0.042524-0.73-0.141-0.21162-0.090334-0.40026-0.22703-0.552-0.4-0.14754-0.16997-0.26002-0.36742-0.331-0.581-0.068553-0.22712-0.099627-0.46389-0.092-0.701zm0.8 0c-0.0018312 0.16501 0.018688 0.3295 0.061 0.489 0.0366 0.14233 0.096765 0.27753 0.178 0.4 0.072972 0.1094 0.16928 0.20127 0.282 0.269 0.23187 0.13199 0.51613 0.13199 0.748 0 0.11469-0.06729 0.21305-0.15916 0.288-0.269 0.082953-0.12229 0.14512-0.25744 0.184-0.4 0.081736-0.32088 0.081736-0.65712 0-0.978-0.038928-0.14254-0.1011-0.27769-0.184-0.4-0.078993-0.11064-0.18143-0.20249-0.3-0.269-0.23121-0.13445-0.51679-0.13445-0.748 0-0.11315 0.06972-0.20946 0.16364-0.282 0.275-0.081285 0.12244-0.14145 0.25765-0.178 0.4-0.041115 0.15769-0.061619 0.32004-0.061014 0.483h0.012014z"/>
<path d="m28.943 26.503v-0.783c-6.664e-4 -0.098953 0.020146-0.19687 0.061-0.287 0.041795-0.087629 0.1026-0.16484 0.178-0.226 0.081467-0.068039 0.17513-0.11996 0.276-0.153 0.11889-0.038102 0.24317-0.056676 0.368-0.055 0.093898 0.0027843 0.18688 0.019292 0.276 0.049 0.10573 0.033702 0.20658 0.081105 0.3 0.141v0.538l-0.288-0.116-0.123-0.043c-0.060112-0.0019806-0.11896 0.017518-0.166 0.055-0.051356 0.053149-0.075976 0.12664-0.067 0.2v0.685h0.613v0.569h-0.613v2.972h-0.815v-2.977h-0.61v-0.569h0.61z"/>
<path d="m33.149 27.524c-0.0057073 0.31253 0.037826 0.62401 0.129 0.923 0.071606 0.23485 0.18584 0.45452 0.337 0.648 0.12824 0.16276 0.29166 0.29438 0.478 0.385 0.16792 0.08318 0.35261 0.12696 0.54 0.128 0.17593 0.0035724 0.35025-0.0341 0.509-0.11 0.15075-0.074381 0.28638-0.1761 0.4-0.3 0.11459-0.12576 0.20965-0.26801 0.282-0.422 0.075044-0.15563 0.13079-0.31985 0.166-0.489h0.822c-0.04892 0.25712-0.1334 0.50618-0.251 0.74-0.11233 0.22837-0.26398 0.43519-0.448 0.611-0.17882 0.16886-0.38643 0.30433-0.613 0.4-0.26407 0.10145-0.54514 0.15135-0.828 0.147-0.32573 0.0061579-0.6493-0.054065-0.951-0.177-0.27738-0.11666-0.52486-0.29441-0.724-0.52-0.20932-0.24474-0.36591-0.53001-0.46-0.838-0.11159-0.3623-0.16525-0.73995-0.159-1.119 5.193e-4 -0.20547 0.02298-0.4103 0.067-0.611 0.042287-0.21085 0.10942-0.41595 0.2-0.611 0.088819-0.18427 0.19999-0.3569 0.331-0.514 0.26617-0.32042 0.61991-0.55636 1.018-0.679 0.21861-0.067456 0.44622-0.10118 0.675-0.1 0.28078-0.0043138 0.5604 0.036886 0.828 0.122 0.22191 0.076421 0.4292 0.19004 0.613 0.336 0.18044 0.14324 0.33413 0.31725 0.454 0.514 0.12264 0.20237 0.21749 0.42033 0.282 0.648h-0.865c-0.095444-0.30872-0.27602-0.58427-0.521-0.795-0.24113-0.18222-0.538-0.27517-0.84-0.263-0.21505-0.0042038-0.42711 0.050801-0.613 0.159-0.18378 0.10821-0.34259 0.25407-0.466 0.428-0.13297 0.18576-0.23433 0.3922-0.3 0.611-0.067809 0.24335-0.098819 0.49547-0.092 0.748z"/>
<path d="m37.332 28.276c-0.0025046-0.24077 0.034659-0.48031 0.11-0.709 0.067899-0.22395 0.1805-0.4318 0.331-0.611 0.14712-0.16797 0.32944-0.30147 0.534-0.391 0.23042-0.098774 0.47937-0.14686 0.73-0.141 0.25254-0.0055471 0.50339 0.042509 0.736 0.141 0.20626 0.089565 0.39054 0.22299 0.54 0.391 0.15123 0.1787 0.26391 0.38672 0.331 0.611 0.15038 0.46105 0.15038 0.95795 0 1.419-0.070213 0.21392-0.18278 0.41152-0.331 0.581-0.14991 0.16751-0.33407 0.30086-0.54 0.391-0.23261 0.098491-0.48346 0.14655-0.736 0.141-0.2506 0.0055502-0.49949-0.042524-0.73-0.141-0.20524-0.092455-0.38757-0.22903-0.534-0.4-0.14754-0.16997-0.26002-0.36742-0.331-0.581-0.07453-0.22613-0.11168-0.46291-0.11-0.701zm0.8 0c-0.001819 0.16501 0.018701 0.3295 0.061 0.489 0.0366 0.14233 0.096765 0.27753 0.178 0.4 0.072972 0.1094 0.16928 0.20127 0.282 0.269 0.23187 0.13199 0.51613 0.13199 0.748 0 0.11469-0.06729 0.21305-0.15916 0.288-0.269 0.082953-0.12229 0.14512-0.25744 0.184-0.4 0.081736-0.32088 0.081736-0.65712 0-0.978-0.038928-0.14254-0.1011-0.27769-0.184-0.4-0.075539-0.10933-0.17377-0.20109-0.288-0.269-0.23121-0.13445-0.51679-0.13445-0.748 0-0.11315 0.06972-0.20946 0.16364-0.282 0.275-0.081285 0.12244-0.14145 0.25765-0.178 0.4-0.040103 0.15782-0.059599 0.32017-0.058 0.483h-3e-3z"/>
<path d="m41.3 26.503h0.8v0.263c0.13329-0.11882 0.28999-0.2084 0.46-0.263 0.15097-0.046826 0.30795-0.071418 0.466-0.073 0.16891-0.0018625 0.33628 0.032225 0.491 0.1 0.16724 0.080464 0.31088 0.20274 0.417 0.355 0.069941-0.081502 0.1503-0.15345 0.239-0.214 0.086173-0.059233 0.17876-0.10855 0.276-0.147 0.19553-0.075129 0.40355-0.11246 0.613-0.11 0.16747-6.569e-4 0.33372 0.028463 0.491 0.086 0.14229 0.051993 0.27332 0.13074 0.386 0.232 0.10928 0.097176 0.19714 0.21603 0.258 0.349 0.061889 0.13625 0.093287 0.28436 0.092038 0.434v2.507h-0.84004v-2.348c0.018999-0.10716 0.018999-0.21684 0-0.324-0.026469-0.076958-0.068318-0.14773-0.123-0.208-0.047386-0.050288-0.10647-0.088076-0.172-0.11-0.14991-0.051176-0.31435-0.037774-0.454 0.037-0.090528 0.045327-0.17163 0.10743-0.239 0.183-0.072563 0.081212-0.13073 0.17421-0.172 0.275-0.044704 0.10846-0.067476 0.22469-0.067 0.342v2.164h-0.828v-2.36c0.0024759-0.11002-0.014102-0.21963-0.049-0.324-0.021227-0.086898-0.061155-0.16812-0.117-0.238-0.043395-0.048906-0.097934-0.086637-0.159-0.11-0.053176-0.01967-0.10931-0.030153-0.166-0.031-0.11017-2.9e-5 -0.21831 0.029683-0.313 0.086-0.09831 0.057532-0.18566 0.13201-0.258 0.22-0.072572 0.087883-0.13064 0.1868-0.172 0.293-0.039152 0.097329-0.059838 0.2011-0.061 0.306v2.122h-0.8l1e-3 -3.494z"/>
<path d="m46.895 26.503h0.8v0.263c0.13155-0.11807 0.28613-0.20762 0.454-0.263 0.15097-0.046826 0.30795-0.071418 0.466-0.073 0.16891-0.001893 0.33629 0.032196 0.491 0.1 0.16724 0.080464 0.31088 0.20274 0.417 0.355 0.069941-0.081502 0.1503-0.15345 0.239-0.214 0.086173-0.059233 0.17876-0.10855 0.276-0.147 0.19553-0.075129 0.40355-0.11246 0.613-0.11 0.16747-6.569e-4 0.33372 0.028463 0.491 0.086 0.14229 0.051993 0.27332 0.13074 0.386 0.232 0.10928 0.097176 0.19714 0.21603 0.258 0.349 0.061889 0.13625 0.093287 0.28436 0.092038 0.434v2.507h-0.81604v-2.348c0.0031004-0.11006-0.013494-0.21978-0.049-0.324-0.026469-0.076958-0.068318-0.14773-0.123-0.208-0.047386-0.050288-0.10647-0.088076-0.172-0.11-0.14991-0.051176-0.31435-0.037774-0.454 0.037-0.090528 0.045327-0.17163 0.10743-0.239 0.183-0.072548 0.081224-0.13071 0.17422-0.172 0.275-0.044704 0.10846-0.067476 0.22469-0.067 0.342v2.164h-0.8v-2.36c0.0024759-0.11002-0.014102-0.21963-0.049-0.324-0.021197-0.086909-0.061128-0.16814-0.117-0.238-0.043395-0.048906-0.097934-0.086637-0.159-0.11-0.046764-0.0066603-0.094236-0.0066603-0.141 0-0.11017-2.9e-5 -0.21831 0.029683-0.313 0.086-0.09831 0.057532-0.18566 0.13201-0.258 0.22-0.072572 0.087883-0.13064 0.1868-0.172 0.293-0.039175 0.097322-0.059862 0.2011-0.061 0.306v2.122h-0.821v-3.525z"/>
<path d="m53.298 28.423c0.0079371 0.14411 0.03691 0.28628 0.086 0.422 0.044392 0.12939 0.10848 0.25115 0.19 0.361 0.074779 0.10084 0.16853 0.1861 0.276 0.251 0.10189 0.060702 0.2184 0.092507 0.337 0.092 0.41015 9.847e-4 0.76541-0.28431 0.853-0.685h0.754c-0.037616 0.1874-0.11058 0.36591-0.215 0.526-0.098873 0.15084-0.22342 0.28318-0.368 0.391-0.14464 0.10762-0.30618 0.19041-0.478 0.245-0.17448 0.056386-0.35664 0.085397-0.54 0.086-0.24779 0.0035649-0.49319-0.048729-0.718-0.153-0.20807-0.093506-0.39411-0.2298-0.546-0.4-0.15158-0.18056-0.26823-0.38776-0.344-0.611-0.08262-0.23135-0.12424-0.47534-0.12303-0.721-4.26e-4 -0.23191 0.04125-0.46198 0.12303-0.679 0.076843-0.2101 0.19366-0.40333 0.344-0.569 0.15106-0.16623 0.33493-0.29936 0.54-0.391 0.2258-0.10062 0.47083-0.15079 0.718-0.147 0.23722-0.0039175 0.47283 0.039601 0.693 0.128 0.19991 0.080974 0.38 0.20411 0.528 0.361 0.14539 0.15754 0.25791 0.34247 0.331 0.544 0.088287 0.21995 0.13606 0.45405 0.141 0.691v0.257l-2.582 1e-3zm1.724-0.5c-0.0055094-0.12543-0.030474-0.24924-0.074-0.367-0.040472-0.10615-0.10089-0.20357-0.178-0.287-0.076132-0.081048-0.16801-0.1457-0.27-0.19-0.11067-0.046639-0.22992-0.069467-0.35-0.067-0.11255-0.0013679-0.22385 0.023632-0.325 0.073-0.10025 0.048734-0.18995 0.11669-0.264 0.2-0.075455 0.086913-0.13564 0.18598-0.178 0.293-0.045548 0.11118-0.072573 0.22908-0.08 0.349h1.718l1e-3 -4e-3z"/>
<path d="m56.366 26.503h0.742v0.324c0.08916-0.1184 0.2045-0.21457 0.337-0.281 0.1274-0.064734 0.2681-0.098968 0.411-0.1h0.172l0.239 0.055v0.66c-0.12854-0.054975-0.26266-0.09588-0.4-0.122-0.10205-0.0024521-0.20309 0.020576-0.294 0.067-0.086697 0.046377-0.16214 0.11124-0.221 0.19-0.061114 0.082837-0.10684 0.17598-0.135 0.275-0.032485 0.10699-0.048996 0.21819-0.049 0.33v2.116h-0.8l-2e-3 -3.514z"/>
<path d="m61.022 27.671c-0.040358-0.19314-0.13387-0.37117-0.27-0.514-0.12143-0.10722-0.28027-0.1622-0.442-0.153-0.12779-0.0023109-0.25352 0.03242-0.362 0.1-0.1062 0.067267-0.19633 0.15705-0.264 0.263-0.076021 0.11839-0.1321 0.24845-0.166 0.385-0.038224 0.152-0.056709 0.30828-0.055 0.465-7.285e-4 0.16458 0.017729 0.32869 0.055 0.489 0.033197 0.15029 0.089177 0.29463 0.166 0.428 0.066919 0.11674 0.15671 0.21878 0.264 0.3 0.10048 0.076581 0.22367 0.11741 0.35 0.116 0.092285 6.358e-4 0.18319-0.022434 0.264-0.067 0.080763-0.044487 0.15182-0.10467 0.209-0.177 0.061554-0.080035 0.11108-0.16864 0.147-0.263 0.041036-0.10272 0.071852-0.20924 0.092-0.318h0.853c-0.019433 0.21176-0.075606 0.41852-0.166 0.611-0.079515 0.1675-0.19211 0.31717-0.331 0.44-0.13971 0.12219-0.30214 0.21564-0.478 0.275-0.19739 0.067017-0.40454 0.10081-0.613 0.1-0.25395 0.0063329-0.50528-0.052541-0.73-0.171-0.1968-0.10839-0.36747-0.25857-0.5-0.44-0.13455-0.18397-0.2342-0.39106-0.294-0.611-0.061194-0.22114-0.092133-0.44955-0.092-0.679-0.0027436-0.23842 0.036871-0.47543 0.117-0.7 0.074707-0.20777 0.18917-0.399 0.337-0.563 0.14524-0.16139 0.32273-0.2905 0.521-0.379 0.21667-0.093746 0.45097-0.13979 0.687-0.135 0.20814-0.0053183 0.4156 0.025818 0.613 0.092 0.16596 0.056766 0.31992 0.14392 0.454 0.257 0.12695 0.10817 0.23303 0.23865 0.313 0.385 0.082968 0.1534 0.14294 0.31816 0.178 0.489h-0.845l-0.012-0.025z"/>
<path d="m63.242 28.423c0.0079371 0.14411 0.03691 0.28628 0.086 0.422 0.044392 0.12939 0.10848 0.25115 0.19 0.361 0.074779 0.10084 0.16853 0.1861 0.276 0.251 0.10189 0.060702 0.2184 0.092507 0.337 0.092 0.41015 9.847e-4 0.76541-0.28431 0.853-0.685h0.707c-0.037639 0.18739-0.1106 0.3659-0.215 0.526-0.098873 0.15084-0.22342 0.28318-0.368 0.391-0.14464 0.10762-0.30618 0.19041-0.478 0.245-0.17448 0.056386-0.35664 0.085397-0.54 0.086-0.24778 0.0035306-0.49318-0.048762-0.718-0.153-0.20683-0.097177-0.39083-0.23688-0.54-0.41-0.15158-0.18056-0.26823-0.38776-0.344-0.611-0.082344-0.23142-0.12396-0.47537-0.12302-0.721-4.369e-4 -0.23191 0.04124-0.46198 0.12302-0.679 0.07682-0.21011 0.19364-0.40334 0.344-0.569 0.15106-0.16623 0.33493-0.29936 0.54-0.391 0.22585-0.10047 0.47084-0.15063 0.718-0.147 0.23722-0.0038906 0.47282 0.039627 0.693 0.128 0.19991 0.080974 0.38 0.20411 0.528 0.361 0.14567 0.15732 0.25823 0.34232 0.331 0.544 0.079531 0.21953 0.11916 0.45152 0.117 0.685v0.257h-2.521l4e-3 0.017zm1.724-0.5c-0.0055094-0.12543-0.030474-0.24924-0.074-0.367-0.040472-0.10615-0.10089-0.20357-0.178-0.287-0.076132-0.081048-0.16801-0.1457-0.27-0.19-0.11067-0.046639-0.22992-0.069467-0.35-0.067-0.11255-0.0013679-0.22385 0.023632-0.325 0.073-0.10024 0.048756-0.18993 0.11671-0.264 0.2-0.075439 0.086924-0.13562 0.18599-0.178 0.293-0.045548 0.11118-0.072573 0.22908-0.08 0.349h1.724l-5e-3 -4e-3z"/>
<path d="m67.828 27.536c0.0046301-0.17404 0.057607-0.34336 0.153-0.489 0.092828-0.13445 0.21188-0.24873 0.35-0.336 0.14541-0.091884 0.30484-0.15944 0.472-0.2 0.16858-0.041019 0.3415-0.061501 0.515-0.061 0.18544-0.0015742 0.37051 0.016866 0.552 0.055 0.1666 0.033706 0.32622 0.095594 0.472 0.183 0.13485 0.082309 0.24828 0.1954 0.331 0.33 0.08584 0.14832 0.12845 0.31771 0.123 0.489v1.8c-0.010429 0.054506-0.010429 0.11049 0 0.165 0.0062029 0.035309 0.032351 0.063799 0.067 0.073l0.319-0.1v0.563l-0.276 0.067c-0.073451 0.0079648-0.14755 0.0079648-0.221 0-0.13564 0.0047929-0.26975-0.02995-0.386-0.1-0.11623-0.076898-0.20267-0.19122-0.245-0.324-0.084813 0.084405-0.1795 0.15827-0.282 0.22-0.090938 0.05325-0.18754 0.096183-0.288 0.128-0.095801 0.029776-0.19426 0.050204-0.294 0.061h-0.307c-0.1559 0.0019365-0.31113-0.020673-0.46-0.067-0.13602-0.042838-0.26285-0.11066-0.374-0.2-0.10364-0.084694-0.1873-0.19123-0.245-0.312-0.0619-0.12987-0.093364-0.27214-0.092-0.416-0.0039647-0.14315 0.03057-0.28475 0.1-0.41 0.065752-0.11042 0.15358-0.20608 0.258-0.281 0.11108-0.080124 0.23296-0.14409 0.362-0.19 0.13333-0.048667 0.27033-0.093667 0.411-0.135l0.411-0.1c0.12328-0.02744 0.2443-0.064213 0.362-0.11 0.094029-0.033329 0.18139-0.083103 0.258-0.147 0.063976-0.055125 0.10053-0.13555 0.1-0.22 0.0098876-0.14092-0.04943-0.27783-0.159-0.367-0.22594-0.11927-0.48765-0.15199-0.736-0.092-0.072003 0.017403-0.13993 0.04865-0.2 0.092-0.057587 0.04499-0.10554 0.1011-0.141 0.165-0.042412 0.075658-0.069591 0.15889-0.08 0.245h-0.834l4e-3 0.021zm2.165 0.721c-0.074993 0.043556-0.15533 0.077171-0.239 0.1l-0.3 0.092-0.319 0.1c-0.10023 0.032435-0.19676 0.075338-0.288 0.128-0.080523 0.044834-0.15152 0.10496-0.209 0.177-0.054697 0.069692-0.08303 0.15646-0.08 0.245-0.0025416 0.073121 0.010055 0.14598 0.037 0.214 0.022122 0.054024 0.056331 0.10226 0.1 0.141 0.041251 0.034118 0.089328 0.05901 0.141 0.073 0.050818 0.0060893 0.10218 0.0060893 0.153 0 0.19188-0.0031668 0.37821-0.064928 0.534-0.177 0.19489-0.14254 0.35603-0.32622 0.472-0.538v-0.556l-2e-3 1e-3z"/>
<path d="m71.725 26.502h0.816v0.287c0.15341-0.12528 0.32776-0.22244 0.515-0.287 0.17862-0.056308 0.36472-0.085302 0.552-0.086 0.16955-0.0033806 0.33849 0.021285 0.5 0.073 0.1382 0.044523 0.26559 0.11741 0.374 0.214 0.10194 0.093059 0.18158 0.20791 0.233 0.336 0.054283 0.14237 0.081418 0.29364 0.08 0.446v2.513h-0.816v-2.448c0.015786-0.16157-0.030316-0.3231-0.129-0.452-0.092184-0.092688-0.21945-0.14178-0.35-0.135-0.12886-5.036e-4 -0.25635 0.026426-0.374 0.079-0.11412 0.050111-0.21815 0.1206-0.307 0.208-0.084946 0.083848-0.15286 0.18334-0.2 0.293-0.048573 0.10748-0.073795 0.22405-0.074 0.342v2.109h-0.816l-4e-3 -3.492z"/>
<path d="m78.491 30.037h-0.81v-0.214c-0.11351 0.092513-0.24204 0.16489-0.38 0.214-0.13565 0.048879-0.27882 0.073586-0.423 0.073-0.23675 0.0058923-0.47171-0.042332-0.687-0.141-0.19378-0.091348-0.36463-0.22495-0.5-0.391-0.14017-0.18136-0.24221-0.38919-0.3-0.611-0.068691-0.23204-0.1024-0.47302-0.1-0.715-0.0011845-0.2419 0.032495-0.48271 0.1-0.715 0.05631-0.22122 0.15627-0.42896 0.294-0.611 0.13196-0.16581 0.29985-0.29951 0.491-0.391 0.21314-0.09872 0.44618-0.14697 0.681-0.141 0.14314 0.0024608 0.28456 0.031627 0.417 0.086 0.14244 0.055406 0.27693 0.12938 0.4 0.22v-1.553h0.81v4.891l7e-3 -1e-3zm-0.81-1.834c-0.003712-0.16069-0.024156-0.32055-0.061-0.477-0.031424-0.13527-0.083-0.26506-0.153-0.385-0.061345-0.10461-0.145-0.19441-0.245-0.263-0.095608-0.065681-0.20901-0.10057-0.325-0.1-0.11794-0.0011591-0.23343 0.03373-0.331 0.1-0.10132 0.072059-0.18507 0.16606-0.245 0.275-0.070598 0.12499-0.12217 0.2598-0.153 0.4-0.069986 0.32663-0.069986 0.66437 0 0.991 0.029921 0.14047 0.08154 0.27542 0.153 0.4 0.060296 0.10702 0.14406 0.19899 0.245 0.269 0.20357 0.13164 0.46543 0.13164 0.669 0 0.10108-0.069847 0.18488-0.16185 0.245-0.269 0.070873-0.12486 0.12246-0.25972 0.153-0.4 0.034742-0.16435 0.051176-0.33204 0.049-0.5v-0.049l-1e-3 8e-3z"/>
<polygon points="81.509 25.146 81.509 30.037 80.693 30.037 80.693 25.146"/>
<path d="m82.257 26.503h0.816v0.287c0.15119-0.11292 0.32018-0.19978 0.5-0.257 0.17861-0.056323 0.36472-0.085318 0.552-0.086 0.16955-0.0033806 0.33849 0.021285 0.5 0.073 0.1382 0.044523 0.26559 0.11741 0.374 0.214 0.10194 0.093059 0.18158 0.20791 0.233 0.336 0.054283 0.14237 0.081418 0.29364 0.08 0.446v2.515h-0.8v-2.446c0.015786-0.16157-0.030316-0.3231-0.129-0.452-0.092184-0.092688-0.21945-0.14178-0.35-0.135-0.12886-5.036e-4 -0.25635 0.026426-0.374 0.079-0.11412 0.050111-0.21815 0.1206-0.307 0.208-0.084946 0.083848-0.15286 0.18334-0.2 0.293-0.048573 0.10748-0.073795 0.22405-0.074 0.342v2.111h-0.821v-3.528z"/>
<polygon points="87.213 28.949 88.102 26.503 88.936 26.503 87.636 30.037 86.826 30.037 85.513 26.503 86.359 26.503"/>
<path d="m90.012 28.423c0.0079656 0.1441 0.036938 0.28627 0.086 0.422 0.044392 0.12939 0.10848 0.25115 0.19 0.361 0.074759 0.10086 0.16852 0.18612 0.276 0.251 0.10189 0.060702 0.2184 0.092507 0.337 0.092 0.41015 9.847e-4 0.76541-0.28431 0.853-0.685h0.754c-0.037639 0.18739-0.1106 0.3659-0.215 0.526-0.098873 0.15084-0.22342 0.28318-0.368 0.391-0.14464 0.10762-0.30618 0.19041-0.478 0.245-0.17448 0.056386-0.35664 0.085397-0.54 0.086-0.24778 0.0035306-0.49318-0.048762-0.718-0.153-0.21664-0.090635-0.41109-0.22709-0.57-0.4-0.15122-0.18064-0.26753-0.38783-0.343-0.611-0.08262-0.23135-0.12424-0.47534-0.12303-0.721-4.26e-4 -0.23191 0.04125-0.46198 0.12303-0.679 0.076544-0.21002 0.19302-0.40324 0.343-0.569 0.15106-0.16623 0.33493-0.29936 0.54-0.391 0.22585-0.10047 0.47084-0.15063 0.718-0.147 0.23722-0.0039175 0.47283 0.039601 0.693 0.128 0.19991 0.080974 0.38 0.20411 0.528 0.361 0.14567 0.15732 0.25823 0.34232 0.331 0.544 0.079511 0.21954 0.11913 0.45152 0.117 0.685v0.257h-2.554l0.02 7e-3zm1.724-0.5c-0.0055094-0.12543-0.030474-0.24924-0.074-0.367-0.04045-0.10616-0.10087-0.20359-0.178-0.287-0.076114-0.081069-0.16799-0.14573-0.27-0.19-0.11067-0.046639-0.22992-0.069467-0.35-0.067-0.11255-0.0013679-0.22385 0.023632-0.325 0.073-0.10025 0.048734-0.18995 0.11669-0.264 0.2-0.075455 0.086913-0.13564 0.18598-0.178 0.293-0.045548 0.11118-0.072573 0.22908-0.08 0.349h1.724l-5e-3 -4e-3z"/>
<path d="m93.911 28.87c-0.0014262 0.10848 0.017221 0.2163 0.055 0.318 0.029495 0.080011 0.075491 0.15292 0.135 0.214 0.056365 0.054192 0.12497 0.093985 0.2 0.116 0.073255 0.024988 0.14968 0.039465 0.227 0.043 0.079526 0.0067068 0.15947 0.0067068 0.239 0 0.07904-0.012221 0.15565-0.036859 0.227-0.073 0.068121-0.034754 0.12706-0.085125 0.172-0.147 0.047622-0.069936 0.071144-0.15349 0.067-0.238 0.0031604-0.077906-0.018172-0.15484-0.061-0.22-0.046007-0.064072-0.10452-0.11816-0.172-0.159-0.07774-0.046467-0.15979-0.085314-0.245-0.116l-0.294-0.1-0.454-0.165c-0.14458-0.053223-0.2825-0.12302-0.411-0.208-0.11625-0.07746-0.21614-0.17701-0.294-0.293-0.080498-0.1235-0.12132-0.26865-0.117-0.416-0.0036666-0.14631 0.034494-0.29063 0.11-0.416 0.074148-0.11899 0.17476-0.21926 0.294-0.293 0.13251-0.081775 0.27738-0.14155 0.429-0.177 0.16689-0.038437 0.33775-0.0569 0.509-0.055 0.18577-0.0017462 0.37109 0.018733 0.552 0.061 0.15946 0.036153 0.31117 0.1005 0.448 0.19 0.12416 0.082823 0.22696 0.19385 0.3 0.324 0.077899 0.14497 0.12007 0.30645 0.123 0.471h-0.81c-0.00885-0.081515-0.034016-0.16042-0.074-0.232-0.033752-0.058251-0.079827-0.10842-0.135-0.147-0.055826-0.037658-0.11825-0.064459-0.184-0.079-0.071445-0.0079753-0.14356-0.0079753-0.215 0-0.1397-0.0091339-0.27834 0.02967-0.393 0.11-0.087688 0.066411-0.13796 0.17104-0.135 0.281-0.0021781 0.071556 0.019258 0.14184 0.061 0.2 0.047297 0.061274 0.10563 0.11317 0.172 0.153 0.079795 0.048834 0.1642 0.089698 0.252 0.122l0.294 0.11 0.454 0.171c0.1438 0.054986 0.28153 0.12469 0.411 0.208 0.11401 0.072891 0.21367 0.1661 0.294 0.275 0.076512 0.10894 0.11516 0.23998 0.11 0.373 0.0051941 0.17475-0.037329 0.34761-0.123 0.5-0.0823 0.13653-0.19572 0.25166-0.331 0.336-0.14891 0.094165-0.313 0.16183-0.485 0.2-0.18947 0.04169-0.383 0.06215-0.577 0.061-0.18884 6.984e-4 -0.37678-0.02591-0.558-0.079-0.16661-0.047592-0.32269-0.12631-0.46-0.232-0.13333-0.10334-0.24224-0.23479-0.319-0.385-0.085112-0.16896-0.13124-0.35485-0.135-0.544h0.846l1e-3 -0.063z"/>
<path d="m97.685 25.488v1.015h0.521v0.55h-0.528v2.158c-0.0099414 0.092039 0.011558 0.18473 0.061 0.263 0.041345 0.048322 0.10244 0.07519 0.166 0.073h0.123l0.264-0.043v0.532l-0.3 0.061c-0.09388 0.0067229-0.18812 0.0067229-0.282 0-0.10745 8.983e-4 -0.2146-0.01153-0.319-0.037-0.096952-0.02309-0.1886-0.0645-0.27-0.122-0.077788-0.057835-0.14083-0.13321-0.184-0.22-0.048028-0.10531-0.070963-0.22032-0.067-0.336v-2.33h-0.5v-0.55h0.534v-1.015h0.785l-4e-3 1e-3z"/>
<path d="m98.819 26.503h0.8v0.263c0.12254-0.11436 0.26623-0.20369 0.423-0.263 0.15097-0.046826 0.30795-0.071418 0.466-0.073 0.16891-0.0018625 0.33628 0.032225 0.491 0.1 0.16724 0.080464 0.31088 0.20274 0.417 0.355 0.069941-0.081502 0.1503-0.15345 0.239-0.214 0.086093-0.059366 0.1787-0.10869 0.276-0.147 0.19553-0.075129 0.40355-0.11246 0.613-0.11 0.16747-6.569e-4 0.33372 0.028463 0.491 0.086 0.14229 0.051993 0.27332 0.13074 0.386 0.232 0.10928 0.097176 0.19714 0.21603 0.258 0.349 0.061889 0.13625 0.093287 0.28436 0.092038 0.434v2.507h-0.80004v-2.348c0.002136-0.11024-0.015475-0.21997-0.052-0.324-0.026469-0.076958-0.068318-0.14773-0.123-0.208-0.047386-0.050288-0.10647-0.088076-0.172-0.11-0.14991-0.051176-0.31435-0.037774-0.454 0.037-0.090529 0.045327-0.17163 0.10743-0.239 0.183-0.072563 0.081212-0.13073 0.17421-0.172 0.275-0.045072 0.10838-0.068185 0.22462-0.068 0.342v2.164h-0.81v-2.36c0.002476-0.11002-0.014102-0.21963-0.049-0.324-0.024827-0.076403-0.064599-0.14711-0.117-0.208-0.043395-0.048906-0.097934-0.086637-0.159-0.11-0.053176-0.01967-0.10931-0.030153-0.166-0.031-0.11017-2.9e-5 -0.21831 0.029683-0.313 0.086-0.09831 0.057532-0.18566 0.13201-0.258 0.22-0.072586 0.087873-0.13065 0.18679-0.172 0.293-0.039175 0.097322-0.059862 0.2011-0.061 0.306v2.122h-0.767v-3.524z"/>
<path d="m105.2 28.423c0.007923 0.14411 0.036897 0.28628 0.086 0.422 0.044392 0.12939 0.10848 0.25115 0.19 0.361 0.074779 0.10084 0.16853 0.1861 0.276 0.251 0.10189 0.060702 0.2184 0.092507 0.337 0.092 0.41015 9.847e-4 0.76541-0.28431 0.853-0.685h0.754c-0.037498 0.18743-0.11047 0.36597-0.215 0.526-0.098856 0.15085-0.22341 0.28319-0.368 0.391-0.14464 0.10762-0.30618 0.19041-0.478 0.245-0.17448 0.056386-0.35664 0.085397-0.54 0.086-0.24778 0.0035306-0.49318-0.048762-0.718-0.153-0.20683-0.097177-0.39083-0.23688-0.54-0.41-0.15158-0.18056-0.26823-0.38776-0.344-0.611-0.08264-0.23135-0.12426-0.47534-0.12303-0.721-4.47e-4 -0.23192 0.04123-0.46199 0.12303-0.679 0.07682-0.21011 0.19364-0.40334 0.344-0.569 0.15108-0.16621 0.33494-0.29934 0.54-0.391 0.22585-0.10047 0.47084-0.15063 0.718-0.147 0.23722-0.0038906 0.47282 0.039627 0.693 0.128 0.19983 0.081112 0.3799 0.20423 0.528 0.361 0.14539 0.15754 0.25791 0.34247 0.331 0.544 0.079511 0.21954 0.11913 0.45152 0.117 0.685v0.257h-2.564v0.017zm1.724-0.5c-0.005509-0.12543-0.030474-0.24924-0.074-0.367-0.040472-0.10615-0.10089-0.20357-0.178-0.287-0.076132-0.081048-0.16801-0.1457-0.27-0.19-0.11068-0.046639-0.22992-0.069467-0.35-0.067-0.11255-0.0013679-0.22385 0.023632-0.325 0.073-0.10024 0.048756-0.18993 0.11671-0.264 0.2-0.075439 0.086924-0.13562 0.18599-0.178 0.293-0.045548 0.11118-0.072573 0.22908-0.08 0.349h1.724l-5e-3 -4e-3z"/>
<path d="m108.27 26.503h0.816v0.287c0.15125-0.11282 0.32022-0.19968 0.5-0.257 0.17861-0.056323 0.36472-0.085318 0.552-0.086 0.16955-0.0033806 0.33849 0.021285 0.5 0.073 0.1382 0.044523 0.26559 0.11741 0.374 0.214 0.10194 0.093059 0.18158 0.20791 0.233 0.336 0.054283 0.14237 0.081418 0.29364 0.08 0.446v2.515h-0.8v-2.446c0.015787-0.16157-0.030316-0.3231-0.129-0.452-0.092184-0.092688-0.21945-0.14178-0.35-0.135-0.12886-5.036e-4 -0.25635 0.026426-0.374 0.079-0.11412 0.050111-0.21815 0.1206-0.307 0.208-0.084946 0.083848-0.15286 0.18334-0.2 0.293-0.048602 0.10748-0.073825 0.22405-0.074 0.342v2.111h-0.816l-5e-3 -3.528z"/>
<path d="m112.93 25.488v1.015h0.528v0.55h-0.528v2.158c-0.009941 0.092039 0.011558 0.18473 0.061 0.263 0.041345 0.048322 0.10244 0.07519 0.166 0.073h0.123l0.264-0.043v0.532l-0.3 0.061c-0.09388 0.0067229-0.18812 0.0067229-0.282 0-0.10745 8.983e-4 -0.2146-0.01153-0.319-0.037-0.096952-0.02309-0.1886-0.0645-0.27-0.122-0.077815-0.057807-0.14086-0.13319-0.184-0.22-0.048028-0.10531-0.070963-0.22032-0.067-0.336v-2.33h-0.534v-0.55h0.534v-1.015l0.808 1e-3z"/>
</g>
</g>
</g>
</svg>
