<?xml version="1.0" encoding="UTF-8"?>
<svg width="60px" height="75px" viewBox="0 0 60 75" version="1.1" xmlns="http://www.w3.org/2000/svg" xmlns:xlink="http://www.w3.org/1999/xlink">
    <!-- Generator: sketchtool 60.1 (101010) - https://sketch.com -->
    <title>B6BD47A0-C49B-4460-B234-5BD219CD7A99</title>
    <desc>Created with sketchtool.</desc>
    <g id="Page-v.4" stroke="none" stroke-width="1" fill="none" fill-rule="evenodd">
        <g id="QR-Public-Webpage-2" transform="translate(-378.000000, -1104.000000)">
            <g id="Group-5" transform="translate(91.000000, 900.000000)">
                <g id="Group-8">
                    <g id="Group-13" transform="translate(287.000000, 204.000000)">
                        <path d="M48.5001834,0.505143443 C48.6114329,0.506065574 48.7045586,0.512866291 48.7798173,0.518543161 L48.8491297,0.523586066 C51.3909051,0.704569672 53.3952182,2.84391393 53.3982578,5.46092213 L53.3982578,27.6068238 L53.3967781,27.6061434 L53.3973459,38.5835041 C53.3675578,39.423873 54.2587689,40.3644467 55.6442192,40.476332 C57.0284536,40.3644467 57.9202727,39.4251025 57.8898766,38.5835041 L57.8898766,33.0175205 L59.8941897,33.0175205 L59.8941897,38.5835041 C59.86197,40.8119877 57.9135855,42.3820697 55.7013637,42.5056352 L55.645435,42.5080943 L55.5858589,42.5056352 C53.373637,42.3820697 51.4228209,40.813832 51.3930328,38.5835041 L51.3927781,27.6061434 L51.3921209,27.6068238 L51.3921209,5.46092213 C51.3945487,3.94368148 50.2468332,2.69790611 48.7826738,2.55198405 L48.6997781,2.56114344 L48.6614037,2.56559612 C48.6159701,2.57184926 48.5708652,2.57917197 48.5261152,2.5875384 C48.5152086,2.58864519 48.5045062,2.59071159 48.4938246,2.59283776 L48.5261152,2.5875384 C48.4712098,2.59780348 48.4168385,2.60963977 48.3630497,2.62299956 L48.4938246,2.59283776 C48.4364366,2.60426075 48.3796461,2.61740876 48.3235087,2.63222608 L48.3630497,2.62299956 C48.3039136,2.63768749 48.2454816,2.6542169 48.1878177,2.67252439 L48.3235087,2.63222608 C48.2739372,2.64531036 48.224875,2.65969629 48.1763606,2.67534552 L48.1878177,2.67252439 C48.1410545,2.68737109 48.0947965,2.70338716 48.049078,2.72053881 L48.1763606,2.67534552 C48.1148134,2.69519874 48.0541478,2.71708517 47.9944424,2.74092649 L48.049078,2.72053881 C47.9427633,2.76042356 47.8393658,2.80644899 47.7393158,2.85818998 C47.7233095,2.8659008 47.7075973,2.87422566 47.69197,2.88269149 L47.7393158,2.85818998 C47.6906053,2.88338075 47.6426882,2.9099263 47.5956143,2.93777758 L47.69197,2.88269149 C47.6475242,2.90676935 47.6037662,2.93198761 47.560735,2.95830739 L47.5956143,2.93777758 C47.5460937,2.96707643 47.4975063,2.99782025 47.4499097,3.02995195 L47.560735,2.95830739 C47.5120024,2.98811434 47.464202,3.01933404 47.4173902,3.05190998 L47.4499097,3.02995195 C47.4086966,3.05777432 47.3682264,3.08663726 47.3285368,3.11650368 L47.4173902,3.05190998 C47.3648191,3.08849386 47.3134949,3.12678824 47.2634979,3.16671313 L47.3285368,3.11650368 C47.2864058,3.14820715 47.2451544,3.18104136 47.2048273,3.21496194 L47.2634979,3.16671313 C47.2179956,3.2030488 47.1735927,3.24073499 47.1303495,3.27971138 L47.2048273,3.21496194 C47.1613342,3.25154556 47.1189163,3.28939283 47.07763,3.32844811 L47.1303495,3.27971138 C47.0916976,3.31454947 47.0539723,3.35041833 47.0172167,3.3872749 L47.07763,3.32844811 C47.0373936,3.36651021 46.998232,3.40571966 46.9601972,3.44602496 L47.0172167,3.3872749 C46.9739077,3.43070293 46.9319451,3.47550228 46.8913995,3.52160248 L46.9601972,3.44602496 C46.9249955,3.48332806 46.8907591,3.52156985 46.8575292,3.56070949 L46.8913995,3.52160248 C46.8541883,3.56391147 46.8181707,3.60731615 46.7834012,3.65176206 L46.8575292,3.56070949 C46.8200805,3.60481827 46.7839103,3.65006735 46.7490776,3.69639831 L46.7834012,3.65176206 C46.7562285,3.68649696 46.7298182,3.7218678 46.7041962,3.75784858 L46.7490776,3.69639831 C46.7135976,3.74359024 46.6795053,3.79190462 46.6468633,3.8412797 L46.7041962,3.75784858 C46.6743287,3.79979138 46.6455324,3.84256299 46.6178488,3.88612225 L46.6468633,3.8412797 C46.6153139,3.8890022 46.5851193,3.93771557 46.556336,3.98736408 L46.6178488,3.88612225 C46.5879246,3.93320703 46.5593003,3.9812121 46.5320281,4.03008546 L46.556336,3.98736408 C46.5304732,4.03197488 46.5057498,4.07734067 46.4822068,4.12342099 L46.5320281,4.03008546 C46.5008912,4.0858847 46.4715169,4.14281575 46.4439826,4.20080121 L46.4822068,4.12342099 C46.277445,4.52419819 46.1619709,4.97902562 46.16273,5.46129098 L46.16273,74.7877254 L0.174778064,74.7877254 L0.174778064,5.46129098 C0.174778064,2.72502049 2.36572269,0.506372951 5.07339953,0.505143443 L48.5001834,0.505143443 Z M45.1055567,2.53321721 L5.07339953,2.53321721 C3.47639301,2.53629098 2.18091493,3.8444877 2.17848325,5.46129098 L2.17848325,72.7584221 L44.1572011,72.7584221 L44.1572011,5.46129098 L44.1627781,5.24614344 C44.1636763,5.23277197 44.1639068,5.22773154 44.1641447,5.2226931 L44.1572011,5.46129098 C44.1574763,5.33722917 44.1622218,5.21423841 44.1712841,5.09247737 C44.1747377,5.05467854 44.1778896,5.01732523 44.1814485,4.98009333 C44.1848893,4.93889801 44.1894109,4.89751027 44.1944296,4.85627966 C44.2007092,4.80758603 44.2072615,4.75925924 44.2144972,4.71116117 C44.2183602,4.68390316 44.2227178,4.65662786 44.227293,4.6294283 C44.2679001,4.38805773 44.3255354,4.15274501 44.399082,3.92473603 C44.4069985,3.90041779 44.414851,3.87669423 44.4228746,3.85305183 C44.4420637,3.79631456 44.4624995,3.73954151 44.4839219,3.68326562 C44.4962258,3.6510095 44.5086617,3.61931075 44.5214083,3.58777539 C44.5336567,3.55749877 44.5463182,3.52707731 44.5592697,3.49681287 C44.5751428,3.45958195 44.5915597,3.42244344 44.6084103,3.38555143 C44.6718485,3.24707898 44.7411896,3.11231147 44.8162967,2.98135347 C44.8381994,2.94239251 44.8609137,2.90394218 44.8841231,2.86583596 C44.9053417,2.83190191 44.9266451,2.7979124 44.9483435,2.76420714 C44.9621879,2.74168866 44.9771126,2.7188778 44.9922177,2.69620106 C45.021952,2.65268071 45.0517158,2.60956617 45.0821338,2.56696125 C45.0894043,2.55557826 45.0974579,2.54437983 45.1055567,2.53321721 Z" id="Combined-Shape" fill="#085451"></path>
                        <polygon id="Fill-99" fill="#085451" points="45.1606343 42.5070492 55.6448271 42.5070492 55.6448271 40.4795902 45.1606343 40.4795902"></polygon>
                        <polygon id="Fill-100" fill="#085451" points="6.12048139 46.9452049 6.12048139 44.9159016 21.2388504 44.9159016 21.2388504 46.9452049 10.1169492 46.9452049"></polygon>
                        <polygon id="Fill-101" fill="#085451" points="5.79475772 53.1933197 37.6114805 53.1933197 37.6114805 51.1652459 5.79475772 51.1652459"></polygon>
                        <polygon id="Fill-102" fill="#085451" points="5.79475772 59.4392213 37.6114805 59.4392213 37.6114805 57.412377 5.79475772 57.412377"></polygon>
                        <polygon id="Fill-103" fill="#085451" points="5.79475772 65.687582 37.6114805 65.687582 37.6114805 63.6595082 5.79475772 63.6595082"></polygon>
                        <path d="M14.3013859,18.749877 L19.8006326,18.749877 L19.8006326,13.1888115 L14.3013859,13.1888115 L14.3013859,18.749877 Z M13.5755292,19.485123 L20.5283132,19.485123 L20.5283132,12.4541803 L13.5755292,12.4541803 L13.5755292,19.485123 Z" id="Fill-104" fill="#085451"></path>
                        <path d="M26.7923236,18.749877 L32.2921782,18.749877 L32.2921782,13.1888115 L26.7923236,13.1888115 L26.7923236,18.749877 Z M26.0664668,19.485123 L33.0186429,19.485123 L33.0186429,12.4541803 L26.0664668,12.4541803 L26.0664668,19.485123 Z" id="Fill-105" fill="#085451"></path>
                        <path d="M14.3013859,31.3812295 L19.8006326,31.3812295 L19.8006326,25.8201639 L14.3013859,25.8201639 L14.3013859,31.3812295 Z M13.5755292,32.1164754 L20.5283132,32.1164754 L20.5283132,25.0855328 L13.5755292,25.0855328 L13.5755292,32.1164754 Z" id="Fill-106" fill="#085451"></path>
                        <polygon id="Fill-107" fill="#E18431" points="15.4351572 17.6027459 18.6650376 17.6027459 18.6650376 14.3359426 15.4351572 14.3359426"></polygon>
                        <polygon id="Fill-108" fill="#E18431" points="15.7032501 17.3328689 18.3999843 17.3328689 18.3999843 14.6058197 15.7032501 14.6058197"></polygon>
                        <polygon id="Fill-109" fill="#085451" points="30.0259122 32.09625 30.0259122 31.3616189 32.2326628 31.3616189 32.2326628 27.29625 32.9585196 27.29625 32.9585196 32.09625"></polygon>
                        <polygon id="Fill-110" fill="#085451" points="13.5645258 23.3005328 13.5645258 20.5790164 14.5475329 20.5790164 14.5475329 22.3058607 15.1882808 22.3058607 15.1882808 23.3005328"></polygon>
                        <polygon id="Fill-111" fill="#E18431" points="27.9260949 17.6027459 31.157191 17.6027459 31.157191 14.3359426 27.9260949 14.3359426"></polygon>
                        <polygon id="Fill-112" fill="#E18431" points="28.1941877 17.3328689 30.890922 17.3328689 30.890922 14.6058197 28.1941877 14.6058197"></polygon>
                        <polygon id="Fill-113" fill="#E18431" points="15.4351572 30.2347131 18.6650376 30.2347131 18.6650376 26.9672951 15.4351572 26.9672951"></polygon>
                        <polygon id="Fill-114" fill="#E18431" points="15.7032501 29.9648361 18.3999843 29.9648361 18.3999843 27.2371721 15.7032501 27.2371721"></polygon>
                        <polygon id="Fill-115" fill="#085451" points="29.3170164 27.7131148 29.3170164 24.7469262 32.3122395 24.7469262 32.3122395 22.1163934 33.0374884 22.1163934 33.0374884 25.4809426 30.0428732 25.4809426 30.0428732 27.7131148"></polygon>
                        <polygon id="Fill-116" fill="#085451" points="22.1941363 30.3132172 22.1941363 29.0996926 24.1826435 29.0996926 24.1826435 29.8355533 22.920601 29.8355533 22.920601 30.3132172"></polygon>
                        <polygon id="Fill-117" fill="#085451" points="19.6820882 23.5707787 20.9423069 23.5707787 20.9423069 22.2957787 19.6820882 22.2957787"></polygon>
                        <polygon id="Fill-118" fill="#085451" points="19.9483573 23.2996721 20.674214 23.2996721 20.674214 22.5656557 19.9483573 22.5656557"></polygon>
                        <polygon id="Fill-119" fill="#085451" points="29.207226 22.7824795 29.207226 21.9310451 30.5762624 21.9310451 30.5762624 19.9939549 32.9684287 19.9939549 32.9684287 20.8441598 31.418232 20.8441598 31.418232 22.7824795"></polygon>
                        <polygon id="Fill-120" fill="#085451" points="27.119871 32.1064549 27.119871 30.4318648 25.7800147 30.4318648 25.7800147 29.6984631 27.8457278 29.6984631 27.8457278 31.3724385 29.0293485 31.3724385 29.0293485 32.1064549"></polygon>
                        <polygon id="Fill-121" fill="#085451" points="21.6295607 19.4103074 21.6295607 12.458668 24.852146 12.458668 24.852146 13.1939139 22.4733541 13.1939139 22.4733541 19.4103074"></polygon>
                        <polygon id="Fill-122" fill="#085451" points="22.1941363 28.7907172 22.1941363 26.1743238 24.2665365 26.1743238 24.2665365 24.6780123 25.1759852 24.6780123 25.1759852 27.0933811 23.103585 27.0933811 23.103585 28.7907172"></polygon>
                        <polygon id="Fill-123" fill="#085451" points="26.2816098 28.1615779 26.2816098 24.926127 27.4512483 24.926127 27.4512483 26.978791 28.2123645 26.978791 28.2123645 28.1615779"></polygon>
                        <polygon id="Fill-124" fill="#085451" points="21.9323658 24.2371107 21.9323658 23.3580123 24.5695239 23.3580123 24.5695239 18.5014549 25.438242 18.5014549 25.438242 24.2371107"></polygon>
                        <polygon id="Fill-125" fill="#085451" points="27.5625585 23.0918852 28.8227772 23.0918852 28.8227772 21.8168852 27.5625585 21.8168852"></polygon>
                        <polygon id="Fill-126" fill="#085451" points="27.8294355 22.8220082 28.5552923 22.8220082 28.5552923 22.0879918 27.8294355 22.0879918"></polygon>
                        <polygon id="Fill-127" fill="#085451" points="30.2422711 30.2642213 31.5024898 30.2642213 31.5024898 28.9898361 30.2422711 28.9898361"></polygon>
                        <polygon id="Fill-128" fill="#085451" points="30.5085401 29.9943443 31.2350048 29.9943443 31.2350048 29.2603279 30.5085401 29.2603279"></polygon>
                        <polygon id="Fill-129" fill="#085451" points="26.4585753 21.9767213 27.719402 21.9767213 27.719402 20.7017213 26.4585753 20.7017213"></polygon>
                        <polygon id="Fill-130" fill="#085451" points="26.7260603 21.705 27.451917 21.705 27.451917 20.9709836 26.7260603 20.9709836"></polygon>
                        <polygon id="Fill-131" fill="#085451" points="26.3801536 24.3675 27.6409803 24.3675 27.6409803 23.0925 26.3801536 23.0925"></polygon>
                        <polygon id="Fill-132" fill="#085451" points="26.6470306 24.0963934 27.3728874 24.0963934 27.3728874 23.362377 26.6470306 23.362377"></polygon>
                        <polygon id="Fill-133" fill="#085451" points="21.8098091 32.3365574 23.0700278 32.3365574 23.0700278 31.0615574 21.8098091 31.0615574"></polygon>
                        <polygon id="Fill-134" fill="#085451" points="22.0760782 32.0666803 22.8025429 32.0666803 22.8025429 31.3320492 22.0760782 31.3320492"></polygon>
                        <polygon id="Fill-135" fill="#085451" points="23.8591083 17.7527459 25.1187191 17.7527459 25.1187191 16.4777459 23.8591083 16.4777459"></polygon>
                        <polygon id="Fill-136" fill="#085451" points="24.1253774 17.4816393 24.8512342 17.4816393 24.8512342 16.7470082 24.1253774 16.7470082"></polygon>
                        <polygon id="Fill-137" fill="#085451" points="23.8591083 15.6404508 25.1187191 15.6404508 25.1187191 14.3666803 23.8591083 14.3666803"></polygon>
                        <polygon id="Fill-138" fill="#085451" points="24.1253774 15.369959 24.8512342 15.369959 24.8512342 14.6359426 24.1253774 14.6359426"></polygon>
                        <polygon id="Fill-139" fill="#085451" points="24.2524327 32.3365574 25.5132593 32.3365574 25.5132593 31.0615574 24.2524327 31.0615574"></polygon>
                        <polygon id="Fill-140" fill="#085451" points="24.5193097 32.0666803 25.2451665 32.0666803 25.2451665 31.3320492 24.5193097 31.3320492"></polygon>
                        <polygon id="Fill-141" fill="#085451" points="16.0110401 24.5427049 16.0110401 21.5709836 18.3649073 21.5709836 18.3649073 19.869959 19.3977639 19.869959 19.3977639 22.6148361 17.0438966 22.6148361 17.0438966 24.5427049"></polygon>
                        <polygon id="Fill-142" fill="#085451" points="21.8098091 21.7369672 23.0700278 21.7369672 23.0700278 20.4631967 21.8098091 20.4631967"></polygon>
                        <polygon id="Fill-143" fill="#085451" points="22.0760782 21.4664754 22.8025429 21.4664754 22.8025429 20.732459 22.0760782 20.732459"></polygon>
                        <line x1="54.0517721" y1="18.1340164" x2="58.9072312" y2="0.614754098" id="Fill-201" fill="#FFFFFF"></line>
                    </g>
                </g>
            </g>
        </g>
    </g>
</svg>