<?xml version="1.0" encoding="UTF-8"?>
<svg width="64px" height="45px" viewBox="0 0 64 45" version="1.1" xmlns="http://www.w3.org/2000/svg" xmlns:xlink="http://www.w3.org/1999/xlink">
    <!-- Generator: sketchtool 60.1 (101010) - https://sketch.com -->
    <title>D4A7EEF3-6D43-4337-89FE-797A4244FE86</title>
    <desc>Created with sketchtool.</desc>
    <g id="Page-v.4" stroke="none" stroke-width="1" fill="none" fill-rule="evenodd">
        <g id="QR-Public-Webpage-2" transform="translate(-373.000000, -1329.000000)">
            <g id="Group-5" transform="translate(91.000000, 900.000000)">
                <g id="Group-8">
                    <g id="Group-93" transform="translate(283.000000, 430.000000)">
                        <g id="Group-92">
                            <polygon id="Fill-1" fill="#FFFFFF" points="4.09285723 42.8859572 57.9889108 42.8859572 57.9889108 9.56972997 4.09285723 9.56972997"></polygon>
                            <polygon id="Stroke-2" stroke="#005651" stroke-width="2" points="4.09285723 42.8859572 57.9889108 42.8859572 57.9889108 9.56972997 4.09285723 9.56972997"></polygon>
                            <polygon id="Fill-4" fill="#FFFFFF" points="53.4609392 0.954568993 8.62005145 0.954568993 0.783758836 10.1441373 61.2972318 10.1441373"></polygon>
                            <polygon id="Stroke-5" stroke="#005651" stroke-width="2" stroke-linejoin="round" points="53.4609392 0.954568993 8.62005145 0.954568993 0.783758836 10.1441373 61.2972318 10.1441373"></polygon>
                            <g id="Group-9" transform="translate(12.093711, 0.942484)">
                                <line x1="5.76036398" y1="0.0120848081" x2="0.00634919811" y2="9.20165309" id="Fill-7" fill="#FFFFFF"></line>
                                <line x1="5.76036398" y1="0.0120848081" x2="0.00634919811" y2="9.20165309" id="Stroke-8" stroke="#005651" stroke-width="2" stroke-linejoin="round"></line>
                            </g>
                            <g id="Group-12" transform="translate(24.564757, 0.942484)">
                                <line x1="1.34493881" y1="0.0120848081" x2="0.00253692636" y2="9.0106439" id="Fill-10" fill="#FFFFFF"></line>
                                <line x1="1.34493881" y1="0.0120848081" x2="0.00253692636" y2="9.0106439" id="Stroke-11" stroke="#005651" stroke-width="2" stroke-linejoin="round"></line>
                            </g>
                            <g id="Group-15" transform="translate(34.498876, 0.565566)">
                                <line x1="0.0420142534" y1="0.197433647" x2="2.91902164" y2="9.77031381" id="Fill-13" fill="#FFFFFF"></line>
                                <line x1="0.0420142534" y1="0.197433647" x2="2.91902164" y2="9.77031381" id="Stroke-14" stroke="#005651" stroke-width="2" stroke-linejoin="round"></line>
                            </g>
                            <g id="Group-18" transform="translate(44.055660, 0.996738)">
                                <line x1="0.0751969654" y1="0.340582742" x2="5.44566835" y2="9.53058219" id="Fill-16" fill="#FFFFFF"></line>
                                <line x1="0.0751969654" y1="0.340582742" x2="5.44566835" y2="9.53058219" id="Stroke-17" stroke="#005651" stroke-width="2" stroke-linejoin="round"></line>
                            </g>
                            <g id="Group-91" transform="translate(0.000000, 10.302683)">
                                <path d="M1.19377882,0.0336710114 C1.21019171,3.24331518 3.64491483,5.84112633 6.64674659,5.84112633 C9.64814643,5.84112633 12.0828695,3.24331518 12.0992824,0.0336710114 L1.19377882,0.0336710114 Z" id="Fill-19" fill="#FFFFFF"></path>
                                <path d="M1.19377882,0.0336710114 C1.21019171,3.24331518 3.64491483,5.84112633 6.64674659,5.84112633 C9.64814643,5.84112633 12.0828695,3.24331518 12.0992824,0.0336710114 L1.19377882,0.0336710114 Z" id="Stroke-21" stroke="#005651" stroke-width="2" stroke-linejoin="round"></path>
                                <path d="M12.8680105,0.0336710114 C12.8857192,3.24331518 15.4970968,5.84112633 18.7170473,5.84112633 C21.9369978,5.84112633 24.5483755,3.24331518 24.5660841,0.0336710114 L12.8680105,0.0336710114 Z" id="Fill-23" fill="#FFFFFF"></path>
                                <path d="M12.8680105,0.0336710114 C12.8857192,3.24331518 15.4970968,5.84112633 18.7170473,5.84112633 C21.9369978,5.84112633 24.5483755,3.24331518 24.5660841,0.0336710114 L12.8680105,0.0336710114 Z" id="Stroke-25" stroke="#005651" stroke-width="2" stroke-linejoin="round"></path>
                                <path d="M25.3352441,0.0336710114 C25.3529528,3.24331518 27.9643304,5.84112633 31.1842809,5.84112633 C34.4042314,5.84112633 37.015609,3.24331518 37.0333177,0.0336710114 L25.3352441,0.0336710114 Z" id="Fill-27" fill="#FFFFFF"></path>
                                <path d="M25.3352441,0.0336710114 C25.3529528,3.24331518 27.9643304,5.84112633 31.1842809,5.84112633 C34.4042314,5.84112633 37.015609,3.24331518 37.0333177,0.0336710114 L25.3352441,0.0336710114 Z" id="Stroke-29" stroke="#005651" stroke-width="2" stroke-linejoin="round"></path>
                                <path d="M37.8022185,0.0336710114 C37.8199272,3.24331518 40.4313049,5.84112633 43.6512553,5.84112633 C46.8712058,5.84112633 49.4825835,3.24331518 49.5002921,0.0336710114 L37.8022185,0.0336710114 Z" id="Fill-31" fill="#FFFFFF"></path>
                                <path d="M37.8022185,0.0336710114 C37.8199272,3.24331518 40.4313049,5.84112633 43.6512553,5.84112633 C46.8712058,5.84112633 49.4825835,3.24331518 49.5002921,0.0336710114 L37.8022185,0.0336710114 Z" id="Stroke-33" stroke="#005651" stroke-width="2" stroke-linejoin="round"></path>
                                <path d="M50.2694521,0.0336710114 C50.2867289,3.24331518 52.8341826,5.84112633 55.9750921,5.84112633 C59.1160015,5.84112633 61.6634553,3.24331518 61.680732,0.0336710114 L50.2694521,0.0336710114 Z" id="Fill-35" fill="#FFFFFF"></path>
                                <path d="M50.2694521,0.0336710114 C50.2867289,3.24331518 52.8341826,5.84112633 55.9750921,5.84112633 C59.1160015,5.84112633 61.6634553,3.24331518 61.680732,0.0336710114 L50.2694521,0.0336710114 Z" id="Stroke-37" stroke="#094056" stroke-width="2" stroke-linejoin="round"></path>
                                <polygon id="Fill-39" fill="#FFFFFF" points="37.0343975 32.5975032 48.3960068 32.5975032 48.3960068 10.1368927 37.0343975 10.1368927"></polygon>
                                <polygon id="Stroke-41" stroke="#005651" stroke-width="2" points="37.0343975 32.5975032 48.3960068 32.5975032 48.3960068 10.1368927 37.0343975 10.1368927"></polygon>
                                <path d="M46.5167305,20.4776902 C46.5167305,20.9308519 46.1487362,21.2977792 45.6947901,21.2977792 C45.240844,21.2977792 44.8732816,20.9308519 44.8732816,20.4776902 C44.8732816,20.0240972 45.240844,19.6576011 45.6947901,19.6576011 C46.1487362,19.6576011 46.5167305,20.0240972 46.5167305,20.4776902 Z" id="Stroke-42" stroke="#005651" stroke-width="2"></path>
                                <polygon id="Fill-43" fill="#FFFFFF" points="0.803367925 5.85061211 61.680516 5.85061211 61.680516 0.0457438267 0.803367925 0.0457438267"></polygon>
                                <polygon id="Stroke-44" stroke="#005651" stroke-width="2" points="0.803367925 5.85061211 61.680516 5.85061211 61.680516 0.0457438267 0.803367925 0.0457438267"></polygon>
                                <path d="M14.8938366,15.5644855 L18.5543437,15.5644855 L18.5543437,11.910303 L14.8938366,11.910303 L14.8938366,15.5644855 Z M14.4100882,16.0469669 L19.0372283,16.0469669 L19.0372283,11.4273904 L14.4100882,11.4273904 L14.4100882,16.0469669 Z" id="Fill-45" fill="#085451"></path>
                                <path d="M23.2078308,15.5644855 L26.8683379,15.5644855 L26.8683379,11.910303 L23.2078308,11.910303 L23.2078308,15.5644855 Z M22.7240824,16.0469669 L27.3512225,16.0469669 L27.3512225,11.4273904 L22.7240824,11.4273904 L22.7240824,16.0469669 Z" id="Fill-46" fill="#085451"></path>
                                <path d="M14.8938366,23.8636837 L18.5543437,23.8636837 L18.5543437,20.2095012 L14.8938366,20.2095012 L14.8938366,23.8636837 Z M14.4100882,24.3461651 L19.0372283,24.3461651 L19.0372283,19.7270197 L14.4100882,19.7270197 L14.4100882,24.3461651 Z" id="Fill-47" fill="#085451"></path>
                                <polygon id="Fill-48" fill="#E18431" points="15.6483978 14.8103657 17.7989187 14.8103657 17.7989187 12.6635605 15.6483978 12.6635605"></polygon>
                                <polygon id="Fill-49" fill="#E18431" points="15.8263481 14.6322917 17.6209684 14.6322917 17.6209684 12.8407721 15.8263481 12.8407721"></polygon>
                                <polygon id="Fill-50" fill="#085451" points="25.3599066 24.3334024 25.3599066 23.8504898 26.8284286 23.8504898 26.8284286 21.1802418 27.3121771 21.1802418 27.3121771 24.3334024"></polygon>
                                <polygon id="Fill-51" fill="#085451" points="14.4035662 18.5538439 14.4035662 16.7662049 15.0579224 16.7662049 15.0579224 17.899756 15.4842257 17.899756 15.4842257 18.5538439"></polygon>
                                <polygon id="Fill-52" fill="#E18431" points="23.962392 14.8103657 26.1129129 14.8103657 26.1129129 12.6635605 23.962392 12.6635605"></polygon>
                                <polygon id="Fill-53" fill="#E18431" points="24.1403423 14.6322917 25.9353945 14.6322917 25.9353945 12.8407721 24.1403423 12.8407721"></polygon>
                                <polygon id="Fill-54" fill="#E18431" points="15.6483978 23.1099951 17.7989187 23.1099951 17.7989187 20.9631898 15.6483978 20.9631898"></polygon>
                                <polygon id="Fill-55" fill="#E18431" points="15.8263481 22.931921 17.6209684 22.931921 17.6209684 21.1399703 15.8263481 21.1399703"></polygon>
                                <polygon id="Fill-56" fill="#085451" points="24.8879064 21.453303 24.8879064 19.5039745 26.8812091 19.5039745 26.8812091 17.7766996 27.3645256 17.7766996 27.3645256 19.9873183 25.3716548 19.9873183 25.3716548 21.453303"></polygon>
                                <polygon id="Fill-57" fill="#085451" points="20.1473446 23.1615632 20.1473446 22.3643262 21.4703101 22.3643262 21.4703101 22.8472388 20.6306611 22.8472388 20.6306611 23.1615632"></polygon>
                                <polygon id="Fill-58" fill="#085451" points="18.4744388 18.7310125 19.313656 18.7310125 19.313656 17.8936765 18.4744388 17.8936765"></polygon>
                                <polygon id="Fill-59" fill="#085451" points="18.6523892 18.5533696 19.1357057 18.5533696 19.1357057 18.0708882 18.6523892 18.0708882"></polygon>
                                <polygon id="Fill-60" fill="#085451" points="24.8149554 18.2136492 24.8149554 17.653988 25.7263029 17.653988 25.7263029 16.3811683 27.3187854 16.3811683 27.3187854 16.9399672 26.2860689 16.9399672 26.2860689 18.2136492"></polygon>
                                <polygon id="Fill-61" fill="#085451" points="23.4257768 24.3397406 23.4257768 23.2398209 22.5342975 23.2398209 22.5342975 22.7573395 23.9090933 22.7573395 23.9090933 23.8572592 24.6960483 23.8572592 24.6960483 24.3397406"></polygon>
                                <polygon id="Fill-62" fill="#085451" points="19.7713165 15.9979858 19.7713165 11.4305811 21.9157906 11.4305811 21.9157906 11.9130625 20.3323783 11.9130625 20.3323783 15.9979858"></polygon>
                                <polygon id="Fill-63" fill="#085451" points="20.1473446 22.1615461 20.1473446 20.4428946 21.5268914 20.4428946 21.5268914 19.4580978 22.1320089 19.4580978 22.1320089 21.0465353 20.752462 21.0465353 20.752462 22.1615461"></polygon>
                                <polygon id="Fill-64" fill="#085451" points="22.8677384 21.7480521 22.8677384 19.6219431 23.6460551 19.6219431 23.6460551 20.9706491 24.1526952 20.9706491 24.1526952 21.7480521"></polygon>
                                <polygon id="Fill-65" fill="#085451" points="19.97272 19.1694713 19.97272 18.592132 21.7280357 18.592132 21.7280357 15.400597 22.3059423 15.400597 22.3059423 19.1694713"></polygon>
                                <polygon id="Fill-66" fill="#085451" points="23.7200858 18.4171193 24.559303 18.4171193 24.559303 17.5797833 23.7200858 17.5797833"></polygon>
                                <polygon id="Fill-67" fill="#085451" points="23.8976042 18.2394764 24.3809208 18.2394764 24.3809208 17.756995 23.8976042 17.756995"></polygon>
                                <polygon id="Fill-68" fill="#085451" points="25.5030443 23.1293978 26.3422615 23.1293978 26.3422615 22.2916306 25.5030443 22.2916306"></polygon>
                                <polygon id="Fill-69" fill="#085451" points="25.6814266 22.9517549 26.1647431 22.9517549 26.1647431 22.4692735 25.6814266 22.4692735"></polygon>
                                <polygon id="Fill-70" fill="#085451" points="22.9853929 17.6841269 23.8246101 17.6841269 23.8246101 16.846791 22.9853929 16.846791"></polygon>
                                <polygon id="Fill-71" fill="#085451" points="23.1637752 17.5060529 23.6470917 17.5060529 23.6470917 17.0231403 23.1637752 17.0231403"></polygon>
                                <polygon id="Fill-72" fill="#085451" points="22.9331308 19.2544553 23.772348 19.2544553 23.772348 18.4175505 22.9331308 18.4175505"></polygon>
                                <polygon id="Fill-73" fill="#085451" points="23.1110811 19.0768124 23.5948296 19.0768124 23.5948296 18.5947621 23.1110811 18.5947621"></polygon>
                                <polygon id="Fill-74" fill="#085451" points="19.8906987 24.4914701 20.7299159 24.4914701 20.7299159 23.6541341 19.8906987 23.6541341"></polygon>
                                <polygon id="Fill-75" fill="#085451" points="20.0686491 24.3129649 20.5523975 24.3129649 20.5523975 23.8304834 20.0686491 23.8304834"></polygon>
                                <polygon id="Fill-76" fill="#085451" points="21.2546965 14.9082418 22.0939137 14.9082418 22.0939137 14.071337 21.2546965 14.071337"></polygon>
                                <polygon id="Fill-77" fill="#085451" points="21.4326469 14.7314613 21.9159634 14.7314613 21.9159634 14.2489798 21.4326469 14.2489798"></polygon>
                                <polygon id="Fill-78" fill="#085451" points="21.2546965 13.5207304 22.0939137 13.5207304 22.0939137 12.6833944 21.2546965 12.6833944"></polygon>
                                <polygon id="Fill-79" fill="#085451" points="21.4326469 13.3430875 21.9159634 13.3430875 21.9159634 12.8606061 21.4326469 12.8606061"></polygon>
                                <polygon id="Fill-80" fill="#085451" points="21.5168709 24.4914701 22.3560881 24.4914701 22.3560881 23.6541341 21.5168709 23.6541341"></polygon>
                                <polygon id="Fill-81" fill="#085451" points="21.6948212 24.3129649 22.1781377 24.3129649 22.1781377 23.8304834 21.6948212 23.8304834"></polygon>
                                <polygon id="Fill-82" fill="#085451" points="16.031898 19.3703112 16.031898 17.4179645 17.5984655 17.4179645 17.5984655 16.3003667 18.2860793 16.3003667 18.2860793 18.1035279 16.7195118 18.1035279 16.7195118 19.3703112"></polygon>
                                <polygon id="Fill-83" fill="#085451" points="19.8906987 17.526318 20.7299159 17.526318 20.7299159 16.6894132 19.8906987 16.6894132"></polygon>
                                <polygon id="Fill-84" fill="#085451" points="20.0686491 17.3491063 20.5523975 17.3491063 20.5523975 16.8661937 20.0686491 16.8661937"></polygon>
                            </g>
                        </g>
                    </g>
                </g>
            </g>
        </g>
    </g>
</svg>