<?xml version="1.0" encoding="UTF-8"?>
<svg width="21px" height="20px" viewBox="0 0 21 20" version="1.1" xmlns="http://www.w3.org/2000/svg" xmlns:xlink="http://www.w3.org/1999/xlink">
    <!-- Generator: Sketch 52.6 (67491) - http://www.bohemiancoding.com/sketch -->
    <title>وزارة التجارة اخضر</title>
    <desc>Created with Sketch.</desc>
    <g id="trade-names" stroke="none" stroke-width="1" fill="none" fill-rule="evenodd">
        <g id="وزارة-التجارة-اخضر" fill="#00524C" fill-rule="nonzero">
            <path d="M1.7225,19.216 L1.552,19.25 L0.8025,19.9985 C3.9702415,19.4088616 7.18867669,19.13502 10.4105,19.181 C13.6324901,19.1349868 16.8510945,19.4088287 20.019,19.9985 L20.8025,19.216 C17.6674618,18.6386894 14.4840735,18.3649234 11.2965,18.3985 C8.08634795,18.3636937 4.88027925,18.6374519 1.7225,19.216 Z" id="Path_543-path"></path>
            <path d="M20.734,0.068 C20.1712729,3.18148614 19.9090676,6.34184715 19.951,9.5055 C19.910758,12.6692813 20.1731185,15.8296627 20.7345,18.9435 C17.6208651,18.3805795 14.4603355,18.1182067 11.2965,18.16 C8.13266446,18.1182067 4.97213494,18.3805795 1.8585,18.9435 C2.41984061,15.8298257 2.68220095,12.6696142 2.642,9.506 C2.68379333,6.34216446 2.42142049,3.18163494 1.8585,0.068 C4.97197076,0.630888555 8.1323313,0.893261268 11.296,0.8515 C14.4598355,0.893293331 17.6203651,0.63092049 20.734,0.068 Z M12.523,4.429 L12.6595,4.429 C12.6083885,4.45991574 12.5480604,4.47194597 12.489,4.463 L12.489,4.429 L12.523,4.429 Z M13.102,3.509 C13.102,3.441 13.068,3.441 13.0675,3.4435 C12.9655,3.4435 12.827,3.65 12.727,3.75 L12.693,3.818 L12.659,3.75 C12.625,3.716 12.625,3.682 12.591,3.682 C12.5443059,3.75348954 12.470432,3.80279904 12.3865,3.8185 C12.3865,3.8865 12.3525,4.025 12.148,4.125 C12.1485861,4.27261381 12.1006235,4.41632593 12.0115,4.534 C12.0115,4.534 11.807,4.704 11.6365,4.8745 L11.5365,4.9745 L11.741,4.8745 C11.8855838,4.82873886 12.0337785,4.79528634 12.184,4.7745 C12.2620277,4.74586284 12.3321239,4.69907495 12.3885,4.638 C12.3184323,4.73016201 12.2240701,4.80097693 12.116,4.8425 C12.116,4.8425 11.98,4.8765 11.8095,4.9105 C11.7057262,4.9386897 11.6034311,4.97206494 11.503,5.0105 C11.5397195,5.00650208 11.5763272,5.01894869 11.603,5.0445 C11.8589693,5.10383904 12.1097719,5.18359429 12.353,5.283 L12.4895,5.283 C12.762,5.283 12.83,5.1465 12.83,5.1465 L12.864,5.1125 L12.898,5.1465 C12.9878839,5.20970144 13.094638,5.24453149 13.2045,5.2465 L13.2725,5.2465 C13.2901535,5.22710957 13.3143956,5.21498854 13.3405,5.2125 L13.3745,5.1785 L13.4085,5.2125 C13.4965224,5.30568521 13.6209838,5.35557944 13.749,5.349 C13.8076006,5.34987759 13.8657184,5.33828813 13.9195,5.315 L13.9535,5.315 L13.9875,5.349 C14.1369795,5.47445527 14.3110361,5.56727413 14.4985,5.6215 C14.5904574,5.67713428 14.6981426,5.70102527 14.805,5.6895 L14.9755,5.6895 C15.0435,5.619 15.0435,5.553 15.0095,5.519 C14.9675486,5.38207384 14.8680751,5.27018894 14.737,5.2125 L14.703,5.2125 L14.703,5.1785 C14.7233895,5.0204328 14.6200191,4.87285368 14.4645,4.838 L14.4305,4.838 L14.4305,4.802 C14.4305,4.77 14.4305,4.702 14.3965,4.702 C14.3625,4.636 14.2265,4.602 14.09,4.602 L13.8515,4.602 L13.8515,4.4315 C13.8515,4.3975 13.7855,4.3975 13.7515,4.3975 C13.5999716,4.41052417 13.4509296,4.44416796 13.3085,4.4975 L13.2365,4.522 L13.2365,4.454 C13.2404979,4.41728047 13.2280513,4.3806728 13.2025,4.354 C13.166,4.32 13.134,4.32 13.066,4.32 C12.998,4.32 12.9295,4.354 12.8615,4.354 C12.8882088,4.32360228 12.9110493,4.29001321 12.9295,4.254 L12.9295,4.22 L13.0295,4.22 C13.1645077,4.22430408 13.2925686,4.16017963 13.37,4.0495 L13.37,4.0155 L13.5405,4.0155 C13.6549086,4.01680551 13.7691084,4.0054023 13.881,3.9815 L13.915,3.9815 C14.017,3.9815 14.1875,3.845 14.2555,3.811 C14.2594979,3.77428047 14.2470513,3.7376728 14.2215,3.711 C14.1414123,3.65357867 14.0472194,3.61901249 13.949,3.611 L13.915,3.611 L13.915,3.577 C13.847,3.4745 13.7785,3.4065 13.7105,3.4065 C13.674147,3.40533461 13.6386088,3.41741758 13.6105,3.4405 L13.5765,3.4745 L13.5765,3.4405 C13.5445,3.4065 13.5105,3.3725 13.4765,3.3725 C13.3745,3.3725 13.204,3.509 13.136,3.543 L13.102,3.577 L13.102,3.509 Z M13.681,6.6435 L13.6835,6.645 L13.7175,6.679 C13.8153209,6.87794248 13.9416522,7.06154391 14.0925,7.224 C14.1950273,7.3648553 14.3375252,7.47164163 14.5015,7.5305 C14.6375,7.326 14.365,6.917 14.365,6.883 C14.4375939,6.690643 14.3831914,6.47343142 14.2285,6.338 L14.1945,6.304 L14.1945,6.27 C14.2286334,6.20610628 14.2286334,6.12939372 14.1945,6.0655 C14.0976056,5.92613849 13.9514287,5.82874681 13.7855,5.793 L13.7515,5.793 L13.7855,5.759 C13.8195,5.6905 13.8195,5.6565 13.7855,5.6225 C13.7175,5.486 13.4085,5.486 13.3085,5.486 L13.2405,5.486 L13.2745,5.418 L13.2745,5.35 C13.164638,5.34803149 13.0578839,5.31320144 12.968,5.25 C12.934,5.3185 12.8315,5.3865 12.559,5.3865 L12.3885,5.3865 C12.1017185,5.27808793 11.804951,5.19820188 11.5025,5.148 L11.4345,5.148 C11.4685,5.148 11.4685,5.182 11.5025,5.182 L11.6025,5.282 C11.8755,5.5205 12.182,5.8615 12.216,5.8955 C12.3105345,5.97862596 12.4307235,6.02680746 12.5565,6.032 C12.659,6.032 12.693,5.998 12.693,5.964 L12.693,5.93 L12.727,5.896 L12.761,5.964 C12.7978527,6.02724704 12.8438496,6.08470096 12.8975,6.1345 L12.9315,6.1685 C12.97597,6.21945933 13.0358175,6.25456054 13.102,6.2685 L13.17,6.2685 L13.204,6.2345 L13.238,6.2685 C13.4085,6.6095 13.581,6.6435 13.681,6.6435 Z M13.136,7.938 L13.136,7.9385 C13.1790586,7.83006636 13.190332,7.71160917 13.1685,7.597 L13.1685,7.563 L13.2025,7.563 C13.3185527,7.47428393 13.3480135,7.31181607 13.2705,7.188 L13.2365,7.154 L13.2705,7.086 C13.2448613,6.94211045 13.1730778,6.81047814 13.066,6.711 L13.032,6.677 L13.1,6.643 C13.1090584,6.64313624 13.1177859,6.63959787 13.1241919,6.63319187 C13.1305979,6.62678586 13.1341362,6.61805844 13.134,6.609 C13.134,6.541 12.93,6.3685 12.7935,6.2685 L12.7255,6.2345 L12.7935,6.2005 L12.8275,6.2005 C12.7861915,6.16141714 12.7523104,6.11516937 12.7275,6.064 C12.691,6.098 12.659,6.098 12.591,6.098 C12.4520297,6.07901473 12.3216632,6.01974145 12.216,5.9275 C12.0131998,5.68739006 11.7846656,5.47025742 11.5345,5.28 C11.6705,5.5525 11.807,5.9615 11.841,5.9955 C12.045,6.302 12.1815,6.268 12.1815,6.268 L12.2155,6.268 L12.2155,6.3025 C12.2495,6.643 12.42,6.643 12.42,6.643 L12.454,6.643 L12.454,6.677 C12.4410971,6.84069762 12.5198002,6.99810372 12.6585,7.086 L12.6975,7.086 L12.6975,7.12 C12.6998688,7.29495721 12.7337434,7.46805605 12.7975,7.631 C12.8385514,7.77666325 12.9214839,7.90706032 13.036,8.006 C13.068,8.006 13.102,7.972 13.136,7.938 Z M9.5245,7.6315 L9.5285,7.6335 L9.5625,7.6675 C9.54321754,7.78199952 9.55495773,7.89957402 9.5965,8.008 C9.62407464,8.03815453 9.6583201,8.06144144 9.6965,8.076 C9.81099361,7.9770409 9.89392151,7.84665112 9.935,7.701 C9.99874612,7.53805299 10.0326203,7.36495608 10.035,7.19 L10.035,7.156 L10.069,7.156 C10.2076998,7.06810372 10.2864029,6.91069762 10.2735,6.747 L10.2735,6.713 L10.3075,6.713 C10.3075,6.713 10.478,6.713 10.512,6.3725 L10.512,6.3045 L10.546,6.3045 C10.546,6.3045 10.682,6.3385 10.8865,6.032 C10.9730971,5.78712705 11.0754785,5.54812584 11.193,5.3165 C10.9161606,5.48579617 10.6638153,5.69221469 10.443,5.93 C10.3373368,6.02224145 10.2069703,6.08151473 10.068,6.1005 C10.0206679,6.09852128 9.97423012,6.08695436 9.9315,6.0665 C9.90669913,6.1176751 9.8728168,6.16392448 9.8315,6.203 L9.8655,6.203 L9.9335,6.237 L9.8655,6.271 C9.7295,6.339 9.525,6.5115 9.525,6.6115 C9.525,6.6455 9.525,6.6455 9.559,6.6455 L9.627,6.6795 L9.593,6.7135 C9.48592223,6.81297814 9.41413874,6.94461045 9.3885,7.0885 C9.3885,7.1205 9.4225,7.1545 9.4565,7.1885 L9.4905,7.2225 L9.4565,7.2565 C9.37773071,7.38007193 9.40735723,7.54345346 9.5245,7.6315 Z M8.4,6.3025 L8.4,6.303 C8.2461972,6.43903546 8.19281383,6.65615441 8.266,6.848 L8.266,6.914 C8.266,6.914 7.993,7.323 8.1295,7.5275 C8.232,7.4935 8.5045,7.3575 8.5385,7.221 C8.68934782,7.05854391 8.81567907,6.87494248 8.9135,6.676 L8.9135,6.642 L8.9815,6.642 C9.05,6.642 9.254,6.6075 9.3905,6.267 L9.4245,6.233 L9.4585,6.267 L9.5265,6.267 C9.59783883,6.26924382 9.66413778,6.2303588 9.697,6.167 L9.731,6.133 C9.7675,6.099 9.7995,6.0305 9.8675,5.9625 L9.9015,5.8945 L9.9355,5.9285 L9.9355,5.9625 C9.96522401,6.00833034 10.0175125,6.0343788 10.072,6.0305 C10.1977765,6.02530746 10.3179655,5.97712596 10.4125,5.894 C10.447,5.8595 10.7535,5.519 11.026,5.2805 L11.126,5.1805 C11.1436535,5.16110957 11.1678956,5.14898854 11.194,5.1465 C11.16,5.1125 11.16,5.1125 11.126,5.1125 C10.823549,5.16270188 10.5267815,5.24258793 10.24,5.351 L10.0695,5.351 C9.92205673,5.35053507 9.77866894,5.30268071 9.6605,5.2145 C9.57061611,5.27770144 9.463862,5.31253149 9.354,5.3145 L9.32,5.3145 L9.32,5.3825 L9.354,5.4505 L9.32,5.4505 C9.218,5.4505 8.911,5.487 8.843,5.587 C8.809,5.6235 8.809,5.6555 8.843,5.7235 L8.877,5.7575 L8.843,5.7575 C8.68388639,5.80834004 8.54219864,5.9027408 8.434,6.03 C8.39986659,6.09389372 8.39986659,6.17060628 8.434,6.2345 L8.434,6.2685 L8.4,6.3025 Z M10.24,11.413 L10.24,11.414 C10.24,11.414 10.1055,11.481 10.1395,11.5835 C10.1735,11.686 10.719,12.231 10.787,12.197 C10.821,12.163 10.821,11.9585 10.855,11.9245 C10.889,11.8905 11.0275,12.129 11.1275,12.197 C11.2363218,12.1110218 11.3500105,12.0313897 11.468,11.9585 C11.5720088,12.0215523 11.6642238,12.1022616 11.7405,12.197 C11.843,12.129 12.0815,11.8905 12.1155,11.9245 C12.1495,11.9585 12.1495,12.163 12.1835,12.197 C12.4246859,12.021037 12.6422961,11.8148534 12.831,11.5835 C12.7557656,11.5048816 12.6621033,11.4462782 12.5585,11.413 L11.501,11.413 L11.7055,10.425 L11.535,10.2545 L11.7735,9.3685 L11.603,9.2685 L11.8415,8.2805 L11.637,8.11 L11.8075,7.2925 L11.603,7.1925 L11.7395,6.4425 L11.569,6.3425 L11.603,5.559 C11.5551324,5.40652619 11.473626,5.26675222 11.3645,5.15 C11.2424699,5.25663099 11.1587038,5.40028021 11.126,5.559 L11.16,6.3425 L10.9895,6.4425 L11.126,7.1925 L10.9215,7.2925 L11.126,8.11 L10.9215,8.2805 L11.16,9.2685 L10.9895,9.3685 L11.228,10.2545 L11.0575,10.425 L11.296,11.413 L10.24,11.413 Z M11.7735,3.5775 L11.772,3.5775 C11.6695,3.952 11.497,4.5655 11.397,4.872 L11.397,4.9035 C11.431,4.8715 11.465,4.8375 11.465,4.8035 L11.533,4.7355 C11.669,4.5995 11.8055,4.497 11.8395,4.463 C12.01,4.2225 11.976,4.1225 11.976,4.1225 L11.942,4.0885 L11.976,4.0545 C12.0271694,4.02968962 12.0734171,3.99580847 12.1125,3.9545 C12.1805,3.886 12.1805,3.852 12.1805,3.818 L12.1805,3.748 L12.2145,3.748 C12.2925277,3.71936284 12.3626239,3.67257495 12.419,3.6115 L12.487,3.475 L12.487,3.441 L12.521,3.441 C12.6475148,3.39731517 12.7634969,3.32765782 12.8615,3.2365 C12.9295,3.2365 13.032,3.064 13.066,2.964 C13.034,2.93 13,2.896 12.966,2.896 C12.8931833,2.90102672 12.8228275,2.92442133 12.7615,2.964 L12.6935,2.964 C12.6558734,2.92812252 12.6083029,2.90442438 12.557,2.896 C12.5025125,2.8921212 12.450224,2.91816966 12.4205,2.964 L12.3865,2.93 C12.3525,2.896 12.3525,2.896 12.3185,2.896 C12.2165,2.896 12.114,3.1005 12.08,3.1685 L12.046,3.2365 L12.012,3.2025 C12.0121362,3.19344156 12.0085979,3.18471414 12.0021919,3.17830813 C11.9957859,3.17190213 11.9870584,3.16836376 11.978,3.1685 C11.91,3.1685 11.8415,3.373 11.7735,3.5775 L11.8075,3.6115 L11.7735,3.5775 Z M10.99,3.237 L10.99,3.2365 C10.956,3.2705 10.956,3.3385 10.99,3.475 L10.99,3.5455 C10.9860021,3.58221953 10.9984487,3.6188272 11.024,3.6455 C11.092,3.918 11.1965,4.3265 11.2965,4.7015 L11.2965,4.7355 C11.2965,4.7675 11.3305,4.8015 11.3305,4.8355 C11.3305,4.8035 11.3645,4.7695 11.3645,4.7355 L11.3645,4.7015 C11.4665,4.327 11.569,3.918 11.637,3.6455 L11.637,3.475 C11.6608258,3.39778732 11.6723007,3.31729465 11.671,3.2365 L11.637,3.2365 L11.637,3.2025 C11.669968,2.99793714 11.6583703,2.78866718 11.603,2.589 L11.535,2.589 L11.501,2.623 L11.501,2.555 C11.4752127,2.39718583 11.4171716,2.24638127 11.3305,2.112 C11.2438284,2.24638127 11.1857873,2.39718583 11.16,2.555 L11.16,2.6235 L11.126,2.5895 L11.058,2.5895 C10.99,2.658 10.99,2.8965 10.99,3.237 Z M10.4445,4.8035 C10.204,4.6675 10.138,4.563 10.104,4.463 L10.1715,4.463 L10.1715,4.4945 C10.1715,4.5285 10.1715,4.6645 10.444,4.801 C10.6541743,4.83497822 10.859932,4.89216109 11.0575,4.9715 L10.751,4.8715 C10.581,4.8375 10.4445,4.8035 10.4445,4.8035 Z M7.8555,5.179 L7.855,5.1785 C7.73837869,5.2556191 7.64324127,5.36107884 7.5785,5.485 C7.57337895,5.533086 7.58542176,5.58143434 7.6125,5.6215 L7.783,5.6215 C7.88583856,5.64869403 7.99512154,5.63657129 8.0895,5.5875 C8.27696386,5.53327413 8.4510205,5.44045527 8.6005,5.315 L8.6345,5.281 L8.6685,5.281 C8.72228164,5.30428813 8.78039939,5.31587759 8.839,5.315 C8.96593305,5.31551548 9.08807208,5.26655226 9.1795,5.1785 L9.2135,5.1445 L9.2475,5.1785 C9.26583922,5.19696384 9.2897254,5.20890693 9.3155,5.2125 L9.3835,5.2125 C9.493362,5.21053149 9.60011611,5.17570144 9.69,5.1125 L9.724,5.0785 L9.724,5.1125 C9.724,5.1125 9.792,5.249 10.0645,5.249 L10.201,5.249 C10.4461158,5.15488713 10.6965469,5.07525005 10.951,5.0105 C10.9877195,5.01449792 11.0243272,5.00205131 11.051,4.9765 C11.051,4.9765 11.1535,4.9765 11.1875,5.0105 L11.0875,4.9105 C10.917,4.7405 10.7125,4.57 10.7125,4.57 C10.576,4.3995 10.542,4.263 10.576,4.195 C10.5941183,4.28731634 10.6420799,4.37111741 10.7125,4.4335 C10.7465,4.4675 10.8825,4.5695 11.019,4.706 L11.119,4.806 C11.153,4.838 11.187,4.872 11.187,4.906 L11.187,4.838 C11.119,4.5315 10.9485,3.9185 10.8805,3.5435 C10.8714416,3.54336376 10.8627141,3.54690213 10.8563081,3.55330813 C10.8499021,3.55971414 10.8463638,3.56844156 10.8465,3.5775 L10.8125,3.6115 L10.8125,3.5435 C10.7785,3.373 10.71,3.1685 10.642,3.1685 C10.6329416,3.16836376 10.6242141,3.17190213 10.6178081,3.17830813 C10.6114021,3.18471414 10.6078638,3.19344156 10.608,3.2025 L10.574,3.2365 L10.54,3.1685 C10.506,3.1005 10.4015,2.896 10.3015,2.896 C10.2675,2.896 10.2675,2.896 10.2335,2.93 L10.1655,2.964 L10.1315,2.93 C10.0946901,2.8929751 10.0467269,2.86908132 9.995,2.862 C9.94369713,2.87042438 9.8961266,2.89412252 9.8585,2.93 L9.7905,2.93 C9.72917251,2.89042133 9.65881665,2.86702672 9.586,2.862 C9.52,2.862 9.486,2.896 9.486,2.93 C9.554,3.032 9.6225,3.2025 9.6905,3.2025 C9.78850314,3.29365782 9.90448518,3.36331517 10.031,3.407 L10.065,3.407 L10.065,3.4405 C10.0698564,3.49288642 10.0941085,3.5415688 10.133,3.577 C10.1796941,3.64848954 10.253568,3.69779904 10.3375,3.7135 L10.3715,3.7135 L10.3715,3.784 C10.3715,3.8205 10.3715,3.8525 10.4395,3.9205 C10.4785755,3.9618168 10.5248249,3.99569913 10.576,4.0205 L10.61,4.0545 L10.576,4.0885 L10.576,4.157 C10.3715,4.055 10.3375,3.9185 10.3375,3.8505 C10.233,3.814 10.201,3.748 10.133,3.714 C10.099,3.714 10.099,3.714 10.065,3.782 L10.031,3.85 L9.997,3.782 C9.895,3.646 9.7245,3.4755 9.6565,3.4755 C9.6565,3.4755 9.6225,3.4755 9.6225,3.5435 L9.5885,3.6115 L9.5545,3.5775 C9.45729585,3.49271028 9.3401226,3.43403763 9.214,3.407 C9.182,3.407 9.148,3.441 9.114,3.475 L9.114,3.509 L9.08,3.475 C9.05189121,3.45191758 9.01635304,3.43983461 8.98,3.441 C8.88074525,3.44406898 8.79637039,3.51441575 8.7755,3.6115 L8.7755,3.65 L8.7075,3.65 C8.6735,3.65 8.503,3.65 8.435,3.75 C8.40944869,3.7766728 8.39700208,3.81328047 8.401,3.85 C8.49493365,3.93955141 8.61352392,3.99893362 8.7415,4.0205 L8.7755,4.0205 C8.88739155,4.0444023 9.00159137,4.05580551 9.116,4.0545 L9.2865,4.0545 L9.2865,4.0885 C9.36393144,4.19917963 9.49199229,4.26330408 9.627,4.259 L9.727,4.259 L9.727,4.329 C9.66260335,4.30123639 9.59241588,4.28956708 9.5225,4.295 C9.454,4.295 9.42,4.295 9.386,4.329 C9.386,4.361 9.352,4.361 9.352,4.429 L9.352,4.495 L9.284,4.461 C9.14157042,4.40766796 8.99252842,4.37402417 8.841,4.361 C8.775,4.361 8.741,4.361 8.741,4.395 L8.741,4.568 L8.5025,4.568 C8.39105165,4.55883625 8.28059974,4.59487276 8.196,4.668 C8.17044869,4.6946728 8.15800208,4.73128047 8.162,4.768 L8.162,4.8045 L8.128,4.8045 C8.050118,4.81581661 7.98036151,4.85878022 7.93521104,4.92324033 C7.89006056,4.98770044 7.87352102,5.06793935 7.8895,5.145 L7.8895,5.179 L7.8555,5.179 Z M13.92,12.879 C15.1350428,12.0468777 16.5443685,11.5425998 18.0115,11.415 C16.7165,10.904 15.0475,11.415 14.2975,11.824 C13.2363449,12.4370458 12.2323215,13.1440456 11.2975,13.9365 C10.3565434,13.1520115 9.353223,12.4455067 8.2975,11.824 C7.5475,11.415 5.878,10.904 4.5835,11.415 C4.5835,11.415 6.355,11.279 8.672,12.812 C9.4215,13.3215 10.137,13.901 10.7505,14.412 C10.41,14.718 10.0005,15.093 9.66,15.468 C9.626,15.434 9.626,15.434 9.592,15.468 L9.592,15.501 C9.558,15.467 9.524,15.467 9.524,15.433 C9.55087345,15.3470524 9.52415822,15.2533527 9.456,15.1945 C9.36528778,15.1260818 9.24021222,15.1260818 9.1495,15.1945 C9.11269213,15.2393838 9.09554743,15.2972184 9.10194724,15.3549108 C9.10834705,15.4126032 9.13775014,15.4652743 9.1835,15.501 C9.23789604,15.5533925 9.31306139,15.5783863 9.388,15.569 C9.42760991,15.6023906 9.4413196,15.657431 9.422,15.7055 C9.22047967,15.9480194 8.91977179,16.0859588 8.6045,16.0805 C8.3532714,16.082187 8.1149478,15.9693744 7.957,15.774 C7.8932557,15.699098 7.79985471,15.6559396 7.7015,15.6559396 C7.60314529,15.6559396 7.5097443,15.699098 7.446,15.774 C7.0715,16.319 7.855,16.83 8.366,16.83 C8.90933821,16.8258675 9.43164436,16.6194407 9.831,16.251 C9.9015,16.183 9.9335,16.149 10.0015,16.183 C10.0355,16.183 10.0695,16.249 10.0695,16.283 C10.0375,16.351 10.0695,16.4195 10.1375,16.4875 C10.2282122,16.5559182 10.3532878,16.5559182 10.444,16.4875 C10.4808079,16.4426162 10.4979526,16.3847816 10.4915528,16.3270892 C10.4851529,16.2693968 10.4557499,16.2167257 10.41,16.181 C10.376,16.113 10.3075,16.113 10.2395,16.113 C10.2735,16.079 10.2735,16.079 10.2395,16.045 L10.1715,15.977 C10.376,15.807 10.819,15.364 11.33,14.921 C11.841,15.398 12.284,15.8065 12.4545,15.977 L12.4205,16.011 L12.3525,16.079 C12.3185,16.113 12.3185,16.113 12.3525,16.147 C12.282,16.147 12.216,16.147 12.182,16.215 C12.1362501,16.2507257 12.1068471,16.3033968 12.1004472,16.3610892 C12.0940474,16.4187816 12.1111921,16.4766162 12.148,16.5215 C12.2387122,16.5899182 12.3637878,16.5899182 12.4545,16.5215 C12.5225,16.4535 12.5565,16.385 12.5225,16.317 C12.5225,16.285 12.5565,16.217 12.5905,16.217 C12.661,16.185 12.693,16.217 12.761,16.285 C13.1603556,16.6534407 13.6826618,16.8598675 14.226,16.864 C14.737,16.864 15.521,16.353 15.146,15.808 C15.0822557,15.733098 14.9888547,15.6899396 14.8905,15.6899396 C14.7921453,15.6899396 14.6987443,15.733098 14.635,15.808 C14.4770522,16.0033744 14.2387286,16.116187 13.9875,16.1145 C13.6722282,16.1199588 13.3715203,15.9820194 13.17,15.7395 C13.1506804,15.691431 13.1643901,15.6363906 13.204,15.603 C13.2789386,15.6123863 13.354104,15.5873925 13.4085,15.535 C13.4542499,15.4992743 13.4836529,15.4466032 13.4900528,15.3889108 C13.4964526,15.3312184 13.4793079,15.2733838 13.4425,15.2285 C13.3517878,15.1600818 13.2267122,15.1600818 13.136,15.2285 C13.0678418,15.2873527 13.0411266,15.3810524 13.068,15.467 C13.068,15.501 13.034,15.501 13,15.535 L13,15.501 C12.966,15.467 12.966,15.467 12.932,15.501 C12.557,15.1605 12.182,14.7855 11.8415,14.479 C12.4914447,13.8921553 13.1864083,13.357182 13.92,12.879 Z" id="Combined-Shape"></path>
            <path d="M1.5525,19.25 L1.5865,19.0795 C2.16451325,15.9218363 2.43776899,12.715937 2.4025,9.506 C2.43640331,6.31845886 2.16297221,3.13507114 1.586,0 L0.8025,0.7835 C1.39213511,3.95124194 1.66597675,7.16967681 1.62,10.3915 C1.66600986,13.61349 1.39216808,16.832094 0.8025,20 L1.5525,19.25 Z" id="Path_544-path"></path>
        </g>
    </g>
</svg>