<?xml version="1.0" encoding="UTF-8"?>
<svg width="74px" height="63px" viewBox="0 0 74 63" version="1.1" xmlns="http://www.w3.org/2000/svg" xmlns:xlink="http://www.w3.org/1999/xlink">
    <!-- Generator: sketchtool 60.1 (101010) - https://sketch.com -->
    <title>7073D8BC-3C3C-4C91-B81E-566C9F0B0ACB</title>
    <desc>Created with sketchtool.</desc>
    <g id="Page-v.4" stroke="none" stroke-width="1" fill="none" fill-rule="evenodd">
        <g id="QR-Public-Webpage-2" transform="translate(-371.000000, -993.000000)">
            <g id="Group-5" transform="translate(91.000000, 900.000000)">
                <g id="Group-8">
                    <g id="Group-14" transform="translate(280.000000, 93.000000)">
                        <g id="Group-10" transform="translate(51.000000, 11.000000)">
                            <path d="M0.93012013,6.5582286 L5.41162419,6.5582286 L5.41162419,2.02879401 L0.93012013,2.02879401 L0.93012013,6.5582286 Z M0.337884357,7.1561 L6.00455102,7.1561 L6.00455102,1.42882727 L0.337884357,1.42882727 L0.337884357,7.1561 Z" id="Fill-1" fill="#085451"></path>
                            <path d="M11.454693,5.5582286 L15.9367437,5.5582286 L15.9367437,1.02879401 L11.454693,1.02879401 L11.454693,5.5582286 Z M10.8616939,6.1561 L16.5283605,6.1561 L16.5283605,0.428827273 L10.8616939,0.428827273 L10.8616939,6.1561 Z" id="Fill-2" fill="#085451"></path>
                            <path d="M0.93012013,18.0120026 L5.41162419,18.0120026 L5.41162419,13.4820156 L0.93012013,13.4820156 L0.93012013,18.0120026 Z M0.337884357,18.6106455 L6.00455102,18.6106455 L6.00455102,12.8833727 L0.337884357,12.8833727 L0.337884357,18.6106455 Z" id="Fill-3" fill="#085451"></path>
                            <polygon id="Fill-4" fill="#E18431" points="1.14740817 5.51973636 4.3855034 5.51973636 4.3855034 2.24700909 1.14740817 2.24700909"></polygon>
                            <polygon id="Fill-6" fill="#085451" points="13.2902653 17.6106455 13.2902653 16.9844784 15.7279641 16.9844784 15.7279641 13.5197364 16.5283605 13.5197364 16.5283605 17.6106455"></polygon>
                            <polygon id="Fill-7" fill="#085451" points="0.337884357 11.2470091 0.337884357 7.97428182 1.31861294 7.97428182 1.31861294 10.0509273 1.95693198 10.0509273 1.95693198 11.2470091"></polygon>
                            <polygon id="Fill-8" fill="#E18431" points="11.6712177 4.51973636 14.9093129 4.51973636 14.9093129 1.24700909 11.6712177 1.24700909"></polygon>
                            <polygon id="Fill-9" fill="#E18431" points="11.6712177 4.51973636 14.9093129 4.51973636 14.9093129 1.24700909 11.6712177 1.24700909"></polygon>
                            <polygon id="Fill-10" fill="#E18431" points="1.14740817 17.7924636 4.3855034 17.7924636 4.3855034 14.5197364 1.14740817 14.5197364"></polygon>
                            <polygon id="Fill-12" fill="#085451" points="13.2902653 12.7015545 13.2902653 10.5332348 15.8954936 10.5332348 15.8954936 8.61064545 16.5283605 8.61064545 16.5283605 11.0692028 13.9223946 11.0692028 13.9223946 12.7015545"></polygon>
                            <polygon id="Fill-13" fill="#085451" points="7.62359864 16.9742818 7.62359864 15.3379182 9.24264626 15.3379182 9.24264626 16.3273743 8.21529323 16.3273743 8.21529323 16.9742818"></polygon>
                            <polygon id="Fill-14" fill="#085451" points="4.3855034 11.2470091 6.00455102 11.2470091 6.00455102 9.61064545 4.3855034 9.61064545"></polygon>
                            <polygon id="Fill-15" fill="#085451" points="5.25371769 10.3699182 5.94586055 10.3699182 5.94586055 9.66955455 5.25371769 9.66955455"></polygon>
                            <polygon id="Fill-16" fill="#085451" points="13.2902653 8.61064545 13.2902653 7.61332912 14.4681526 7.61332912 14.4681526 5.33791818 16.5283605 5.33791818 16.5283605 6.33624089 15.192108 6.33624089 15.192108 8.61064545"></polygon>
                            <polygon id="Fill-17" fill="#085451" points="11.3876414 15.9742818 11.3876414 14.8377402 10.0521701 14.8377402 10.0521701 14.3379182 12.1111625 14.3379182 12.1111625 15.4762074 13.2902653 15.4762074 13.2902653 15.9742818"></polygon>
                            <polygon id="Fill-18" fill="#085451" points="6.00455102 7.1561 6.00455102 1.42882727 9.24264626 1.42882727 9.24264626 2.03363179 6.85134573 2.03363179 6.85134573 7.1561"></polygon>
                            <polygon id="Fill-19" fill="#085451" points="7.62359864 16.1561 7.62359864 14.0743235 9.87250594 14.0743235 9.87250594 12.8833727 10.8616939 12.8833727 10.8616939 14.8062194 8.61094624 14.8062194 8.61094624 16.1561"></polygon>
                            <polygon id="Fill-20" fill="#085451" points="10.0521701 13.5197364 10.0521701 10.2470091 11.0331308 10.2470091 11.0331308 12.3227145 11.6712177 12.3227145 11.6712177 13.5197364"></polygon>
                            <polygon id="Fill-21" fill="#085451" points="7.62359864 11.2470091 7.62359864 10.621355 10.0590221 10.621355 10.0590221 7.1561 10.8616939 7.1561 10.8616939 11.2470091"></polygon>
                            <polygon id="Fill-22" fill="#085451" points="11.6712177 10.2470091 13.2902653 10.2470091 13.2902653 8.61064545 11.6712177 8.61064545"></polygon>
                            <polygon id="Fill-23" fill="#085451" points="11.7295034 9.37073636 12.4224558 9.37073636 12.4224558 8.66873636 11.7295034 8.66873636"></polygon>
                            <polygon id="Fill-24" fill="#085451" points="13.2902653 15.9742818 14.9093129 15.9742818 14.9093129 14.3379182 13.2902653 14.3379182"></polygon>
                            <polygon id="Fill-25" fill="#085451" points="14.1584796 15.0967818 14.8506225 15.0967818 14.8506225 14.3972364 14.1584796 14.3972364"></polygon>
                            <polygon id="Fill-26" fill="#085451" points="10.0521701 8.61064545 11.6712177 8.61064545 11.6712177 6.97428182 10.0521701 6.97428182"></polygon>
                            <polygon id="Fill-27" fill="#085451" points="11.7299082 7.73314545 12.422051 7.73314545 12.422051 7.0336 11.7299082 7.0336"></polygon>
                            <polygon id="Fill-28" fill="#085451" points="10.0521701 10.2470091 11.6712177 10.2470091 11.6712177 8.61064545 10.0521701 8.61064545"></polygon>
                            <polygon id="Fill-29" fill="#085451" points="11.7295034 11.0062818 12.4224558 11.0062818 12.4224558 10.3059182 11.7295034 10.3059182"></polygon>
                            <polygon id="Fill-30" fill="#085451" points="6.00455102 18.6106455 7.62359864 18.6106455 7.62359864 16.9742818 6.00455102 16.9742818"></polygon>
                            <polygon id="Fill-31" fill="#085451" points="6.87195579 17.7335545 7.56571769 17.7335545 7.56571769 17.0331909 6.87195579 17.0331909"></polygon>
                            <polygon id="Fill-32" fill="#085451" points="9.24264626 6.1561 10.8616939 6.1561 10.8616939 4.51973636 9.24264626 4.51973636"></polygon>
                            <polygon id="Fill-33" fill="#085451" points="8.4910034 4.46041818 9.18476531 4.46041818 9.18476531 3.76087273 8.4910034 3.76087273"></polygon>
                            <polygon id="Fill-34" fill="#085451" points="9.24264626 2.88337273 10.8616939 2.88337273 10.8616939 1.24700909 9.24264626 1.24700909"></polygon>
                            <polygon id="Fill-35" fill="#085451" points="8.4910034 3.64305455 9.18476531 3.64305455 9.18476531 2.94187273 8.4910034 2.94187273"></polygon>
                            <polygon id="Fill-36" fill="#085451" points="9.24264626 17.6106455 10.8616939 17.6106455 10.8616939 15.9742818 9.24264626 15.9742818"></polygon>
                            <polygon id="Fill-37" fill="#085451" points="8.4910034 16.7335545 9.18476531 16.7335545 9.18476531 16.0331909 8.4910034 16.0331909"></polygon>
                            <polygon id="Fill-38" fill="#085451" points="1.14740817 11.2470091 1.14740817 8.64411281 3.39745883 8.64411281 3.39745883 7.1561 4.3855034 7.1561 4.3855034 9.55929325 2.13626328 9.55929325 2.13626328 11.2470091"></polygon>
                            <polygon id="Fill-39" fill="#085451" points="6.00455102 9.61064545 7.62359864 9.61064545 7.62359864 7.97428182 6.00455102 7.97428182"></polygon>
                            <polygon id="Fill-40" fill="#085451" points="6.87195579 8.73437273 7.56571769 8.73437273 7.56571769 8.03237273 6.87195579 8.03237273"></polygon>
                        </g>
                        <g id="Group-3" transform="translate(5.000000, 26.000000)">
                            <path d="M0.823911317,4.77021235 L4.90860109,4.77021235 L4.90860109,0.699198124 L0.823911317,0.699198124 L0.823911317,4.77021235 Z M0.284114997,5.30686316 L5.44902728,5.30686316 L5.44902728,0.160664327 L0.284114997,0.160664327 L0.284114997,5.30686316 Z" id="Fill-41" fill="#085451"></path>
                            <path d="M9.08720686,4.77021235 L13.1730248,4.77021235 L13.1730248,0.699198124 L9.08720686,0.699198124 L9.08720686,4.77021235 Z M8.54797465,5.30686316 L13.7128869,5.30686316 L13.7128869,0.160664327 L8.54797465,0.160664327 L8.54797465,5.30686316 Z" id="Fill-42" fill="#085451"></path>
                            <path d="M0.823911317,14.0315529 L4.90860109,14.0315529 L4.90860109,9.96166276 L0.823911317,9.96166276 L0.823911317,14.0315529 Z M0.284114997,14.5700211 L5.44902728,14.5700211 L5.44902728,9.42382222 L0.284114997,9.42382222 L0.284114997,14.5700211 Z" id="Fill-43" fill="#085451"></path>
                            <polygon id="Fill-44" fill="#E18431" points="1.31709745 4.27762339 4.41604482 4.27762339 4.41604482 1.18990409 1.31709745 1.18990409"></polygon>
                            <polygon id="Fill-45" fill="#E18431" points="1.31709745 4.27762339 4.41604482 4.27762339 4.41604482 1.18990409 1.31709745 1.18990409"></polygon>
                            <polygon id="Fill-46" fill="#085451" points="12.6799045 15.5992608 12.6799045 14.9698418 15.0128501 14.9698418 15.0128501 11.4823018 15.7788518 11.4823018 15.7788518 15.5992608"></polygon>
                            <polygon id="Fill-47" fill="#085451" points="0.284114997 9.42382222 0.284114997 6.33610292 0.909838051 6.33610292 0.909838051 8.296328 1.31709745 8.296328 1.31709745 9.42382222"></polygon>
                            <polygon id="Fill-48" fill="#E18431" points="9.5809571 4.27762339 12.6799045 4.27762339 12.6799045 1.18990409 9.5809571 1.18990409"></polygon>
                            <polygon id="Fill-49" fill="#E18431" points="9.5809571 4.27762339 12.6799045 4.27762339 12.6799045 1.18990409 9.5809571 1.18990409"></polygon>
                            <polygon id="Fill-50" fill="#E18431" points="1.31709745 13.5407813 4.41604482 13.5407813 4.41604482 10.453062 1.31709745 10.453062"></polygon>
                            <polygon id="Fill-51" fill="#E18431" points="1.31709745 13.5407813 4.41604482 13.5407813 4.41604482 10.453062 1.31709745 10.453062"></polygon>
                            <polygon id="Fill-52" fill="#085451" points="11.646922 11.4823018 11.646922 9.30017466 14.1400601 9.30017466 14.1400601 7.36534269 14.7458694 7.36534269 14.7458694 9.8395556 12.2513191 9.8395556 12.2513191 11.4823018"></polygon>
                            <polygon id="Fill-53" fill="#085451" points="6.48200973 13.5407813 6.48200973 12.5115415 7.51499219 12.5115415 7.51499219 13.134177 6.85908137 13.134177 6.85908137 13.5407813"></polygon>
                            <polygon id="Fill-54" fill="#085451" points="5.44902728 8.39458246 6.48200973 8.39458246 6.48200973 7.36534269 5.44902728 7.36534269"></polygon>
                            <polygon id="Fill-55" fill="#085451" points="4.48990307 8.32099181 5.37516903 8.32099181 5.37516903 7.43893333 4.48990307 7.43893333"></polygon>
                            <polygon id="Fill-56" fill="#085451" points="11.646922 8.39458246 11.646922 7.45298469 12.7741929 7.45298469 12.7741929 5.30686316 14.7458694 5.30686316 14.7458694 6.24846093 13.4670385 6.24846093 13.4670385 8.39458246"></polygon>
                            <polygon id="Fill-57" fill="#085451" points="9.82605787 13.5407813 9.82605787 12.8258076 8.54797465 12.8258076 8.54797465 12.5115415 10.5184878 12.5115415 10.5184878 13.2272477 11.646922 13.2272477 11.646922 13.5407813"></polygon>
                            <polygon id="Fill-58" fill="#085451" points="6.48200973 5.30686316 6.48200973 0.160664327 9.5809571 0.160664327 9.5809571 0.704106987 7.29323116 0.704106987 7.29323116 5.30686316"></polygon>
                            <polygon id="Fill-59" fill="#085451" points="6.48200973 11.4823018 6.48200973 9.51820853 8.63400758 9.51820853 8.63400758 8.39458246 9.5809571 8.39458246 9.5809571 10.2087302 7.42631661 10.2087302 7.42631661 11.4823018"></polygon>
                            <polygon id="Fill-60" fill="#085451" points="10.6139396 11.4823018 10.6139396 8.39458246 11.2398107 8.39458246 11.2398107 10.3526484 11.646922 10.3526484 11.646922 11.4823018"></polygon>
                            <polygon id="Fill-61" fill="#085451" points="6.48200973 9.42382222 6.48200973 8.79356866 8.81221436 8.79356866 8.81221436 5.30686316 9.5809571 5.30686316 9.5809571 9.42382222"></polygon>
                            <polygon id="Fill-62" fill="#085451" points="10.6139396 7.36534269 11.646922 7.36534269 11.646922 6.33610292 10.6139396 6.33610292"></polygon>
                            <polygon id="Fill-63" fill="#085451" points="10.6883143 8.32099181 11.5725473 8.32099181 11.5725473 7.43893333 10.6883143 7.43893333"></polygon>
                            <polygon id="Fill-64" fill="#085451" points="12.6799045 13.5407813 13.7128869 13.5407813 13.7128869 12.5115415 12.6799045 12.5115415"></polygon>
                            <polygon id="Fill-65" fill="#085451" points="12.7537627 13.466676 13.6390287 13.466676 13.6390287 12.5856468 12.7537627 12.5856468"></polygon>
                            <polygon id="Fill-66" fill="#085451" points="10.6139396 7.36534269 11.646922 7.36534269 11.646922 6.33610292 10.6139396 6.33610292"></polygon>
                            <polygon id="Fill-67" fill="#085451" points="9.65481535 7.29123743 10.5400813 7.29123743 10.5400813 6.41020819 9.65481535 6.41020819"></polygon>
                            <polygon id="Fill-68" fill="#085451" points="9.5809571 8.39458246 10.6139396 8.39458246 10.6139396 7.36534269 9.5809571 7.36534269"></polygon>
                            <polygon id="Fill-69" fill="#085451" points="9.65533184 9.35023158 10.5395648 9.35023158 10.5395648 8.4681731 9.65533184 8.4681731"></polygon>
                            <polygon id="Fill-70" fill="#085451" points="6.48200973 15.5992608 7.51499219 15.5992608 7.51499219 14.5700211 6.48200973 14.5700211"></polygon>
                            <polygon id="Fill-71" fill="#085451" points="5.52340201 14.4954012 6.407635 14.4954012 6.407635 13.6154012 5.52340201 13.6154012"></polygon>
                            <polygon id="Fill-72" fill="#085451" points="7.51499219 3.24838363 8.54797465 3.24838363 8.54797465 2.21914386 7.51499219 2.21914386"></polygon>
                            <polygon id="Fill-73" fill="#085451" points="7.58885044 4.20351813 8.4741164 4.20351813 8.4741164 3.32248889 7.58885044 3.32248889"></polygon>
                            <polygon id="Fill-74" fill="#085451" points="7.51499219 2.21914386 8.54797465 2.21914386 8.54797465 1.18990409 7.51499219 1.18990409"></polygon>
                            <polygon id="Fill-75" fill="#085451" points="7.58885044 3.17427836 8.4741164 3.17427836 8.4741164 2.29324912 7.58885044 2.29324912"></polygon>
                            <polygon id="Fill-76" fill="#085451" points="7.51499219 15.5992608 8.54797465 15.5992608 8.54797465 14.5700211 7.51499219 14.5700211"></polygon>
                            <polygon id="Fill-77" fill="#085451" points="8.62286587 14.4954012 9.50606587 14.4954012 9.50606587 13.6154012 8.62286587 13.6154012"></polygon>
                            <polygon id="Fill-78" fill="#085451" points="2.35007991 9.42382222 2.35007991 6.8043513 4.50344108 6.8043513 4.50344108 5.30686316 5.44902728 5.30686316 5.44902728 7.72535939 3.29644181 7.72535939 3.29644181 9.42382222"></polygon>
                            <polygon id="Fill-79" fill="#085451" points="6.48200973 7.36534269 7.51499219 7.36534269 7.51499219 6.33610292 6.48200973 6.33610292"></polygon>
                            <polygon id="Fill-80" fill="#085451" points="5.52340201 7.29123743 6.407635 7.29123743 6.407635 6.41020819 5.52340201 6.41020819"></polygon>
                        </g>
                        <path d="M28.8077931,50 L28.8077931,47.990115 L70.1817959,47.990115 C71.1603942,47.9876238 71.9557268,47.2048947 71.9567394,46.2373199 L71.9567394,3.76018893 C71.9557268,2.79410885 71.1603942,2.01337266 70.1817959,2.01137972 L15.8202291,2.01137972 C14.838087,2.01337266 14.0427544,2.79410885 14.0417419,3.76018893 L14.0417419,13.1419774 L12,13.1419774 L12,3.76018893 C12,1.68254379 13.7096361,0.00249118122 15.8202291,0 L70.1817959,0 C72.2913765,0.00249118122 74,1.68254379 74,3.76018893 L74,46.2373199 C74,48.3144668 72.2913765,49.9970106 70.1817959,50 L28.8077931,50 Z" id="Fill-81" fill="#085451"></path>
                        <polygon id="Fill-83" fill="#085451" points="13 8 73 8 73 6 13 6"></polygon>
                        <polygon id="Fill-85" fill="#085451" points="29 46 73 46 73 44 29 44"></polygon>
                        <polygon id="Fill-86" fill="#085451" points="42 57 44 57 44 50 42 50"></polygon>
                        <path d="M34.0387037,59.8697948 L51.9607906,59.8697948 L51.9607906,57.1328455 L34.0387037,57.1328455 L34.0387037,59.8697948 Z M32,62 L32,56.0651026 L32,55 L54,55 L54,62 L32,62 Z" id="Fill-87" fill="#085451"></path>
                        <path d="M25.947596,60.9911507 L25.9486136,18.0098455 L2.05342152,18.0098455 L2.05342152,60.9911507 L25.947596,60.9911507 Z M1.96438565,63 C0.878148054,62.9975095 0.00203510557,62.1392781 0,61.0783187 L0,17.9236737 C0.00101755279,16.8607219 0.879674383,16 1.96438565,16 L26.0361231,16 C27.1213432,16 27.9989824,16.8582314 28,17.9236737 L28,61.0783187 C27.9989824,62.1392781 27.1223607,62.9975095 26.0361231,63 L1.96438565,63 Z" id="Fill-88" fill="#085451"></path>
                        <polygon id="Fill-89" fill="#085451" points="1 24 27 24 27 22 1 22"></polygon>
                        <polygon id="Fill-90" fill="#085451" points="16.9303091 23 16.929283 20.8388604 9.070717 20.8388604 9.070717 23 7 23 7 19 19 19 19 23"></polygon>
                        <polygon id="Fill-91" fill="#085451" points="4 47 23 47 23 45 4 45"></polygon>
                        <polygon id="Fill-92" fill="#085451" points="4 51 23 51 23 49 4 49"></polygon>
                        <polygon id="Fill-93" fill="#085451" points="29 36 68 36 68 34 29 34"></polygon>
                        <polygon id="Fill-94" fill="#085451" points="29 41 68 41 68 39 29 39"></polygon>
                        <polygon id="Fill-95" fill="#085451" points="1 58 27 58 27 56 1 56"></polygon>
                    </g>
                </g>
            </g>
        </g>
    </g>
</svg>