<svg width="158" height="95" xmlns="http://www.w3.org/2000/svg"><g fill="#FFF" fill-rule="nonzero"><path d="M107.339 1a137.489 137.489 0 01-26.212 2.17A140.375 140.375 0 0154.921 1a138.246 138.246 0 012.18 26.09c.1 8.75-.63 17.488-2.18 26.1a140.967 140.967 0 0126.209-2.17c8.785-.098 17.56.628 26.209 2.17a139.006 139.006 0 01-2.172-26.1c-.094-8.745.633-17.48 2.172-26.09zm-17.45 13.104v.119h.118a.841.841 0 01.68.966v.068h.06c.329.191.583.489.72.844l.043.016c.031.13.01.266-.06.38a4.783 4.783 0 01-.492 0c-.3.041-.603-.034-.848-.211-.5-.16-.967-.413-1.376-.743l-.059-.051h-.068a1.121 1.121 0 01-.5.118 1.483 1.483 0 01-.935-.396l-.084-.068-.076.093a.65.65 0 01-.195.127h-.222a1.636 1.636 0 01-.848-.32l-.11-.076-.052.127a.97.97 0 01-.959.388 3.01 3.01 0 01-.39 0 17.344 17.344 0 00-2.045-.634l-.297-.051c.276-.115.56-.214.848-.296.484-.138.9-.228.9-.228.449-.183.777-.58.874-1.055.248.008.494-.05.712-.168h.051a3.15 3.15 0 01.97-.211.467.467 0 01.373.118c.057.071.08.164.06.253v.187l.17-.068c.38-.16.784-.263 1.196-.304a.345.345 0 01.298.093.287.287 0 010 .236l-.043.177h.17c.16-.017.323-.017.484 0a1.04 1.04 0 01.848.244.39.39 0 01.083.326zm-2.36 5.11a1.391 1.391 0 01-1.197-.988l-.067-.119-.103.076a.571.571 0 01-.17 0 .709.709 0 01-.484-.244l-.093-.093a3.276 3.276 0 01-.357-.49l-.084-.152-.051.084v.068a.416.416 0 01-.348.138 1.719 1.719 0 01-.934-.396 18.8 18.8 0 00-1.697-1.69l-.323-.151-.203-.138h.152c.841.153 1.666.387 2.461.7.145.008.29.008.434 0 .41.043.816-.11 1.094-.414.25.176.543.28.848.304h.068a.507.507 0 010 .16l-.051.16h.152c.49-.042.978.11 1.357.422.06.12.06.26 0 .38l-.06.127h.128c.442.134.827.41 1.095.786.082.162.097.35.042.523v.093l.035.017c.432.362.594.954.407 1.485v.052l-.008.033s.755 1.13.339 1.689a2.075 2.075 0 01-1.154-.844 5.958 5.958 0 01-1.087-1.511v-.076l-.14.008zm-1.086 1.688a.768.768 0 01-.212.967l-.06.043v.076c.064.312.032.636-.092.93a.46.46 0 01-.238.16 1.996 1.996 0 01-.62-1.03v-.058a3.907 3.907 0 01-.305-1.38v-.076h-.06a1.176 1.176 0 01-.611-1.15v-.033h-.103c-.025 0-.484-.024-.593-.966v-.138h-.12s-.398.092-.933-.752a15.068 15.068 0 00-.849-1.976 18.248 18.248 0 011.877 1.833c.304.245.672.397 1.06.439a.664.664 0 00.416-.138c.086.137.183.266.29.388h-.052l-.152.109.162.1c.404.188.733.506.934.904a.182.182 0 01-.128.138l-.152.076.127.119c.307.254.516.606.594.995v.009a.37.37 0 01-.138.244l-.093.06.051.107zm-10.413.938a.752.752 0 01-.204-.996l.06-.1-.084-.06a.335.335 0 01-.153-.244c.078-.39.288-.742.594-.996l.127-.119-.162-.076a.198.198 0 01-.127-.138 1.99 1.99 0 01.942-.903l.152-.1-.138-.11h-.043c.085-.109.179-.236.277-.388.119.092.265.14.415.138.382-.04.744-.19 1.043-.43a19.262 19.262 0 011.885-1.833 13.592 13.592 0 00-.848 1.976c-.534.878-.943.751-.943.751l-.119-.043v.138c-.102.967-.585.967-.585.967h-.11v.138c.041.47-.198.92-.612 1.15h-.06v.083c-.029.475-.135.941-.314 1.381-.092.4-.309.761-.62 1.03a.372.372 0 01-.23-.16 1.516 1.516 0 01-.092-.929v-.076l-.051-.051zm-2.98-3.513l.069-.051v-.093a.699.699 0 010-.523c.267-.381.658-.658 1.107-.786h.119l-.06-.127a.427.427 0 010-.38 1.905 1.905 0 011.367-.422h.152l-.043-.16a.51.51 0 010-.16h.06c.306-.02.6-.125.848-.305.278.304.684.458 1.095.415.144.008.288.008.433 0a13.19 13.19 0 012.461-.7l.025-.043h.162l-.277.168-.314.245a17.757 17.757 0 00-1.698 1.689c-.264.223-.59.36-.934.396a.434.434 0 01-.339-.138l-.042-.068-.052-.092-.092.16c-.104.172-.22.336-.348.49l-.092.093a.709.709 0 01-.485.244.353.353 0 01-.162-.043l-.11-.084-.06.127a1.405 1.405 0 01-1.145.996h-.139v.076a6.582 6.582 0 01-1.086 1.51c-.276.41-.687.708-1.162.844-.425-.552.339-1.689.339-1.689v-.1a1.353 1.353 0 01.402-1.49h.002zm4.651 14.041h2.954l-.628-2.719.484-.482-.628-2.456.501-.245-.661-2.693.593-.422-.517-2.297.585-.32-.373-2.044.492-.32-.076-2.21c.136-.42.378-.799.704-1.098.333.296.577.679.705 1.105l-.077 2.21.485.312-.374 2.043.594.32-.526 2.297.594.423-.645 2.693.5.244-.636 2.457.484.482-.543 2.71h2.905l.06.052c.19.063.297.263.246.455a7.855 7.855 0 01-1.782 1.69c-.091-.247-.16-.501-.203-.76-.06-.076-.692.607-.994.768a3.899 3.899 0 00-.764-.634c-.45.287-.942.634-.942.634-.29-.152-.739-.829-.789-.752a4.752 4.752 0 01-.22.752 7.786 7.786 0 01-1.765-1.73c-.133-.296.257-.465.257-.465zm9.226-22.342a.29.29 0 01.29.203l.042.109.093-.051a.606.606 0 01.277-.06c.272.01.51.184.603.44v.067h.068c.286-.02.568.07.789.253a.397.397 0 01.102.276c-.272.247-.602.42-.959.507h-.138a3.515 3.515 0 01-.934.138h-.45v.068a1.031 1.031 0 01-.916.49h-.33v.211a.526.526 0 01-.153.253l-.092.076c-.08.046-.166.083-.255.11h-.101c-.124.008-.25.008-.374 0h-.092v.108c-.102.418-.43.743-.848.844l.024-.076c-.532.116-1.057.265-1.57.447-.2.068-.396.15-.585.245.076-.093.162-.195.254-.287.338-.342.696-.665 1.07-.967.317-.296.472-.727.415-1.157a.952.952 0 00.62-.844c.204-.08.385-.211.526-.38a.19.19 0 01.186.16l.196.093.119-.152c.22-.37.549-.665.942-.844.025 0 .084 0 .138.16v.177l.139-.119c.246-.25.56-.423.903-.498h.001zm-4.582.7l.138.127.043-.186c.026-.389.192-.754.466-1.03a.15.15 0 01.103.075l.119.139.06-.169c.106-.328.342-.6.652-.751a.21.21 0 01.162.076l.085.076.067-.093a.504.504 0 01.399-.203.589.589 0 01.382.152l.06.043h.059c.164-.101.35-.16.544-.169a.34.34 0 01.33.187 1.623 1.623 0 01-.62.768 3.193 3.193 0 01-.959.59h-.067v.177a.85.85 0 01-.153.389c-.136.19-.33.331-.553.404h-.068v.138a.582.582 0 01-.187.388 1.58 1.58 0 01-.398.276l-.093.043.06.11a.98.98 0 01-.34.987 6.4 6.4 0 00-.847.71l-.025.024-.255.253-.23.245v-.139c.277-.937.756-2.634.95-3.714a.19.19 0 01.114.078l.002-.001zm-2.004-2.71a.089.089 0 01.076-.044h.085l.127.076v-.16c.067-.427.236-.833.493-1.182.259.349.43.754.5 1.182v.16l.128-.076h.076c.033 0 .065.016.084.043.194.541.242 1.124.139 1.69v.137h.084c.01.21-.01.42-.06.624a.622.622 0 000 .177l-.059-.008c-.036.095-.06.194-.068.295-.17.778-.441 1.85-.755 2.93v.068a.921.921 0 00-.093.32l-.102-.311v-.068c-.306-1.081-.586-2.153-.747-2.93l-.068-.304v-.177a2.232 2.232 0 01-.06-.624h.076v-.138a3.099 3.099 0 01.143-1.68h.001zm-3.769.777c.192.013.378.07.544.168h.06l.059-.043a.566.566 0 01.374-.152c.158.007.306.08.406.203l.068.093.085-.076a.213.213 0 01.152-.068c.308.153.541.424.645.752l.067.168.111-.138a.13.13 0 01.11-.076c.272.278.434.643.459 1.03v.187l.138-.127a.191.191 0 01.12-.068l.05-.033c.195 1.081.671 2.778.943 3.706l.042.138a3.022 3.022 0 00-.22-.244l-.262-.253c-.407-.355-.78-.658-.849-.71a1.007 1.007 0 01-.347-.987l.068-.1-.17-.153a1.582 1.582 0 01-.399-.276.573.573 0 01-.178-.388v-.138h-.068a1.042 1.042 0 01-.554-.405.94.94 0 01-.138-.388v-.08h-.06a3.071 3.071 0 01-.968-.59 1.605 1.605 0 01-.612-.769.325.325 0 01.324-.182v-.001zm-3.36 2.313c.22-.183.502-.274.788-.253h.119v-.068a.667.667 0 01.612-.439.571.571 0 01.262.06l.103.05.051-.108a.277.277 0 01.277-.203c.345.075.662.245.916.49l.119.119.06-.177c.034-.169.127-.169.127-.169.392.18.721.474.942.844l.11.152.077-.177a.19.19 0 01.186-.16c.139.17.32.302.526.38a.985.985 0 00.62.844c-.042.428.11.852.415 1.157.374.302.732.625 1.07.967.093.087.179.183.254.287l.093.076a5.043 5.043 0 00-.585-.245 12.775 12.775 0 00-1.57-.447 1.175 1.175 0 01-.849-.844v-.109h-.138c-.125.009-.25.009-.374 0h-.102a.86.86 0 01-.255-.109l-.102-.076a.525.525 0 01-.152-.253v-.118h-.323a1.05 1.05 0 01-.916-.49v-.068h-.441a3.528 3.528 0 01-.942-.138h-.12a2.194 2.194 0 01-.958-.507.382.382 0 01.1-.267v-.001zM70.75 16.19a1.7 1.7 0 01.712-.843h.068v-.076a.843.843 0 01.692-.967h.11v-.119a.386.386 0 01.077-.32c.234-.2.543-.289.848-.244.161-.017.323-.017.484 0h.17l-.042-.177a.375.375 0 010-.236.371.371 0 01.305-.093c.41.038.811.14 1.189.304l.17.068V13.3a.33.33 0 01.051-.253.504.504 0 01.39-.118c.335.02.664.09.976.211h.043c.218.118.464.176.712.168.14.458.495.818.951.967 0 0 .407.093.891.228.306.078.607.177.9.295l-.29.052c-.697.169-1.382.38-2.053.633a3.141 3.141 0 01-.399 0 .978.978 0 01-.968-.388l-.051-.138-.111.085c-.245.188-.54.299-.848.32h-.212a.516.516 0 01-.203-.127l-.076-.093-.077.068a1.483 1.483 0 01-.933.396 1.12 1.12 0 01-.501-.118h-.07l-.059.05c-.411.331-.88.583-1.384.744l-.06.076a1.174 1.174 0 01-.847.21c-.17.01-.34.01-.51 0a.499.499 0 01-.045-.378zm17.662 20.3a78.574 78.574 0 00-5.797 4.433c1.001.92 1.96 1.866 2.886 2.855l.034-.025.093-.084c0-.009.008-.009.008-.017a.139.139 0 01.196.017.114.114 0 010 .127.406.406 0 00.138-.195.626.626 0 01.187-.69.57.57 0 01.885.055c.18.256.118.61-.14.79a.66.66 0 01-.568.152.502.502 0 00-.051.414 2.751 2.751 0 002.24 1.073 2.432 2.432 0 001.808-.844 1.62 1.62 0 01.12-.127.959.959 0 011.34.127l.035-.092c1.086 1.537-1.121 2.98-2.674 2.98a6.039 6.039 0 01-4.057-1.646c-.152-.195-.276-.263-.424-.195a.43.43 0 00-.162.295.664.664 0 01-.222.553.612.612 0 01-.848 0c-.008-.009-.016-.025-.025-.033a.578.578 0 01.128-.811.596.596 0 01.466-.168.138.138 0 010-.195l.178-.187a82.89 82.89 0 00-3.063-2.846 76.656 76.656 0 00-3.063 2.846l.211.212a.126.126 0 010 .186v.008c.175-.01.346.05.475.169a.563.563 0 11-.653.92.415.415 0 01-.093-.076.64.64 0 01-.22-.553.44.44 0 00-.17-.295c-.138-.068-.263 0-.425.194a5.963 5.963 0 01-4.048 1.647c-1.563 0-3.76-1.445-2.674-2.98l-.008.067a.948.948 0 011.34-.109.675.675 0 01.112.11c.453.53 1.117.839 1.816.843a2.702 2.702 0 002.275-1.047.471.471 0 00-.051-.414.66.66 0 01-.569-.152.567.567 0 11.746-.845c.2.168.275.444.187.69a.406.406 0 00.138.195.164.164 0 010-.127.138.138 0 01.195-.017c0 .009.008.009.008.017l.093.084a54.563 54.563 0 012.895-2.846 78.079 78.079 0 00-5.812-4.441c-6.45-4.273-11.314-3.859-11.314-3.859 3.65-1.393 8.233-.033 10.33 1.14a54.902 54.902 0 018.275 5.843 54.902 54.902 0 018.275-5.843c2.076-1.174 6.671-2.533 10.313-1.14.018-.004-4.836-.417-11.295 3.856v.001z"/><path d="M54.564 53.965l-.501.1L52 56.119a137.915 137.915 0 0126.642-2.263c8.934-.128 17.858.63 26.642 2.263l2.214-2.21a139.354 139.354 0 00-26.361-2.21 140.537 140.537 0 00-26.566 2.256"/><path d="M54.05 54.066l.11-.499a135.963 135.963 0 002.266-26.453A139.302 139.302 0 0054.203.876l-2.207 2.21A135.862 135.862 0 0154.27 29.6c.13 8.894-.63 17.779-2.27 26.522l2.048-2.056z"/><g><path d="M7.195 77.723a5.757 5.757 0 01-1.23 3.267 3.044 3.044 0 01-2.352 1.562 6.977 6.977 0 01-2.054-.54C.52 81.618 0 81.295 0 81.042a.1.1 0 01.084-.076c.31.096.613.212.908.346.425.197.882.315 1.35.347a4.34 4.34 0 002.689-1.511 4.338 4.338 0 001.61-2.661c0-.535-.639-1.26-1.917-2.178.074-.315.2-.891.382-1.73.56.403 1.046.9 1.435 1.47.464.812.69 1.739.654 2.674zM12.586 78.441H9.81c-.192-3.45-.436-6.73-.73-9.836l.95-1.243.458 5.412c.076 1.3.229 2.593.458 3.875l.17.138c.214.176.49.258.764.228h.74v1.434l-.035-.008z"/><path d="M14.895 78.44h-2.809v-1.435h2.809z"/><path d="M23.357 78.441h-1.205l-.441.938-3.624-1.976a.745.745 0 00-.493.515.745.745 0 01-.585.515h-2.445v-1.435h2.597a.847.847 0 00.705-.667c.123-.384.285-.754.484-1.105a8.087 8.087 0 011.316-.946c.448-.3.965-.482 1.502-.531a.313.313 0 01.374.346c.016.2.016.4 0 .6.38 1.452.863 2.229 1.451 2.33h.399v1.436l-.035-.02zm-2.053-1.46a20.238 20.238 0 00-.23-.968.845.845 0 00-.62-.785 1.767 1.767 0 00-1.595.802l.969.608c.325.216.688.37 1.07.455l.406-.113z"/><path d="M25.768 78.44h-2.81v-1.435h2.81z"/><path d="M30.91 78.441h-.847a1.045 1.045 0 01-.577-.195 1.012 1.012 0 01-.247-.363.848.848 0 00-.187-.304c-.147.111-.261.26-.33.431a.797.797 0 01-.382.431h-2.906v-1.436h3.76v-1.892c.322-.428.758-.949 1.307-1.562a.356.356 0 010 .169c-.032.908-.14 1.812-.322 2.702-.03.14-.05.28-.06.423 0 .112.096.168.29.168h.44v1.442l.062-.014zm-.61-7.548l-.68 1.123-1.587-.946-.501.843-1.698-.979.692-1.165 1.562 1.005.544-.844 1.667.963zm-1.826-2.465l-.704 1.149-1.562-.988.691-1.114 1.575.953z"/><path d="M36.003 78.44h-.849a1.045 1.045 0 01-.577-.195 1.012 1.012 0 01-.246-.363.848.848 0 00-.187-.304c-.147.11-.262.26-.33.431a.797.797 0 01-.382.43h-2.906v-1.434h3.77v-1.892c.322-.428.758-.949 1.307-1.562a.356.356 0 010 .169c-.032.908-.14 1.812-.323 2.702-.03.14-.05.28-.06.423 0 .112.096.168.29.168h.441v1.435l.052-.008zm-.554-7.667l-.692 1.13-1.612-.966-.5.844-1.661-.967.692-1.182 1.562.98.534-.845 1.677 1.006z"/><path d="M47.8 76.245a4.76 4.76 0 01-.245 1.495c-.062.25-.168.487-.314.7h-2.436a.535.535 0 01-.306-.304l-.118-.236a7.415 7.415 0 01-.612.54h-4.345a1.582 1.582 0 00-.297-.532c.17 0 .09.092-.238.276-.21.138-.445.232-.692.277h-2.542v-1.435h3.115a.507.507 0 00.484-.53v-.862l1.3-1.381a8.016 8.016 0 01-.629 2.752h4.108c.1-.334.127-.685.076-1.03 0-.332.456-.852 1.367-1.562a72.22 72.22 0 00-.577 2.331c-.057.184.438.276 1.485.276h.612c-.04-.28-.142-.74-.306-1.38a.986.986 0 01.425-.66c.257-.246.493-.515.704-.802v2.085l-.018-.018zM58.01 68.802a.792.792 0 01-.322.54l-.62.786v.726a6.717 6.717 0 01-.593 2.677 7.607 7.607 0 01-.544.987 3.313 3.313 0 00-.347.6c.247.665.445 1.348.593 2.043.012.16.012.322 0 .482a.761.761 0 01-.848.903h-4.108l.255-1.519a5.58 5.58 0 001.918-1.165 3.87 3.87 0 001.154-1.123 4.956 4.956 0 00-1.095-1.605c-.52-.659-1.088-1.28-1.698-1.857l-.23.786c-.586-.37-1.153-.77-1.697-1.2a1.766 1.766 0 01-.764-1.242c0-1.126.178-1.689.534-1.689.362.118.696.306.985.553.775.569 1.486 1.22 2.122 1.941 1 1.124 1.856 2.37 2.545 3.707.237-.188.43-.423.57-.69.222-.349.367-.74.424-1.15a4.204 4.204 0 000-.439 14.28 14.28 0 00-.382-2.533 2.851 2.851 0 01-.5-.616c-.014-.415.139-.819.424-1.122.095-.257.287-.466.534-.583.098.417.316.796.628 1.09a2.4 2.4 0 001.063.712zm-2.545 8.394a4.507 4.507 0 00-.441-1.74 4.791 4.791 0 01-1.469 1.182c-.318.2-.647.385-.985.552.238.157.53.208.807.138a28.695 28.695 0 002.096-.138l-.008.006zM61.471 76.533a7.75 7.75 0 01-.68 2.465 403.849 403.849 0 00-.907-9.178c.15-.904.52-1.757 1.078-2.486.057.092.16 1.635.306 4.628l.203 4.57zM69.146 76.44a8.512 8.512 0 01-.848 3.766 5.762 5.762 0 01-1.162 1.605 2.235 2.235 0 01-1.698.802 16.866 16.866 0 01-2.012-.329c-1.086-.236-1.63-.444-1.63-.624 0-.095.068-.138.204-.138.319.019.635.072.942.16.316.09.64.144.969.16.215-.006.427-.049.628-.127a7.713 7.713 0 002.656-1.688 3.589 3.589 0 001.368-2.533 2.757 2.757 0 00-.12-.844c-.182.522-.52.976-.968 1.301a1.848 1.848 0 01-1.002.119 1.087 1.087 0 01-.89-.676 2.647 2.647 0 01-.255-1.149c.078-.704.339-1.376.755-1.95.566-.878 1.05-1.317 1.451-1.317.29 0 .623.368 1.002 1.105.397.723.606 1.533.61 2.357zm-1.053-.177a2.048 2.048 0 00-.297-.987.992.992 0 00-.764-.6 1.053 1.053 0 00-.739.415c-.23.187-.38.457-.415.751.05.272.262.486.534.54.254.104.525.159.799.16.32.04.643-.061.882-.279zM79.594 75.174a4.773 4.773 0 01-.568 1.689c-.229.317-.5.6-.807.844a3.618 3.618 0 01-1.825.726c-.409.056-.825 0-1.205-.16a.967.967 0 01-.645-.93 6.118 6.118 0 011.554-3.006l1.324-1.689c.255.273.54.516.848.726.441.322.724.533.848.634.317.304.49.728.476 1.166zm-.492-4.948l-.68 1.123-1.587-.955-.484.904-1.698-.98.692-1.182 1.554.98.544-.844 1.659.954zm-.594 5.81c0-.496-.523-1.059-1.57-1.69-.396.476-.766.972-1.107 1.487a1.053 1.053 0 00-.11.439.679.679 0 00.847.69c.548 0 1.09-.11 1.596-.32a.65.65 0 00.343-.608l.001.002zM86.111 77.724a5.759 5.759 0 01-1.23 3.268 3.025 3.025 0 01-2.342 1.562 6.977 6.977 0 01-2.054-.54c-1.035-.396-1.553-.721-1.553-.975a.1.1 0 01.084-.076c.31.096.613.212.908.346.424.197.882.315 1.349.347a4.34 4.34 0 002.69-1.51 4.101 4.101 0 001.57-2.625c0-.534-.64-1.26-1.918-2.179.074-.315.201-.891.382-1.73.56.403 1.046.9 1.435 1.47.468.8.703 1.716.68 2.642zM91.51 78.441h-2.775a257.65 257.65 0 00-.73-9.836l.95-1.243.458 5.412c.078 1.3.233 2.593.466 3.875l.17.138c.213.176.489.258.764.228h.739v1.434l-.042-.008z"/><path d="M93.827 78.44h-2.81v-1.435h2.81z"/><path d="M96.263 78.44h-2.817v-1.435h2.809v1.435z"/><path d="M107.705 78.44H103.8a.846.846 0 01-.704-.786 11.028 11.028 0 01-.187-1.165c-.259.248-.543.47-.848.658-.3.192-.583.406-.849.642a2.29 2.29 0 01-1.697.643h-3.54v-1.433h3.583a5.837 5.837 0 003.513-1.561l-2.53-.482-.788-.169a3.083 3.083 0 00-1.612.743.1.1 0 000-.06 1.74 1.74 0 01.162-.623c.46-1.07 1.114-1.605 1.96-1.605a9.148 9.148 0 012.3.472c1.12.374 2.282.606 3.459.69h.985a23.58 23.58 0 01-.62 1.487h-.509a5.462 5.462 0 00-2.334.396.845.845 0 00.365.69l.162.085h3.667v1.434l-.033-.056zm-4.474 2.787l-.692 1.157-1.57-.98.692-1.104 1.57.927z"/><path d="M112.856 78.44h-.848a1.045 1.045 0 01-.577-.195 1.01 1.01 0 01-.247-.363.848.848 0 00-.186-.304c-.148.11-.262.26-.331.431a.797.797 0 01-.382.43h-2.92v-1.434h3.767V75.11c.323-.428.759-.948 1.307-1.562a.354.354 0 010 .169c-.032.908-.14 1.812-.322 2.702-.03.14-.05.28-.06.423 0 .112.096.169.29.169h.441v1.434l.068-.005zm-.554-7.667l-.691 1.13-1.612-.966-.501.844-1.622-.912.692-1.182 1.562.98.534-.844 1.638.95z"/><path d="M117.432 69.346l-.849 1.621-.22-.059.485 4.804a9.533 9.533 0 01-.195 1.605c-.142.75-.284 1.124-.425 1.123h-3.787v-1.435h3.556a.427.427 0 00.06-.347 51.66 51.66 0 00-.849-6.433h-.102a.498.498 0 01-.277-.423.703.703 0 01.102-.347l.747-1.3c.143-.254.247-.352.315-.296a.138.138 0 01.127.138.65.65 0 01-.076.236.666.666 0 00-.076.236c.01.102.075.19.17.228.455.23.886.447 1.294.65zM121.07 76.533a7.75 7.75 0 01-.679 2.465 403.85 403.85 0 00-.907-9.178 5.504 5.504 0 011.12-2.465c.057.092.16 1.634.306 4.627l.16 4.55zM132.437 75.174a4.773 4.773 0 01-.568 1.689c-.23.317-.5.6-.807.844a3.618 3.618 0 01-1.825.726c-.409.056-.825 0-1.205-.16a.967.967 0 01-.645-.93 6.118 6.118 0 011.554-3.006l1.324-1.689c.255.273.54.516.848.726.441.322.724.533.848.634.317.304.49.728.476 1.166zm-.492-4.948l-.68 1.123-1.595-.967-.484.903-1.698-.979.692-1.182 1.554.979.543-.844 1.668.967zm-.604 5.81c0-.496-.523-1.059-1.57-1.69-.396.476-.765.972-1.107 1.487a1.052 1.052 0 00-.11.439.677.677 0 00.848.69 4.141 4.141 0 001.595-.355.649.649 0 00.344-.571zM138.956 77.723a5.757 5.757 0 01-1.23 3.267 3.044 3.044 0 01-2.353 1.562 6.977 6.977 0 01-2.053-.54c-1.036-.394-1.554-.716-1.554-.966a.102.102 0 01.12-.12c.309.098.612.213.907.348.424.196.882.314 1.349.346a4.34 4.34 0 002.69-1.51 4.242 4.242 0 001.595-2.624c0-.535-.64-1.261-1.918-2.178.074-.315.201-.892.382-1.73.56.402 1.046.9 1.435 1.469.456.816.674 1.743.63 2.676zM142.672 76.533a7.75 7.75 0 01-.68 2.465 403.844 403.844 0 00-.907-9.178c.15-.904.52-1.757 1.078-2.486.057.092.159 1.635.306 4.628l.203 4.57zM150.133 77.723a5.759 5.759 0 01-1.23 3.267 3.08 3.08 0 01-2.353 1.562 6.977 6.977 0 01-2.053-.54c-1.036-.394-1.554-.716-1.554-.966a.102.102 0 01.12-.12c.309.098.612.213.907.348.425.196.882.314 1.349.346a4.34 4.34 0 002.69-1.51 4.101 4.101 0 001.57-2.624c0-.535-.639-1.261-1.917-2.178.073-.315.2-.892.381-1.73a5.908 5.908 0 011.417 1.502c.465.802.698 1.717.673 2.643zm-1.809-7.152l-.692 1.166-1.638-1.006.704-1.149 1.626.99zM157.025 76.44a8.501 8.501 0 01-.849 3.766c-.289.597-.68 1.14-1.153 1.605a2.235 2.235 0 01-1.698.802 16.866 16.866 0 01-2.012-.329c-1.087-.236-1.63-.444-1.63-.624 0-.095.068-.138.203-.138.32.019.635.072.943.16.315.09.64.144.968.16.214.003.426-.031.628-.1a7.703 7.703 0 002.64-1.714 3.589 3.589 0 001.367-2.533 2.757 2.757 0 00-.119-.844c-.182.523-.52.977-.968 1.301a1.848 1.848 0 01-1.002.12 1.087 1.087 0 01-.89-.676 2.647 2.647 0 01-.256-1.15c.08-.703.34-1.375.756-1.949.566-.878 1.05-1.317 1.451-1.317.29 0 .623.368 1.002 1.104.399.722.611 1.532.619 2.356zm-1.053-.177a2.048 2.048 0 00-.298-.987.992.992 0 00-.764-.6 1.053 1.053 0 00-.738.415c-.231.187-.38.457-.416.751.051.272.263.486.535.54.253.104.524.159.798.16.32.04.643-.061.883-.279zM1.308 85.745l1.937 5.067 1.969-5.067h1.299v6.754H5.38v-4.665l-1.79 4.661h-.748l-1.697-4.66v4.668H0V85.75zM8.53 85.745v.967H7.41v-.967h1.12zm0 1.874v4.88H7.41v-4.88h1.12zM9.319 87.618h1.134v.396c.2-.169.427-.303.672-.396.247-.078.504-.118.763-.12.235-.004.469.03.692.102.191.061.368.162.518.295.14.129.25.287.322.464.075.197.113.406.11.616v3.47h-1.085v-3.38a.884.884 0 00-.179-.608.637.637 0 00-.484-.186c-.179 0-.355.036-.518.109a1.42 1.42 0 00-.425.287 1.277 1.277 0 00-.379.877v2.912H9.32v-4.838zM15.533 85.745v.967h-1.107v-.967h1.107zm0 1.874v4.88h-1.107v-4.88h1.107zM17.475 90.886c-.002.15.024.299.077.44.04.11.104.21.186.295.078.075.173.13.277.16.112.035.23.052.347.051.11.01.221.01.331 0 .11-.017.215-.05.314-.1a.67.67 0 00.238-.204.536.536 0 00.093-.328.514.514 0 00-.085-.304.806.806 0 00-.238-.22 1.947 1.947 0 00-.339-.16l-.406-.138-.633-.235a2.794 2.794 0 01-.577-.32c-.16-.107-.299-.244-.406-.405a.997.997 0 01-.162-.574 1.06 1.06 0 01.152-.575c.105-.165.247-.303.415-.404.183-.113.384-.196.594-.245.23-.053.467-.078.704-.076a3.23 3.23 0 01.764.085c.22.05.43.138.62.262.171.114.314.268.415.447.107.2.166.424.17.65h-1.121a.841.841 0 00-.102-.32.638.638 0 00-.187-.202.741.741 0 00-.255-.11 1.343 1.343 0 00-.297 0 .852.852 0 00-.544.152.47.47 0 00-.187.388.455.455 0 00.085.277.859.859 0 00.238.21c.11.068.226.125.347.17l.407.151.628.236c.199.076.39.173.569.288.157.1.295.229.406.38.106.15.16.33.153.514.007.242-.052.48-.17.691-.115.188-.271.347-.459.464-.206.13-.433.223-.67.276a3.62 3.62 0 01-.8.084 2.714 2.714 0 01-.771-.109 1.9 1.9 0 01-.637-.32 1.586 1.586 0 01-.441-.532 1.744 1.744 0 01-.187-.751h1.154l-.01-.039zM22.704 86.217v1.402h.73v.76h-.73v2.98a.565.565 0 00.085.363.29.29 0 00.211.119h.17l.366-.06v.735l-.415.084c-.13.01-.26.01-.39 0a1.802 1.802 0 01-.442-.051 1.083 1.083 0 01-.373-.168.85.85 0 01-.255-.304 1.031 1.031 0 01-.093-.464v-3.234h-.732v-.76h.74v-1.402h1.128zM24.189 87.619h1.002l.067.447a1.33 1.33 0 011.035-.526h.238l.29.076v.912a2.685 2.685 0 00-.554-.169.85.85 0 00-.712.355 1.185 1.185 0 00-.187.38 1.566 1.566 0 00-.068.456v2.922h-1.107l-.004-4.853zM29.29 90.997l1.153-3.378h1.154l-2.075 5.91a2.048 2.048 0 01-.255.499c-.09.125-.199.236-.322.329-.208.157-.46.243-.721.244H27.9a1.883 1.883 0 01-.398-.119v-.843l.17.067.187.068.162.051h.11a.162.162 0 00.128-.068.846.846 0 00.11-.228c0-.067.068-.138.093-.22.025-.08.051-.137.068-.202l.212-.659-1.8-4.833h1.155l1.191 3.382zM34.035 90.067a3.023 3.023 0 01.152-.979c.094-.309.25-.596.458-.843.204-.232.456-.417.739-.54a2.424 2.424 0 011.01-.195c.35-.008.697.059 1.018.195.286.123.54.308.748.54.209.246.365.534.458.843a3.154 3.154 0 010 1.96 2.17 2.17 0 01-1.205 1.342 2.477 2.477 0 01-1.019.195 2.438 2.438 0 01-1.01-.195 2.127 2.127 0 01-.764-.552 2.357 2.357 0 01-.458-.803 3.01 3.01 0 01-.127-.968zm1.107 0a2.52 2.52 0 00.084.676c.05.196.134.383.247.552.1.151.234.278.39.372.32.182.714.182 1.035 0 .158-.093.295-.22.398-.372.115-.169.201-.355.255-.552a2.73 2.73 0 000-1.35 1.854 1.854 0 00-.255-.553 1.278 1.278 0 00-.415-.372 1.031 1.031 0 00-1.035 0c-.156.097-.29.226-.39.38-.112.17-.196.356-.246.552a2.6 2.6 0 00-.085.667h.017zM40.047 87.619v-1.081c-.001-.137.028-.272.084-.397a.902.902 0 01.247-.312c.112-.094.242-.165.381-.211.165-.053.337-.078.51-.076.13.004.258.027.382.068.146.046.285.112.415.194v.743l-.399-.16-.17-.06a.35.35 0 00-.23.077.338.338 0 00-.092.276v.946h.848v.786h-.848v4.104h-1.128v-4.111h-.844v-.786h.844zM45.867 89.029c-.008.432.052.862.178 1.275.1.324.257.627.466.894a1.9 1.9 0 00.662.532c.232.115.488.175.747.177.243.005.484-.047.704-.152.209-.103.396-.243.554-.414.158-.174.29-.37.39-.583.104-.215.18-.442.23-.675h1.137a3.89 3.89 0 01-.347 1.022 2.996 2.996 0 01-.62.843 2.85 2.85 0 01-.849.553c-.365.14-.754.209-1.145.203a3.326 3.326 0 01-1.316-.245 2.767 2.767 0 01-1.002-.718 3.232 3.232 0 01-.636-1.157 4.962 4.962 0 01-.22-1.545c0-.284.032-.567.092-.844.059-.291.152-.575.277-.844a3.44 3.44 0 01.458-.71 2.967 2.967 0 011.409-.937c.302-.094.617-.14.934-.138.388-.006.775.05 1.145.168.307.106.594.262.849.464.25.198.462.438.628.71.17.28.3.58.39.895h-1.197a2.372 2.372 0 00-.72-1.098 1.81 1.81 0 00-1.163-.363 1.625 1.625 0 00-.848.22 2.09 2.09 0 00-.645.59 2.862 2.862 0 00-.415.844 3.49 3.49 0 00-.127 1.033zM51.654 90.067a3.023 3.023 0 01.153-.979c.093-.309.25-.596.458-.843.203-.232.455-.417.738-.54a2.424 2.424 0 011.01-.195c.35-.008.697.059 1.019.195.285.123.54.308.747.54.21.246.365.534.458.843a3.154 3.154 0 010 1.96 2.17 2.17 0 01-1.205 1.342 2.477 2.477 0 01-1.019.195 2.438 2.438 0 01-1.01-.195 2.118 2.118 0 01-.738-.552 2.357 2.357 0 01-.458-.803 3.019 3.019 0 01-.153-.968zm1.107 0c-.002.228.026.455.085.676.05.196.134.383.246.552.1.151.234.278.39.372.321.182.714.182 1.035 0 .159-.093.295-.22.399-.372.114-.169.2-.355.254-.552a2.73 2.73 0 000-1.35 1.854 1.854 0 00-.254-.553 1.277 1.277 0 00-.399-.372 1.031 1.031 0 00-1.035 0c-.156.097-.29.226-.39.38-.113.17-.196.356-.246.552a2.6 2.6 0 00-.08.667h-.005zM57.145 87.619h1.107v.363a1.77 1.77 0 01.636-.363c.209-.065.426-.099.645-.1a1.65 1.65 0 01.68.137c.23.111.43.28.576.49.097-.112.208-.211.33-.295.12-.082.248-.15.383-.203.27-.104.558-.155.848-.152.232 0 .462.04.68.119.196.072.377.18.533.32a1.418 1.418 0 01.484 1.081v3.463h-1.162v-3.243a1.28 1.28 0 000-.447.828.828 0 00-.17-.288.58.58 0 00-.238-.151.791.791 0 00-.628.05 1.107 1.107 0 00-.33.253c-.101.112-.182.24-.239.38-.061.15-.093.31-.092.472v2.989h-1.146v-3.26a1.315 1.315 0 00-.068-.447.849.849 0 00-.162-.328.563.563 0 00-.22-.152.693.693 0 00-.23-.043.848.848 0 00-.432.119c-.136.08-.257.182-.357.303-.1.122-.181.258-.238.405a1.165 1.165 0 00-.085.423v2.93h-1.107l.002-4.825zM64.886 87.619h1.107v.363c.182-.163.396-.287.628-.363.21-.065.426-.099.645-.1a1.65 1.65 0 01.68.137c.23.111.43.28.576.49.097-.112.208-.211.331-.295.12-.082.247-.15.382-.203.27-.104.558-.155.848-.152.232 0 .462.04.68.119.196.072.378.18.534.32a1.418 1.418 0 01.484 1.081v3.463h-1.13v-3.243a1.274 1.274 0 00-.067-.447.828.828 0 00-.17-.288.58.58 0 00-.238-.151.791.791 0 00-.628.05 1.107 1.107 0 00-.331.253c-.1.112-.18.24-.238.38-.062.15-.093.31-.093.472v2.989H67.78v-3.26a1.315 1.315 0 00-.067-.447.847.847 0 00-.162-.328.563.563 0 00-.22-.152.693.693 0 00-.195 0 .848.848 0 00-.433.118c-.137.08-.257.183-.357.304-.1.122-.181.258-.238.405a1.164 1.164 0 00-.085.422v2.93h-1.136V87.62zM73.746 90.27a2.04 2.04 0 00.382 1.082c.103.139.233.257.381.346a.905.905 0 00.467.127 1.205 1.205 0 001.18-.946h1.043a2.076 2.076 0 01-.806 1.267 2.25 2.25 0 01-.662.338 2.46 2.46 0 01-.747.119 2.287 2.287 0 01-.993-.211 2.247 2.247 0 01-.756-.553 2.622 2.622 0 01-.476-.844 2.912 2.912 0 01-.17-.995c0-.32.057-.638.17-.938a2.39 2.39 0 01.476-.786 2.25 2.25 0 01.747-.54c.313-.139.652-.208.994-.203.328-.005.654.055.959.177.276.112.525.282.73.499.201.217.357.473.458.75.122.305.188.628.195.955v.355l-3.572.001zm2.385-.69a1.67 1.67 0 00-.102-.507 1.229 1.229 0 00-.247-.396 1.13 1.13 0 00-.857-.355 1 1 0 00-.45.1 1.177 1.177 0 00-.365.277 1.517 1.517 0 00-.357.887h2.377l.001-.006zM77.99 87.619h1.027v.447a1.33 1.33 0 011.035-.526h.238l.331.076v.912a2.685 2.685 0 00-.553-.169.85.85 0 00-.713.355 1.185 1.185 0 00-.187.38 1.566 1.566 0 00-.068.456v2.922h-1.107l-.002-4.853zM84.433 89.232a1.461 1.461 0 00-.374-.71.852.852 0 00-.611-.211.917.917 0 00-.501.138 1.186 1.186 0 00-.365.363 1.774 1.774 0 00-.23.532 2.92 2.92 0 000 1.317c.046.208.123.407.23.591.092.162.216.302.365.415a.786.786 0 00.85.067.957.957 0 00.289-.244 1.43 1.43 0 00.203-.363c.057-.142.1-.29.127-.44h1.18a2.525 2.525 0 01-.23.844 1.898 1.898 0 01-1.118.988c-.274.092-.56.139-.849.138a2.06 2.06 0 01-1.01-.236 2.127 2.127 0 01-.692-.608 2.57 2.57 0 01-.406-.844 3.502 3.502 0 01-.128-.937c-.003-.33.051-.657.162-.967.104-.287.262-.551.467-.778a2.147 2.147 0 011.671-.71c.288-.007.575.036.848.128a1.888 1.888 0 011.061.887c.115.211.198.439.247.674h-1.17l-.016-.034zM87.505 90.27a2.04 2.04 0 00.382 1.082c.103.139.233.257.381.346a.905.905 0 00.467.127 1.205 1.205 0 001.18-.946h.978a2.077 2.077 0 01-.806 1.267 2.25 2.25 0 01-.662.338 2.46 2.46 0 01-.747.119 2.248 2.248 0 01-1.74-.777 2.622 2.622 0 01-.477-.844 2.931 2.931 0 01-.17-.996c0-.32.057-.638.17-.938a2.39 2.39 0 01.476-.785 2.25 2.25 0 01.748-.54c.312-.14.651-.208.993-.203a2.47 2.47 0 01.959.176c.276.112.526.282.73.499.202.217.358.473.458.751a2.7 2.7 0 01.162.946v.355H87.5l.006.023zm2.385-.69a1.67 1.67 0 00-.102-.507 1.229 1.229 0 00-.247-.396 1.13 1.13 0 00-.857-.355 1 1 0 00-.45.1 1.179 1.179 0 00-.365.277 1.517 1.517 0 00-.357.887h2.385l-.007-.006zM93.85 89.046c.006-.24.08-.475.212-.676.128-.185.293-.343.484-.464.201-.127.422-.22.653-.276.233-.057.473-.085.713-.084.256-.002.512.023.763.076.231.046.452.132.654.252.186.114.343.27.458.456.118.205.177.439.17.675v2.486a.605.605 0 000 .228.127.127 0 00.092.1l.442-.137v.777l-.382.093a1.421 1.421 0 01-.306 0 .97.97 0 01-.534-.138.844.844 0 01-.339-.448 2.058 2.058 0 01-.39.304 1.961 1.961 0 01-.805.261h-.425a2.06 2.06 0 01-.637-.092 1.588 1.588 0 01-.517-.277 1.256 1.256 0 01-.34-.43 1.304 1.304 0 01-.126-.575 1.103 1.103 0 01.138-.566 1.29 1.29 0 01.357-.388c.154-.11.322-.2.5-.263a9.34 9.34 0 01.57-.186l.568-.138c.17-.038.338-.089.501-.152.13-.046.251-.115.357-.203a.397.397 0 00.138-.304.599.599 0 00-.22-.507 1.454 1.454 0 00-1.018-.127.79.79 0 00-.277.127.753.753 0 00-.195.228.916.916 0 00-.11.339h-1.154l.005.029zm2.996.995c-.104.06-.215.107-.331.138l-.415.127-.442.138a2.077 2.077 0 00-.398.177.98.98 0 00-.29.245.519.519 0 00-.11.338.732.732 0 00.051.295c.03.075.078.142.139.195a.52.52 0 00.195.101c.07.008.141.008.211 0 .266-.004.524-.09.74-.244.269-.197.492-.45.652-.743v-.768l-.002.001zM99.242 87.618h1.13v.396c.211-.173.453-.307.712-.396.247-.078.504-.118.764-.12.234-.004.468.03.691.102.192.061.368.162.518.295.14.129.251.287.322.464.075.197.113.406.11.616v3.47h-1.128v-3.38a.884.884 0 00-.179-.624.637.637 0 00-.484-.187c-.178 0-.355.037-.517.11a1.42 1.42 0 00-.425.287 1.277 1.277 0 00-.38.876v2.913h-1.128l-.006-4.822zM108.604 92.5h-1.12v-.296a1.775 1.775 0 01-1.112.396 2.157 2.157 0 01-.95-.195 1.984 1.984 0 01-.692-.54 2.346 2.346 0 01-.415-.843 3.355 3.355 0 01-.139-.988 3.471 3.471 0 01.139-.987c.078-.306.216-.592.406-.844.183-.229.415-.413.68-.54.295-.136.617-.203.942-.195.198.004.394.044.577.12.197.076.383.178.553.303v-2.145h1.121v6.755l.01-.002zm-1.12-2.533a3.19 3.19 0 00-.085-.66 1.912 1.912 0 00-.212-.53 1.14 1.14 0 00-.339-.364.788.788 0 00-.45-.138.802.802 0 00-.458.138c-.14.1-.256.23-.339.38a1.992 1.992 0 00-.211.552 3.26 3.26 0 000 1.369c.041.194.113.38.211.552.084.148.2.275.34.372a.854.854 0 00.925 0c.14-.097.256-.224.339-.372.098-.172.17-.359.212-.552.048-.227.07-.459.068-.69v-.068l-.002.01zM112.78 85.745v6.754h-1.13v-6.754zM113.815 87.619h1.129v.396c.209-.156.443-.276.692-.355.247-.077.504-.117.763-.118.235-.005.469.03.692.1.191.062.368.163.518.296.14.129.25.287.322.464.075.197.113.406.11.616v3.473h-1.106v-3.378a.884.884 0 00-.179-.624.637.637 0 00-.484-.186c-.178-.001-.355.036-.517.109a1.42 1.42 0 00-.425.287 1.277 1.277 0 00-.38.877v2.915h-1.135v-4.872zM120.672 90.997l1.23-3.378h1.154l-1.799 4.88h-1.12l-1.817-4.88h1.17zM124.545 90.27a2.043 2.043 0 00.382 1.082c.103.139.233.257.382.346a.905.905 0 00.466.127 1.205 1.205 0 001.18-.946h1.043a2.077 2.077 0 01-.806 1.267 2.25 2.25 0 01-.662.338 2.46 2.46 0 01-.747.119 2.288 2.288 0 01-.993-.211 2.251 2.251 0 01-.789-.553c-.21-.25-.37-.535-.474-.844a2.912 2.912 0 01-.17-.995c-.001-.32.056-.638.17-.938a2.39 2.39 0 01.474-.786 2.25 2.25 0 01.747-.54c.313-.138.652-.208.994-.203.328-.005.654.055.959.177.276.112.525.282.73.499.202.217.357.472.458.75a2.7 2.7 0 01.162.947v.355h-3.534l.028.01zm2.385-.69a1.67 1.67 0 00-.102-.507 1.227 1.227 0 00-.246-.396 1.129 1.129 0 00-.858-.355 1 1 0 00-.45.1 1.177 1.177 0 00-.365.277 1.517 1.517 0 00-.357.887h2.385l-.007-.006zM129.94 90.888c-.002.15.024.298.076.439a.84.84 0 00.187.295c.078.075.173.13.276.16.102.035.207.055.314.06.11.01.221.01.331 0 .11-.017.216-.05.314-.1a.67.67 0 00.238-.204.536.536 0 00.093-.329.514.514 0 00-.084-.303.807.807 0 00-.238-.22 1.947 1.947 0 00-.34-.16l-.406-.138-.628-.228c-.2-.074-.391-.17-.57-.287-.16-.107-.298-.245-.406-.405a.997.997 0 01-.162-.574 1.06 1.06 0 01.152-.575 1.26 1.26 0 01.407-.404c.184-.113.384-.196.594-.245.23-.053.467-.078.704-.076a3.23 3.23 0 01.764.084c.22.05.43.14.62.263.172.114.314.267.415.447.108.2.166.423.17.65h-1.12a.843.843 0 00-.103-.32.638.638 0 00-.187-.203.742.742 0 00-.255-.109 1.343 1.343 0 00-.297 0 .852.852 0 00-.544.152.47.47 0 00-.187.388.45.45 0 00.085.276.859.859 0 00.238.212c.11.067.227.123.348.168l.407.152.628.236c.2.076.39.172.57.287.157.101.295.23.406.38.106.15.16.331.152.515.007.242-.052.48-.17.69-.114.19-.27.348-.458.465-.206.13-.433.223-.671.276-.262.057-.53.086-.798.084a2.715 2.715 0 01-.773-.109 1.9 1.9 0 01-.636-.32 1.586 1.586 0 01-.441-.532 1.744 1.744 0 01-.187-.751h1.17l.002-.087zM135.162 86.217v1.402h.72v.76h-.73v2.98a.565.565 0 00.084.363.29.29 0 00.23.1h.17l.366-.059v.735l-.416.084c-.13.01-.26.01-.39 0a1.802 1.802 0 01-.441-.051 1.083 1.083 0 01-.374-.168.851.851 0 01-.254-.304 1.031 1.031 0 01-.093-.464v-3.218h-.692v-.76h.739v-1.401h1.086l-.005.001zM136.73 87.619h1.108v.363c.17-.158.368-.281.585-.363.209-.065.426-.099.645-.1a1.65 1.65 0 01.679.137c.231.111.43.28.577.49.097-.112.208-.211.33-.295.12-.082.248-.15.383-.203.27-.104.558-.155.848-.152.231 0 .462.04.68.119.196.072.377.18.533.32a1.418 1.418 0 01.484 1.081v3.463h-1.106v-3.243a1.274 1.274 0 00-.072-.447.828.828 0 00-.17-.288.58.58 0 00-.239-.151.791.791 0 00-.628.05 1.107 1.107 0 00-.33.253c-.1.112-.181.24-.238.38-.063.15-.095.31-.094.472v2.989h-1.121v-3.26a1.315 1.315 0 00-.068-.447.836.836 0 00-.162-.287.563.563 0 00-.22-.152.693.693 0 00-.23-.043.848.848 0 00-.433.12c-.136.079-.257.181-.357.303-.1.121-.18.258-.238.405a1.164 1.164 0 00-.084.422v2.93h-1.061V87.62zM145.557 90.27c.01.2.051.396.119.583.061.179.15.347.263.499.103.139.233.257.382.346a.905.905 0 00.466.127 1.205 1.205 0 001.18-.946h1.044a2.07 2.07 0 01-.298.727c-.137.208-.309.39-.51.54a2.25 2.25 0 01-.66.338 2.46 2.46 0 01-.748.119 2.248 2.248 0 01-1.74-.777 2.622 2.622 0 01-.476-.844 2.911 2.911 0 01-.17-.996c-.001-.32.057-.638.17-.938a2.39 2.39 0 01.476-.785c.209-.23.463-.414.747-.54.312-.14.651-.208.993-.203a2.47 2.47 0 01.96.176 2.083 2.083 0 011.188 1.25 2.7 2.7 0 01.162.946v.355h-3.548v.023zm2.385-.69a1.67 1.67 0 00-.102-.507 1.229 1.229 0 00-.246-.396 1.13 1.13 0 00-.858-.355 1 1 0 00-.45.1 1.179 1.179 0 00-.365.277 1.517 1.517 0 00-.357.887h2.385l-.007-.006zM149.81 87.619h1.13v.396c.209-.155.442-.275.691-.355.247-.077.505-.117.764-.118.235-.005.468.03.692.1.191.062.367.163.517.296.141.129.252.287.323.464.075.197.112.406.11.616v3.473h-1.107v-3.378a.884.884 0 00-.178-.624.637.637 0 00-.484-.186c-.179-.001-.355.036-.518.109a1.42 1.42 0 00-.425.287 1.277 1.277 0 00-.379.877v2.915h-1.129l-.007-4.872zM156.251 86.217v1.402h.73v.76h-.73v2.98a.565.565 0 00.085.363.29.29 0 00.23.1h.17l.365-.059v.735l-.415.084c-.13.01-.26.01-.39 0a1.802 1.802 0 01-.442-.051 1.083 1.083 0 01-.373-.168.85.85 0 01-.255-.304 1.031 1.031 0 01-.093-.464v-3.218h-.739v-.76h.74v-1.401l1.117.001z"/></g></g></svg>