<?xml version="1.0" encoding="UTF-8"?>
<svg width="1366px" height="418px" viewBox="0 0 1366 418" version="1.1" xmlns="http://www.w3.org/2000/svg" xmlns:xlink="http://www.w3.org/1999/xlink">
    <!-- Generator: sketchtool 60.1 (101010) - https://sketch.com -->
    <title>160199B1-AA85-4A41-8179-7CDFB8262245</title>
    <desc>Created with sketchtool.</desc>
    <defs>
        <rect id="path-1" x="0" y="0" width="1366" height="418" rx="1"></rect>
        <filter x="-0.4%" y="-1.0%" width="100.7%" height="102.4%" filterUnits="objectBoundingBox" id="filter-3">
            <feOffset dx="0" dy="1" in="SourceAlpha" result="shadowOffsetOuter1"></feOffset>
            <feGaussianBlur stdDeviation="1.5" in="shadowOffsetOuter1" result="shadowBlurOuter1"></feGaussianBlur>
            <feColorMatrix values="0 0 0 0 0.196078431   0 0 0 0 0.270588235   0 0 0 0 0.258823529  0 0 0 0.0676628059 0" type="matrix" in="shadowBlurOuter1"></feColorMatrix>
        </filter>
        <linearGradient x1="50%" y1="96.5446106%" x2="50%" y2="7.05549296%" id="linearGradient-4">
            <stop stop-color="#CEEAE4" offset="0%"></stop>
            <stop stop-color="#85B9AE" offset="100%"></stop>
        </linearGradient>
        <linearGradient x1="50%" y1="96.5446106%" x2="50%" y2="7.05549296%" id="linearGradient-5">
            <stop stop-color="#CEEAE4" offset="0%"></stop>
            <stop stop-color="#85B9AE" offset="100%"></stop>
        </linearGradient>
    </defs>
    <g id="Asset-Artboard-Page" stroke="none" stroke-width="1" fill="none" fill-rule="evenodd">
        <g id="bg">
            <g id="Image-1">
                <mask id="mask-2" fill="white">
                    <use xlink:href="#path-1"></use>
                </mask>
                <g id="Mask">
                    <use fill="black" fill-opacity="1" filter="url(#filter-3)" xlink:href="#path-1"></use>
                    <use fill="#0B7573" fill-rule="evenodd" xlink:href="#path-1"></use>
                </g>
                <path d="M1858,374.429092 L1632.93592,374.429092 C1599.24655,374.429092 1571.93592,347.118462 1571.93592,313.429092 L1571.93592,-135.441953 C1571.93592,-151.71145 1562.7536,-166.587753 1548.21005,-173.88032 L946.14403,-475.773922 C924.915106,-486.418728 899.076343,-477.838606 888.431536,-456.609682 C885.43188,-450.627472 883.869903,-444.027698 883.869903,-437.335555 L883.869903,205.139232 C883.869903,238.828602 856.559273,266.139232 822.869903,266.139232 L560,266.139232 L560,266.139232 L560,348 C560,403.228475 604.771525,448 660,448 L1784.42909,448 C1825.06118,448 1858,415.061183 1858,374.429092 L1858,374.429092 L1858,374.429092 Z" id="Path-Copy-3" stroke="#1C5E5C" opacity="0.648869981" stroke-dasharray="5,10" mask="url(#mask-2)" transform="translate(1209.000000, -29.500000) scale(-1, -1) translate(-1209.000000, 29.500000) "></path>
                <path d="M1878,369.429092 L1652.93592,369.429092 C1619.24655,369.429092 1591.93592,342.118462 1591.93592,308.429092 L1591.93592,-140.441953 C1591.93592,-156.71145 1582.7536,-171.587753 1568.21005,-178.88032 L966.14403,-480.773922 C944.915106,-491.418728 919.076343,-482.838606 908.431536,-461.609682 C905.43188,-455.627472 903.869903,-449.027698 903.869903,-442.335555 L903.869903,200.139232 C903.869903,233.828602 876.559273,261.139232 842.869903,261.139232 L580,261.139232 L580,261.139232 L580,343 C580,398.228475 624.771525,443 680,443 L1804.42909,443 C1845.06118,443 1878,410.061183 1878,369.429092 L1878,369.429092 L1878,369.429092 Z" id="Path-Copy-6" stroke="#1C5E5C" opacity="0.648869981" stroke-dasharray="5,10" mask="url(#mask-2)" transform="translate(1229.000000, -34.500000) scale(-1, -1) translate(-1229.000000, 34.500000) "></path>
                <path d="M780,364.429092 L554.935922,364.429092 C521.246553,364.429092 493.935922,337.118462 493.935922,303.429092 L493.935922,-145.441953 C493.935922,-161.71145 484.753605,-176.587753 470.210049,-183.88032 L-131.85597,-485.773922 C-153.084894,-496.418728 -178.923657,-487.838606 -189.568464,-466.609682 C-192.56812,-460.627472 -194.130097,-454.027698 -194.130097,-447.335555 L-194.130097,195.139232 C-194.130097,228.828602 -221.440727,256.139232 -255.130097,256.139232 L-518,256.139232 L-518,256.139232 L-518,338 C-518,393.228475 -473.228475,438 -418,438 L706.429092,438 C747.061183,438 780,405.061183 780,364.429092 L780,364.429092 L780,364.429092 Z" id="Path-Copy-4" stroke="#1C5E5C" opacity="0.648869981" stroke-dasharray="5,10" mask="url(#mask-2)" transform="translate(131.000000, -39.500000) scale(1, -1) translate(-131.000000, 39.500000) "></path>
                <path d="M791,384.429092 L565.935922,384.429092 C532.246553,384.429092 504.935922,357.118462 504.935922,323.429092 L504.935922,-90.2590128 C504.935922,-128.095052 483.581696,-162.691107 449.759474,-179.650563 L-120.85597,-465.773922 C-142.084894,-476.418728 -167.923657,-467.838606 -178.568464,-446.609682 C-181.56812,-440.627472 -183.130097,-434.027698 -183.130097,-427.335555 L-183.130097,215.139232 C-183.130097,248.828602 -210.440727,276.139232 -244.130097,276.139232 L-507,276.139232 L-507,276.139232 L-507,358 C-507,413.228475 -462.228475,458 -407,458 L717.429092,458 C758.061183,458 791,425.061183 791,384.429092 L791,384.429092 L791,384.429092 Z" id="Path-Copy-5" stroke="#1C5E5C" opacity="0.648869981" stroke-dasharray="5,10" mask="url(#mask-2)" transform="translate(142.000000, -19.500000) scale(1, -1) translate(-142.000000, 19.500000) "></path>
                <path d="M966,805.429092 L740.935922,805.429092 C707.246553,805.429092 679.935922,778.118462 679.935922,744.429092 L679.935922,295.558047 C679.935922,279.28855 670.753605,264.412247 656.210049,257.11968 L54.14403,-44.7739219 C32.9151063,-55.4187283 7.07634276,-46.838606 -3.56846368,-25.6096824 C-6.56811974,-19.6274722 -8.13009709,-13.0276981 -8.13009709,-6.33555532 L-8.13009709,636.139232 C-8.13009709,669.828602 -35.4407273,697.139232 -69.1300971,697.139232 L-332,697.139232 L-332,697.139232 L-332,779 C-332,834.228475 -287.228475,879 -232,879 L892.429092,879 C933.061183,879 966,846.061183 966,805.429092 L966,805.429092 L966,805.429092 Z" id="Path-Copy" fill="url(#linearGradient-4)" opacity="0.0782877604" mask="url(#mask-2)"></path>
                <path d="M1650.74511,1006.39336 L1332.23637,1006.39336 C1298.547,1006.39336 1271.23637,979.082731 1271.23637,945.393361 L1271.23637,321.275084 C1271.23637,305.005799 1262.05429,290.129651 1247.51102,282.836981 L420.683836,-131.772596 C399.455058,-142.417692 373.616177,-133.837922 362.971081,-112.609143 C359.971255,-106.626797 358.409185,-100.026833 358.409185,-93.334492 L358.409185,801.725034 C358.409185,835.414404 331.098555,862.725034 297.409185,862.725034 L-71.2548927,862.725034 L-71.2548927,862.725034 L-71.2548927,1004 C-71.2548927,1059.22847 -26.4833677,1104 28.7451073,1104 L1553.13847,1104 C1607.04513,1104 1650.74511,1060.30002 1650.74511,1006.39336 L1650.74511,1006.39336 L1650.74511,1006.39336 Z" id="Path-Copy-7" fill="url(#linearGradient-5)" opacity="0.0948660714" mask="url(#mask-2)" transform="translate(789.745107, 470.500000) rotate(20.000000) translate(-789.745107, -470.500000) "></path>
                <path d="M1847,362.429092 L1621.93592,362.429092 C1588.24655,362.429092 1560.93592,335.118462 1560.93592,301.429092 L1560.93592,-147.441953 C1560.93592,-163.71145 1551.7536,-178.587753 1537.21005,-185.88032 L935.14403,-487.773922 C913.915106,-498.418728 888.076343,-489.838606 877.431536,-468.609682 C874.43188,-462.627472 872.869903,-456.027698 872.869903,-449.335555 L872.869903,193.139232 C872.869903,226.828602 845.559273,254.139232 811.869903,254.139232 L549,254.139232 L549,254.139232 L549,336 C549,391.228475 593.771525,436 649,436 L1773.42909,436 C1814.06118,436 1847,403.061183 1847,362.429092 L1847,362.429092 L1847,362.429092 Z" id="Path-Copy-2" fill="url(#linearGradient-4)" opacity="0.119652158" mask="url(#mask-2)" transform="translate(1198.000000, -41.500000) scale(-1, -1) translate(-1198.000000, 41.500000) "></path>
                <path d="M830.334715,147.384414 L830.334715,149.390686 L832.274623,149.390686 C839.661798,150.78813 844.594847,158.061588 843.350141,165.720813 L843.350141,166.863921 L844.320095,166.863921 C849.689756,170.096128 853.834768,175.123468 856.072325,181.117789 L856.771594,181.397734 C857.280321,183.584757 856.93162,185.891117 855.80164,187.81314 C853.126652,187.956066 850.446313,187.956066 847.771326,187.81314 C842.889553,188.512319 837.935371,187.233492 833.943845,184.243841 C825.784105,181.529411 818.181717,177.273869 811.522124,171.692973 L810.55217,170.829809 L809.446874,170.829809 C806.912677,172.145614 804.116854,172.832537 801.281217,172.836082 C795.602098,172.527282 790.21036,170.156368 786.055199,166.14073 L784.679218,164.997621 L783.438579,166.560648 C782.512254,167.468617 781.434713,168.195745 780.258033,168.706893 L776.648903,168.706893 C771.638307,168.288186 766.844511,166.411827 762.821423,163.294622 L761.016858,162.011541 L760.182246,164.157786 C756.631234,169.27948 750.547449,171.830747 744.550201,170.713165 C742.432078,170.855738 740.307232,170.855738 738.189109,170.713165 C727.300198,166.436073 716.165807,162.859941 704.849769,160.005268 L700,159.142105 C704.512031,157.203108 709.128932,155.536195 713.82748,154.149752 C721.722453,151.816876 728.489572,150.300508 728.489572,150.300508 C735.820526,147.193217 741.168465,140.507136 742.745636,132.477341 C746.792943,132.60558 750.800962,131.623626 754.362524,129.631233 L755.197135,129.631233 C760.244884,127.585587 765.574403,126.380855 770.98708,126.061934 C773.203647,125.772594 775.43106,126.506338 777.077487,128.068207 C778.017085,129.261947 778.374659,130.835778 778.047441,132.337369 L778.047441,135.48675 L780.82196,134.343641 C787.042082,131.636235 793.618804,129.90632 800.33382,129.211316 C802.098877,128.903329 803.900179,129.483869 805.183589,130.774342 C805.736546,132.042596 805.736546,133.495306 805.183589,134.763559 L804.48432,137.749639 L807.258839,137.749639 C809.88324,137.463817 812.529409,137.463817 815.153811,137.749639 C820.127302,136.932027 825.194698,138.445262 828.981291,141.878828 C830.211829,143.409202 830.709101,145.43205 830.334715,147.384414 L830.334715,147.384414 Z M791.990955,229.857597 C782.781146,228.932446 775.041136,222.464418 772.409299,213.493961 L771.300049,211.525747 L769.624855,212.784488 C768.701936,212.925344 767.763331,212.925344 766.840412,212.784488 C763.772187,212.550949 760.921726,211.093609 758.917198,208.73363 L757.400469,207.200254 C755.209467,204.680335 753.254254,201.960497 751.559928,199.075652 L750.179025,196.558169 L749.341429,197.954228 L749.341429,199.075652 C747.91363,200.706412 745.805217,201.555637 743.659353,201.364272 C738.027583,200.781345 732.701399,198.491877 728.378869,194.795931 C719.717823,184.878681 710.440164,175.529775 700.602346,166.806103 L695.32775,164.28862 L692,162 L694.490153,162 C708.255185,164.536504 721.743071,168.422625 734.762716,173.603306 C737.122559,173.74328 739.488489,173.74328 741.848332,173.603306 C748.557556,174.324039 755.205761,171.774923 759.754795,166.737444 C763.84421,169.655016 768.640491,171.395249 773.631738,171.772409 L774.740988,171.772409 C774.879814,172.651778 774.879814,173.547841 774.740988,174.427209 L773.903391,177.082009 L776.393544,177.082009 C784.417151,176.390385 792.389433,178.904445 798.601179,184.085188 C799.571958,186.068307 799.571958,188.395774 798.601179,190.378894 L797.627756,192.484425 L799.710429,192.484425 C806.940178,194.702326 813.237905,199.282269 817.616892,205.506675 C818.957418,208.195754 819.209136,211.306982 818.318662,214.180547 L818.318662,215.713922 L818.884606,215.988557 C825.952444,221.999274 828.602633,231.805055 825.540105,240.614113 L825.540105,241.460903 L825.404279,242.010172 C825.404279,242.010172 837.764492,260.753973 830.950528,270 C823.21698,267.74801 816.525987,262.792296 812.070642,256.016529 C804.887344,248.662482 798.890772,240.213757 794.300006,230.979021 L794.300006,229.72028 L791.990955,229.857597 Z M771.963293,259.027955 C774.901024,264.498604 773.39353,271.242129 768.389321,275.015531 L767.384872,275.723552 L767.384872,276.979719 C768.452192,282.140844 767.906872,287.496548 765.8198,292.35063 C764.803237,293.62953 763.395636,294.557713 761.802002,295 C756.607176,290.505919 752.953364,284.557084 751.337041,277.961813 L751.337041,277.025397 C748.211945,269.781967 746.462586,262.04249 746.174638,254.186004 L746.174638,252.929837 L745.170189,252.929837 C738.134067,249.201516 734.066405,241.715152 734.845384,233.927462 L734.845384,233.379317 L733.116796,233.379317 C732.696329,233.379317 724.941046,232.968208 723.095662,217.391741 L723.095662,215.107802 L721.086763,215.107802 C721.086763,215.107802 714.359288,216.638041 705.319244,202.683172 C701.347266,191.469659 696.562035,180.547537 691,170 C702.288259,179.346678 712.873994,189.47546 722.675195,200.307875 C727.8122,204.357452 734.03116,206.878462 740.591769,207.570802 C743.124779,207.607088 745.595414,206.801872 747.599555,205.286863 C749.051695,207.548404 750.684127,209.694357 752.481646,211.704732 L751.617353,211.704732 L749.047831,213.509044 L751.780868,215.17632 C758.611004,218.271609 764.168423,223.536291 767.548387,230.113283 C767.318595,231.204321 766.492222,232.082562 765.399333,232.397223 L762.829811,233.653389 L764.978865,235.617577 C770.148016,239.82377 773.685212,245.636257 775,252.08478 L775,252.221816 C774.794589,253.817003 773.955508,255.26912 772.664071,256.264389 L771.098999,257.246483 L771.963293,259.027955 Z M597.438127,274.915192 C592.09253,271.130934 590.599127,263.998137 593.996656,258.478023 L595.003344,256.813788 L593.575251,255.833485 C592.138053,254.933314 591.192504,253.45172 591,251.798286 C592.31772,245.361524 595.862802,239.559638 601.043478,235.361116 L603.197324,233.400511 L600.458194,232.146635 C599.391652,231.788631 598.581989,230.93163 598.304348,229.866861 C601.746958,223.293375 607.363396,218.04099 614.247492,214.95714 L616.822742,213.292905 L614.481605,211.491884 L613.755853,211.491884 C615.183946,209.690863 616.77592,207.593471 618.438127,205.085719 C620.446737,206.597965 622.922881,207.401713 625.461538,207.365493 C631.924488,206.692684 638.052235,204.223526 643.113712,200.252599 C653.022634,189.473097 663.676198,179.365367 675,170 C669.340175,180.488918 664.541477,191.397479 660.648829,202.623564 C651.61204,217.122925 644.705686,215.025533 644.705686,215.025533 L642.692308,214.318804 L642.692308,216.598577 C640.959866,232.556994 632.789298,232.556994 632.789298,232.556994 L630.916388,232.556994 L630.916388,234.836768 C631.627952,242.596778 627.570194,250.03471 620.568562,253.804487 L619.561873,253.804487 L619.561873,255.195149 C619.070648,263.024604 617.275784,270.72425 614.247492,277.992887 C612.686207,284.599321 609.014184,290.553627 603.759197,295 C602.159467,294.645118 600.765119,293.696293 599.87291,292.355462 C597.708404,287.528483 597.159602,282.160378 598.304348,277.012584 L598.304348,275.758709 L597.438127,274.915192 Z M552.684727,216.462309 L553.827004,215.627897 L553.827004,214.116935 C552.684849,211.375033 552.684849,208.311749 553.827004,205.569848 C558.338419,199.350184 564.922776,194.819757 572.476431,192.737941 L574.481244,192.737941 L573.478837,190.663186 C572.479154,188.709054 572.479154,186.415607 573.478837,184.461474 C579.93519,179.349035 588.19773,176.87343 596.510879,177.56066 L599.075175,177.56066 L598.35251,174.944665 C598.210332,174.07809 598.210332,173.195245 598.35251,172.32867 L599.354916,172.32867 C604.508729,172.021516 609.465488,170.300586 613.645039,167.3673 C618.329518,172.331146 625.175672,174.843003 632.08466,174.132804 C634.514764,174.270784 636.951143,174.270784 639.381248,174.132804 C652.788642,169.02812 666.678096,165.198809 680.852909,162.699102 L681.272521,162 L684,162 L679.337643,164.751305 L674.045869,168.742953 C663.880664,177.303388 654.32442,186.517905 645.442311,196.323658 C640.99108,199.965581 635.506311,202.221585 629.706858,202.795991 C627.552049,202.898049 625.461017,202.072395 623.995471,200.540823 L623.272806,199.43579 L622.41027,197.924828 L620.84838,200.540823 C619.110992,203.349339 617.154911,206.025702 614.997123,208.546669 L613.435233,210.057632 C611.371021,212.383116 608.435689,213.819154 605.276109,214.04928 C604.322127,214.031381 603.386616,213.791593 602.548631,213.350177 L600.683688,211.974525 L599.681281,214.04928 C597.088935,222.655178 589.547032,229.00833 580.379125,230.309042 L578.047947,230.309042 L578.047947,231.549384 C573.185683,240.569575 567.024291,248.876302 559.748197,256.220923 C555.101825,262.901368 548.16722,267.781 540.1663,270 C533.009582,260.979328 545.877686,242.419294 545.877686,242.419294 L545.877686,240.773022 C542.686169,232.093487 545.388517,222.40914 552.661415,216.462309 L552.684727,216.462309 Z M628.749208,450.541109 L677.987116,450.541109 L667.516854,405.363289 L675.588642,397.355641 L665.118379,356.537285 L673.466915,352.476099 L662.443158,307.734226 L672.336864,300.713193 L663.711582,262.556405 L673.466915,257.23327 L667.240107,223.275335 L675.450268,217.952199 L674.181845,181.240918 C676.445357,174.253897 680.489629,167.969444 685.920531,163 C691.47344,167.913074 695.538691,174.269858 697.659217,181.355641 L696.390793,218.066922 L704.462582,223.25239 L698.235774,257.210325 L708.12948,262.533461 L699.365824,300.690249 L709.25953,307.711281 L698.512521,352.453155 L706.861056,356.51434 L696.25242,397.332696 L704.324208,405.340344 L695.260743,450.380497 L743.691473,450.380497 L744.68315,451.229446 C747.844748,452.280962 749.641529,455.595072 748.788231,458.801147 C740.426584,469.646206 730.402754,479.115599 719.08405,486.862333 C717.560878,482.77023 716.425881,478.545317 715.693899,474.24283 C714.702222,472.98088 704.162772,484.338432 699.135201,487 C695.360222,482.964059 691.082085,479.424851 686.404838,476.468451 C678.909606,481.240918 670.699444,487 670.699444,487 C665.879434,484.476099 658.384202,473.23327 657.553961,474.518164 C656.678219,478.77189 655.451773,482.946618 653.887063,487 C642.60147,479.037295 632.667114,469.331794 624.459629,458.250478 C622.245653,453.340344 628.749208,450.541109 628.749208,450.541109 L628.749208,450.541109 Z M782.432867,80.0041267 C784.611732,79.9140113 786.579456,81.307776 787.231829,83.4032946 L787.943637,85.2300583 L789.482061,84.3744854 C790.913151,83.6818096 792.487042,83.341035 794.074369,83.380171 C798.586749,83.5502556 802.546187,86.4584828 804.085602,90.733473 L804.085602,91.866529 L805.210718,91.866529 C809.952815,91.5180925 814.644339,93.0349485 818.298798,96.0981462 C819.431929,97.3639798 820.040043,99.0191303 819.997952,100.722864 C815.4834,104.849223 810.011828,107.767316 804.085602,109.209222 L801.789448,109.209222 C796.750135,110.679651 791.536604,111.457477 786.290406,111.521582 L778.827904,111.521582 L778.827904,112.654638 C775.601926,117.951401 769.793482,121.088183 763.627363,120.863512 L758.139554,120.863512 L758.139554,124.401422 C757.71533,126.025562 756.83899,127.493762 755.613784,128.633039 L754.07536,129.904837 C752.745116,130.682627 751.326561,131.295978 749.850436,131.7316 L748.174244,131.7316 C746.110098,131.87323 744.038773,131.87323 741.974627,131.7316 L740.436203,131.7316 L740.436203,133.558364 C738.742199,140.550919 733.309828,146.003779 726.360777,147.686878 L726.774085,146.415081 C717.936987,148.349306 709.232036,150.851781 700.712733,153.907124 C697.383397,155.039134 694.137723,156.406838 691,158 C692.262885,156.450719 693.686501,154.739574 695.224924,153.190293 C700.836265,147.464925 706.761992,142.060938 712.974197,137.003779 C718.241382,132.042817 720.806701,124.826454 719.86266,117.62621 C725.785814,115.408344 729.830216,109.853502 730.149432,103.497695 C733.538555,102.143222 736.537866,99.9573497 738.874819,97.1387078 C740.419102,97.1526372 741.728489,98.2856806 741.974627,99.8210444 L745.212205,101.370325 L747.186897,98.82673 C750.84733,92.6222397 756.303283,87.6925573 762.823709,84.6982157 C763.237016,84.6982157 764.224363,84.6982157 765.119863,87.3805523 L765.119863,90.340372 L767.416017,88.3517431 C771.501551,84.1600245 776.712205,81.2590733 782.409905,80.0041267 L782.432867,80.0041267 Z M704.55114,90.5722571 L706.830508,92.7066216 L707.537113,89.5746738 C707.964555,83.0519745 710.692412,76.9059159 715.218586,72.2677622 C715.938591,72.4182035 716.556195,72.8854083 716.905319,73.5437409 L718.865576,75.8637023 L719.845704,73.0333494 C721.604808,67.517217 725.486947,62.9632045 730.604325,60.4127598 C731.636266,60.4096662 732.61512,60.8780059 733.271186,61.6887385 L734.661601,62.9647173 L735.778492,61.4103432 C737.323296,59.2924501 739.75167,58.0308941 742.343074,58 C744.673452,58.0525968 746.907059,58.9586562 748.634132,60.5519575 L749.614261,61.2711455 L750.594389,61.2711455 C753.296297,59.5699368 756.378859,58.5959673 759.552309,58.4407927 C761.826275,58.2542204 763.9831,59.4942072 765,61.5727405 C762.993194,66.8464444 759.424513,71.3543064 754.788428,74.4717255 C750.143364,78.7088778 744.794675,82.071081 738.992402,84.40116 L737.875511,84.40116 L737.875511,87.3707105 C737.583701,89.7217118 736.72208,91.9619591 735.368206,93.8898018 C733.113035,97.0812335 729.920486,99.4614221 726.250731,100.687289 L725.13384,100.687289 L725.13384,103.00725 C724.963231,105.500377 723.862321,107.83271 722.056692,109.526341 C720.116218,111.407707 717.90193,112.972791 715.49211,114.166264 L713.964933,114.885452 L714.945061,116.718221 C716.369977,122.880301 714.199176,129.328316 709.360608,133.305945 C704.373597,136.862793 699.698618,140.852568 695.388077,145.230546 L694.977791,145.648139 L690.783752,149.893668 L687,154 L687,151.680039 C691.558738,135.927501 699.445354,107.415176 702.659264,89.2730788 C703.42264,89.4609248 704.089361,89.9326309 704.528346,90.5954567 L704.55114,90.5722571 Z M669.638488,46.6953497 C669.90127,46.2539758 670.374126,45.9845845 670.883765,45.9859026 L672.264891,45.9859026 L674.3479,47.244599 L674.3479,44.5898938 C675.447878,37.5028605 678.211811,30.7853804 682.408239,25 C686.645395,30.7766661 689.455496,37.4931516 690.604426,44.5898938 L690.604426,47.244599 L692.687435,45.9859026 L693.932712,45.9859026 C694.478329,45.9876855 694.990777,46.2509162 695.313838,46.6953497 C698.487431,55.6620419 699.268342,65.3154966 697.577978,74.6841816 L697.577978,76.9727206 L698.959104,76.9727206 C699.12271,80.4500341 698.794883,83.9331618 697.985523,87.3169169 C697.847739,88.2883943 697.847739,89.2747694 697.985523,90.2462468 L697.011943,90.1089345 C696.415846,91.6804842 696.042348,93.3292608 695.902514,95.0064079 C693.117622,107.890882 688.679907,125.649945 683.540309,143.569205 L683.540309,144.69059 C682.719742,146.352548 682.205686,148.151743 682.023335,150 L680.347871,144.827902 L680.347871,143.706518 C675.344121,125.787257 670.770558,108.028195 668.121514,95.1437202 L667.012085,90.1089345 L667.012085,87.1796045 C666.208453,83.7948818 665.880704,80.3125804 666.038505,76.8354083 L667.283782,76.8354083 L667.283782,74.5468693 C665.507603,65.2307613 666.3147,55.599639 669.615846,46.7182351 L669.638488,46.6953497 Z M608.308901,58.442611 C611.45485,58.670229 614.50669,59.6429964 617.225131,61.2846397 L618.200698,61.2846397 L619.176265,60.5624848 C620.842266,58.9647006 623.022798,58.0525397 625.30192,58 C627.900467,58.1074011 630.329269,59.3543307 631.972077,61.4244116 L633.08377,62.9851978 L634.467714,61.7039554 C635.114226,60.9914387 636.015066,60.5794068 636.963351,60.5624848 C642.021587,63.1315925 645.839998,67.7085358 647.535777,73.2351371 L648.647469,76.0771657 L650.462478,73.7476341 C650.789254,73.0079889 651.48789,72.5148104 652.277487,72.4663917 C656.720827,77.1529646 659.384546,83.3171987 659.787086,89.8446979 L659.787086,92.9895656 L662.055846,90.8463965 C662.546385,90.2312695 663.241513,89.8245994 664.006981,89.704926 L664.846422,89.1458384 C668.045375,107.386071 675.849913,136.016016 680.296684,151.670468 L681,154 C679.871314,152.559385 678.66709,151.182924 677.39267,149.876729 L673.082024,145.613686 C666.411867,139.62679 660.286213,134.50182 659.17452,133.639893 C654.398717,129.613427 652.203235,123.191844 653.47993,116.983742 L654.591623,115.283184 L651.801047,112.720699 C649.402626,111.521981 647.198689,109.950473 645.267016,108.061636 C643.506672,106.348189 642.458264,104.003276 642.340314,101.515652 L642.340314,99.1861199 L641.228621,99.1861199 C637.5399,98.0281365 634.341396,95.6224756 632.153578,92.3605921 C630.93621,90.3772016 630.16143,88.1417543 629.884817,85.8146081 L629.884817,84.4634797 L628.90925,84.4634797 C623.057897,82.1825503 617.672073,78.8012969 613.027923,74.4930842 C608.450615,71.3561935 604.944111,66.8271467 603,61.5408881 C603.968281,59.4758858 606.08685,58.2487838 608.308901,58.4659063 L608.308901,58.442611 Z M555.643644,98.768615 C559.272916,95.7679035 563.932104,94.2819898 568.641518,94.6233185 L570.6026,94.6233185 L570.6026,93.5133757 C572.144464,89.2766039 576.147666,86.4155932 580.681653,86.3100736 C582.183479,86.2860422 583.669216,86.6200555 585.014277,87.284105 L586.701721,88.1222251 L587.545442,86.3327255 C588.10455,84.3066155 589.992544,82.9281533 592.1061,83.0028971 C597.792276,84.238442 603.019571,87.0229882 607.201875,91.0443193 L609.162958,92.9923822 L610.143499,90.0929398 C610.713581,87.3294088 612.241402,87.3294088 612.241402,87.3294088 C618.716887,90.2626689 624.135236,95.0917908 627.77044,101.169716 L629.594703,103.661424 L630.848883,100.761982 C631.093325,99.2579377 632.393688,98.1480073 633.927327,98.134362 C636.210672,100.935133 639.200642,103.084561 642.592576,104.363633 C643.044461,110.541324 647.013205,115.918117 652.808449,118.20394 C652.123212,125.228382 654.632007,132.189757 659.649434,137.186227 C665.818824,142.140224 671.703709,147.433976 677.276375,153.042552 C678.819583,154.479907 680.224284,156.057287 681.47218,157.754146 L683,159 C679.872732,157.463549 676.651082,156.124432 673.35421,154.990615 C664.893643,151.997538 656.248685,149.54611 647.472479,147.651401 C640.620346,145.916244 635.263202,140.612029 633.494065,133.811094 L633.494065,132.021595 L631.213736,132.021595 C629.163817,132.160336 627.106768,132.160336 625.056849,132.021595 L623.369405,132.021595 C621.882561,131.654491 620.465542,131.050136 619.173601,130.232095 L617.486158,128.986241 C616.268399,127.87101 615.397911,126.43245 614.977796,124.840945 L614.977796,122.892882 L609.66463,122.892882 C603.55546,123.051809 597.815889,119.994377 594.568854,114.851459 L594.568854,113.741517 L587.294606,113.741517 C582.038882,113.688477 576.81477,112.926447 571.765568,111.476327 L569.804485,111.476327 C563.919105,110.063834 558.485244,107.205267 554.001808,103.163082 C553.96298,101.550336 554.550956,99.9846956 555.643644,98.7912669 L555.643644,98.768615 Z M513.305342,181.393734 C515.586803,175.412984 519.768424,170.376021 525.187869,167.080658 L526.318439,167.080658 L526.318439,165.792247 C525.0672,158.035102 530.221733,150.708416 537.854873,149.394287 L539.700703,149.394287 L539.700703,147.379681 C539.304917,145.466615 539.770187,143.474013 540.969711,141.944929 C544.876326,138.559664 550.030718,137.048609 555.113379,137.798587 C557.797791,137.511578 560.504469,137.511578 563.188882,137.798587 L566.026845,137.798587 L565.311586,134.800103 C564.887433,133.499562 564.887433,132.094857 565.311586,130.794316 C566.690712,129.516338 568.564766,128.939498 570.41069,129.224797 C577.243434,129.871543 583.932523,131.610891 590.230283,134.378442 L593.068246,135.526299 L593.068246,132.363835 C592.771263,130.876455 593.079156,129.330351 593.921942,128.07694 C595.713882,126.503788 598.076857,125.772146 600.428491,126.062333 C605.99994,126.40028 611.486643,127.609218 616.694863,129.646459 L617.410122,129.646459 C621.053124,131.647127 625.152793,132.633161 629.292649,132.504389 C631.635407,140.26229 637.547896,146.378774 645.143709,148.902349 C645.143709,148.902349 651.927132,150.471868 660.002636,152.767582 C665.10771,154.092194 670.118346,155.767074 675,157.780673 L670.177771,158.647422 C658.557693,161.51408 647.122645,165.10501 635.937635,169.399798 C633.72488,169.542854 631.505403,169.542854 629.292649,169.399798 C623.108893,170.554117 616.822903,167.992158 613.141641,162.817189 L612.287945,160.474623 L610.442116,161.903588 C606.359254,165.092834 601.438009,166.983839 596.298448,167.33834 L592.768299,167.33834 C591.486663,166.900467 590.324691,166.162128 589.376587,165.18318 L588.10758,163.613661 L586.838572,164.761518 C582.588396,168.793836 577.073367,171.174599 571.264386,171.484682 C568.363808,171.481984 565.503861,170.79216 562.912008,169.470075 L561.758364,169.470075 L560.766231,170.336824 C553.905172,175.944336 546.083012,180.217004 537.693363,182.939828 L536.70123,184.228239 C532.618432,187.230308 527.550964,188.514447 522.557562,187.812364 C519.72729,187.952918 516.897018,187.952918 514.066747,187.812364 C512.988102,185.858839 512.714386,183.551417 513.305342,181.393734 Z M803.538043,517.677527 C770.462492,540.245168 738.666106,564.595652 707.829094,590.119654 C724.36687,605.149702 740.196536,620.608536 755.477989,636.766967 L756.049044,636.360749 L757.579474,634.984123 C757.579474,634.848717 757.716527,634.848717 757.716527,634.713312 C758.179819,634.326899 758.7796,634.138317 759.383724,634.189113 C759.987849,634.23991 760.546747,634.525918 760.937282,634.984123 C761.361023,635.612886 761.361023,636.431584 760.937282,637.060346 C762.004232,636.249777 762.800045,635.141169 763.221505,633.878309 C761.764196,629.849844 762.993704,625.350852 766.305206,622.594489 C766.746902,622.06643 767.262177,621.602938 767.835636,621.217863 C772.080723,618.276416 777.935574,619.291856 780.912812,623.485912 C783.890049,627.679967 782.862255,633.464436 778.617169,636.405885 C776.055324,638.642772 772.579294,639.561913 769.229012,638.888325 C767.967342,640.91738 767.658987,643.387502 768.383849,645.658617 C777.181975,656.987688 790.915461,663.499511 805.365422,663.193674 C816.856902,663.03523 827.727586,658.014462 835.220218,649.404846 C835.836893,648.678488 836.49265,647.985414 837.18465,647.328623 C843.891883,641.910946 853.763338,642.836907 859.318772,649.404846 L859.889828,647.892814 C877.820979,673.010598 841.387621,696.593782 815.758637,696.593782 C790.81172,696.23163 766.911046,686.631656 748.785215,669.693155 C746.272569,666.511117 744.216769,665.405303 741.77265,666.511117 C740.255454,667.696001 739.290806,669.439191 739.100109,671.340593 C739.390128,674.75055 738.035675,678.095978 735.445352,680.367649 C731.536111,684.084755 725.352305,684.084755 721.443064,680.367649 C721.306011,680.232243 721.168957,679.961431 721.031904,679.826025 C719.525665,677.796356 718.90055,675.257177 719.294985,672.770767 C719.689419,670.284357 721.070856,668.055884 723.133389,666.57882 C725.171474,664.59796 727.981988,663.592735 730.831221,663.825568 C729.945574,662.945346 729.945574,661.523753 730.831221,660.643531 L733.777869,657.596899 C717.377147,641.596442 700.428211,626.273014 683.205169,611.084992 C665.959284,626.273014 648.941822,641.573874 632.632469,657.596899 L636.12733,661.049748 C636.563192,661.4391 636.811895,661.992521 636.811895,662.573064 C636.811895,663.153607 636.563192,663.707029 636.12733,664.09638 L636.12733,664.231786 C639.008406,664.064628 641.835094,665.057952 643.962215,666.985038 C646.679744,668.887821 648.163369,672.078421 647.854224,675.35497 C647.545079,678.631519 645.49013,681.49623 642.463457,682.869995 C639.436783,684.24376 635.89821,683.917871 633.180682,682.015087 C632.612409,681.676728 632.096886,681.258624 631.650253,680.773866 C629.01471,678.535216 627.657607,675.162162 628.018338,671.74681 C627.775675,669.82973 626.763261,668.089469 625.208743,666.917335 C622.92452,665.811521 620.86872,666.917335 618.196178,670.099372 C600.17342,687.111129 576.28426,696.726154 551.35981,697 C525.570931,697 489.297467,673.394248 507.228619,648.299031 L507.091565,649.404846 C509.778968,646.255502 513.627447,644.296063 517.782992,643.961345 C521.938537,643.626627 526.057442,644.944315 529.225688,647.622002 C529.902303,648.144741 530.515498,648.742992 531.053066,649.404846 C538.543656,658.093292 549.493218,663.127381 561.044916,663.193674 C575.644589,663.921653 589.677336,657.529344 598.597544,646.087403 C599.395332,643.823428 599.083036,641.321733 597.752381,639.31711 C594.402099,639.990698 590.92607,639.071557 588.364224,636.83467 C585.618134,634.931886 584.108117,631.726232 584.402981,628.425245 C584.697845,625.124258 586.752793,622.229437 589.793747,620.831234 C592.834701,619.43303 596.399667,619.743864 599.145758,621.646648 C599.719216,622.031723 600.234491,622.495215 600.676187,623.023274 C603.987689,625.779638 605.217197,630.278629 603.759888,634.307094 C604.181348,635.569954 604.977162,636.678563 606.044111,637.489131 C605.762382,636.825044 605.762382,636.076996 606.044111,635.412909 C606.434646,634.954703 606.993545,634.668695 607.597669,634.617899 C608.201794,634.567102 608.801574,634.755684 609.264866,635.142097 C609.264866,635.277503 609.401919,635.277503 609.401919,635.412909 L610.932349,636.789535 C626.350855,620.653671 642.180521,605.194838 658.718297,590.277627 C627.896513,564.610697 595.917389,540.418186 562.780925,517.700095 C456.290443,447.875814 376,454.646106 376,454.646106 C436.257806,431.875357 511.911276,454.104483 546.517257,473.26441 C594.940034,500.861672 640.674723,532.82578 683.136642,568.748098 C725.598561,532.82578 771.33325,500.861672 819.756027,473.26441 C854.019374,454.081915 929.878425,431.875357 990,454.646106 C990.296126,454.578404 910.165579,447.830679 803.538043,517.654959 L803.538043,517.677527 Z" id="Path_1" stroke="#1C5E5C" opacity="0.463936942" stroke-dasharray="2,5" mask="url(#mask-2)"></path>
            </g>
        </g>
    </g>
</svg>