<?xml version="1.0" encoding="UTF-8"?>
<svg width="81px" height="45px" viewBox="0 0 81 45" version="1.1" xmlns="http://www.w3.org/2000/svg" xmlns:xlink="http://www.w3.org/1999/xlink">
    <!-- Generator: sketchtool 60.1 (101010) - https://sketch.com -->
    <title>5AC5C135-6249-4984-B96B-7A5A323BEF41</title>
    <desc>Created with sketchtool.</desc>
    <g id="Page-v.4" stroke="none" stroke-width="1" fill="none" fill-rule="evenodd">
        <g id="QR-Public-Webpage-2" transform="translate(-364.000000, -1228.000000)">
            <g id="Group-5" transform="translate(91.000000, 900.000000)">
                <g id="Group-8">
                    <g id="Group-7" transform="translate(274.000000, 330.000000)">
                        <path d="M77.2842877,0.0673122139 L49.7686109,0 C48.8294139,-0.00250531579 48.0683749,0.77000807 48.0658797,1.71832099 L48,29.2219071 C47.9975109,30.1581652 48.7550566,30.9301763 49.6942536,30.9326878 L64.5088134,30.9683499 L64.5377579,18.995397 L60.5045007,18.9848491 L60.5154796,14.313102 L64.5487368,14.3236499 L64.5572205,10.8799882 C64.5667023,6.89586845 67.0140041,4.72298619 70.580158,4.73102274 C72.2833882,4.73604558 73.7530668,4.86663952 74.1677707,4.91284969 L74.1577898,9.09788319 L71.6890292,9.09235807 C69.760232,9.08733522 69.3849525,10.0080225 69.3819582,11.3611766 L69.3744726,14.3347002 L73.993605,14.346755 L73.3722978,19.0169953 L69.3629946,19.0064473 L69.3345492,30.9809071 L77.2099305,31 C78.1491275,31.0025053 78.9321243,30.2345125 78.9341205,29.2967475 L79,1.79416593 C79.0024892,0.846355297 78.2229857,0.0698236358 77.2842877,0.0673122139 Z" id="Stroke-144" stroke="#085451" stroke-width="2"></path>
                        <path d="M25.6243756,0 L27.0954046,0.00353564155 C29.3321678,0.269213849 30.8481518,1.24454582 32.1118881,2.45373523 C33.983017,2.0930998 35.5529471,1.40112424 37.005994,0.604089613 C36.3966034,2.54465173 35.2322677,3.87203259 33.6943057,4.89888391 C35.3401598,4.68977597 36.7347652,4.26196334 38,3.68565377 C37.8766234,4.09881874 37.5434565,4.49026477 37.2257742,4.86807332 C36.3616384,5.95149491 35.2652348,6.9197556 34.1568432,7.80568635 C34.3266733,14.9724318 31.503996,20.4445947 28.0909091,24.2019715 C24.6083916,28.0320815 19.7222777,30.5620855 13.1033966,31 L10.8531469,30.9934338 C6.35064935,30.7014908 2.96003996,29.313499 0,27.4855723 L0.0004995005,27.4224358 C4.72877123,27.9229817 8.62087912,26.4647821 11.2407592,24.44189 C11.2907093,24.3863299 11.453047,24.3322851 11.4185814,24.2292464 C7.52597403,23.9388187 5.30819181,21.7972301 4.28921079,18.7666802 C5.30519481,18.9545743 6.82067932,18.9439674 7.68581419,18.616668 C4.01198801,17.651943 1.75224775,15.2552831 1.54345654,10.8372464 C2.51598402,11.3206191 3.53396603,11.7226721 4.93506494,11.8115682 C3.67082917,10.8428024 2.43606394,9.37450102 1.92607393,7.45868839 C1.36163836,5.3772057 1.68981019,2.8310387 2.7047952,1.36879837 C6.41058941,5.71511202 11.1848152,9.02952342 18.7257742,9.56492057 C17.7647353,4.32408961 21.2447552,0.513678208 25.6243756,0" id="Stroke-145" stroke="#085451" stroke-width="2"></path>
                        <polygon id="Fill-146" fill="#FFFFFF" points="22 42 52 42 52 14 22 14"></polygon>
                        <path d="M24.0446334,22.9548634 L31.9548634,22.9548634 L31.9548634,15.0446334 L24.0446334,15.0446334 L24.0446334,22.9548634 Z M23,24 L33,24 L33,14 L23,14 L23,24 Z" id="Fill-147" fill="#085451"></path>
                        <path d="M42.0446334,22.9548634 L49.9548634,22.9548634 L49.9548634,15.0446334 L42.0446334,15.0446334 L42.0446334,22.9548634 Z M41,24 L51,24 L51,14 L41,14 L41,24 Z" id="Fill-148" fill="#085451"></path>
                        <path d="M24.0446334,41.955314 L31.9548634,41.955314 L31.9548634,34.044686 L24.0446334,34.044686 L24.0446334,41.955314 Z M23,43 L33,43 L33,33 L23,33 L23,43 Z" id="Fill-149" fill="#085451"></path>
                        <polygon id="Fill-150" fill="#E18431" points="25 22 30 22 30 17 25 17"></polygon>
                        <polygon id="Fill-151" fill="#E18431" points="26 21 30 21 30 17 26 17"></polygon>
                        <polygon id="Fill-152" fill="#085451" points="46 43 46 41.9287136 49.0094238 41.9287136 49.0094238 36 50 36 50 43"></polygon>
                        <polygon id="Fill-153" fill="#085451" points="23 30 23 26 24.2113769 26 24.2113769 28.537131 25 28.537131 25 30"></polygon>
                        <polygon id="Fill-154" fill="#E18431" points="43 22 48 22 48 17 43 17"></polygon>
                        <polygon id="Fill-155" fill="#E18431" points="44 21 48 21 48 17 44 17"></polygon>
                        <polygon id="Fill-156" fill="#E18431" points="25 40 30 40 30 35 25 35"></polygon>
                        <polygon id="Fill-157" fill="#E18431" points="26 40 30 40 30 36 26 36"></polygon>
                        <polygon id="Fill-158" fill="#085451" points="45 36 45 31.7589935 49.0240692 31.7589935 49.0240692 28 50 28 50 32.809003 45.9759308 32.809003 45.9759308 36"></polygon>
                        <polygon id="Fill-159" fill="#085451" points="35 40 35 38 38 38 38 39.2108486 36.0962859 39.2108486 36.0962859 40"></polygon>
                        <polygon id="Fill-160" fill="#085451" points="31 30 33 30 33 28 31 28"></polygon>
                        <polygon id="Fill-161" fill="#085451" points="32 30 33 30 33 29 32 29"></polygon>
                        <polygon id="Fill-162" fill="#085451" points="45 29 45 27.7798072 46.8201265 27.7798072 46.8201265 25 50 25 50 26.2201928 47.938058 26.2201928 47.938058 29"></polygon>
                        <polygon id="Fill-163" fill="#085451" points="42.0621499 42 42.0621499 39.9161281 40 39.9161281 40 39 43.1802025 39 43.1802025 41.0851939 45 41.0851939 45 42"></polygon>
                        <polygon id="Fill-164" fill="#085451" points="34 24 34 14 39 14 39 15.0567037 35.3085026 15.0567037 35.3085026 24"></polygon>
                        <polygon id="Fill-165" fill="#085451" points="35 38 35 34.183038 37.7799155 34.183038 37.7799155 32 39 32 39 35.5253742 36.2200845 35.5253742 36.2200845 38"></polygon>
                        <polygon id="Fill-166" fill="#085451" points="41 37 41 32 42.8169627 32 42.8169627 35.1722253 44 35.1722253 44 37"></polygon>
                        <polygon id="Fill-167" fill="#085451" points="35 31 35 29.7758727 38.7616006 29.7758727 38.7616006 23 40 23 40 31"></polygon>
                        <polygon id="Fill-168" fill="#085451" points="43 30 45 30 45 28 43 28"></polygon>
                        <polygon id="Fill-169" fill="#085451" points="43 29 44 29 44 28 43 28"></polygon>
                        <polygon id="Fill-170" fill="#085451" points="46 40 48 40 48 38 46 38"></polygon>
                        <polygon id="Fill-171" fill="#085451" points="47 40 48 40 48 39 47 39"></polygon>
                        <polygon id="Fill-172" fill="#085451" points="41 28 43 28 43 26 41 26"></polygon>
                        <polygon id="Fill-173" fill="#085451" points="42 28 43 28 43 27 42 27"></polygon>
                        <polygon id="Fill-174" fill="#085451" points="41 32 43 32 43 30 41 30"></polygon>
                        <polygon id="Fill-175" fill="#085451" points="41 31 42 31 42 30 41 30"></polygon>
                        <polygon id="Fill-176" fill="#085451" points="34 43 36 43 36 41 34 41"></polygon>
                        <polygon id="Fill-177" fill="#085451" points="35 43 36 43 36 42 35 42"></polygon>
                        <polygon id="Fill-178" fill="#085451" points="37 22 39 22 39 20 37 20"></polygon>
                        <polygon id="Fill-179" fill="#085451" points="38 22 39 22 39 21 38 21"></polygon>
                        <polygon id="Fill-180" fill="#085451" points="37 19 39 19 39 17 37 17"></polygon>
                        <polygon id="Fill-181" fill="#085451" points="38 18 39 18 39 17 38 17"></polygon>
                        <polygon id="Fill-182" fill="#085451" points="38 43 40 43 40 41 38 41"></polygon>
                        <polygon id="Fill-183" fill="#085451" points="38 43 39 43 39 42 38 42"></polygon>
                        <polygon id="Fill-184" fill="#085451" points="26 32 26 27.5480085 29.4750052 27.5480085 29.4750052 25 31 25 31 29.1127518 27.5249948 29.1127518 27.5249948 32"></polygon>
                        <polygon id="Fill-185" fill="#085451" points="34 28 36 28 36 26 34 26"></polygon>
                        <polygon id="Fill-186" fill="#085451" points="35 27 36 27 36 26 35 26"></polygon>
                    </g>
                </g>
            </g>
        </g>
    </g>
</svg>